{
.appVersion = "1131";
classes = (
{
automatic = 1;

glyphs = (
{
glyphname = A;
lastChange = "2018-04-21 00:44:49 +0000";
layers = (
{
anchors = (
{
name = bottom;
position = "{333, 0}";
},
{
name = ogonek;
position = "{590, 10}";
},
{
name = top;
position = "{333, 700}";
}
);
layerId = "3D0525B3-6B2A-4787-8D58-1F6DD6CCA7DC";
paths = (
{
closed = 1;
nodes = (
"316 612 LINE",
"384 427 LINE",
"541 0 LINE",
"655 0 LINE",
"392 700 LINE",
"272 700 LINE",
"7 0 LINE",
"116 0 LINE",
"269 418 LINE",
"341 613 LINE"
);
},
{
closed = 1;
nodes = (
"501 174 LINE",
"484 278 LINE",
"199 278 LINE",
"156 174 LINE"
);
}
);
width = 662;
}
);
leftKerningGroup = A;
note = A;
rightKerningGroup = A;
unicode = 0041;
},
{
glyphname = Aogonek;
lastChange = "2018-04-02 16:38:16 +0000";
layers = (
{
anchors = (
{
name = _ogonek;
position = "{604, 10}";
},
{
name = bottom;
position = "{323, 0}";
},
{
name = ogonek;
position = "{580, 10}";
},
{
name = top;
position = "{323, 700}";
}
);
layerId = "3D0525B3-6B2A-4787-8D58-1F6DD6CCA7DC";
paths = (
{
closed = 1;
nodes = (
"593 -201 OFFCURVE",
"643 -164 OFFCURVE",
"643 -133 CURVE SMOOTH",
"643 -110 OFFCURVE",
"627 -95 OFFCURVE",
"607 -95 CURVE SMOOTH",
"597 -95 OFFCURVE",
"583 -98 OFFCURVE",
"573 -112 CURVE SMOOTH",
"567 -120 OFFCURVE",
"559 -124 OFFCURVE",
"548 -124 CURVE SMOOTH",
"530 -124 OFFCURVE",
"512 -111 OFFCURVE",
"512 -81 CURVE SMOOTH",
"512 -46 OFFCURVE",
"553 -16 OFFCURVE",
"606 -1 CURVE SMOOTH",
"625 3 OFFCURVE",
"632 17 OFFCURVE",
"632 30 CURVE SMOOTH",
"632 35 OFFCURVE",
"631 40 OFFCURVE",
"629 45 CURVE SMOOTH",
"368 671 LINE SMOOTH",
"360 691 OFFCURVE",
"343 703 OFFCURVE",
"323 703 CURVE",
"301 705 OFFCURVE",
"283 694 OFFCURVE",
"274 671 CURVE SMOOTH",
"21 57 LINE",
"19 50 OFFCURVE",
"18 44 OFFCURVE",
"18 37 CURVE SMOOTH",
"18 11 OFFCURVE",
"29 -4 OFFCURVE",
"61 -4 CURVE SMOOTH",
"80 -4 OFFCURVE",
"97 9 OFFCURVE",
"104 29 CURVE",
"331 573 LINE",
"306 572 LINE",
"542 10 LINE",
"583 21 LINE",
"584 52 LINE",
"520 33 OFFCURVE",
"429 -3 OFFCURVE",
"429 -98 CURVE SMOOTH",
"429 -167 OFFCURVE",
"480 -201 OFFCURVE",
"540 -201 CURVE SMOOTH"
);
},
{
closed = 1;
nodes = (
"491 174 LINE",
"474 268 LINE",
"189 268 LINE",
"159 174 LINE"
);
}
);
width = 645;
}
);
unicode = 0104;
},
{
glyphname = Aring;
lastChange = "2018-04-02 16:38:16 +0000";
layers = (
{
anchors = (
{
name = _top;
position = "{323, 669}";
},
{
name = top;
position = "{323, 853}";
}
);
components = (
{
name = A;
}
);
layerId = "3D0525B3-6B2A-4787-8D58-1F6DD6CCA7DC";
paths = (
{
closed = 1;
nodes = (
"381 645 OFFCURVE",
"432 693 OFFCURVE",
"432 750 CURVE",
"432 809 OFFCURVE",
"381 856 OFFCURVE",
"323 856 CURVE",
"265 856 OFFCURVE",
"213 809 OFFCURVE",
"213 750 CURVE",
"213 693 OFFCURVE",
"265 645 OFFCURVE",
"323 645 CURVE"
);
},
{
closed = 1;
nodes = (
"295 704 OFFCURVE",
"274 724 OFFCURVE",
"274 750 CURVE",
"274 778 OFFCURVE",
"295 797 OFFCURVE",
"323 797 CURVE",
"348 797 OFFCURVE",
"372 780 OFFCURVE",
"372 750 CURVE",
"372 724 OFFCURVE",
"350 704 OFFCURVE",
"323 704 CURVE"
);
}
);
width = 645;
}
);
unicode = 00C5;
},
{
glyphname = AE;
lastChange = "2018-04-02 16:38:16 +0000";
layers = (
{
anchors = (
{
name = bottom;
position = "{458, 0}";
},
{
name = top;
position = "{607, 700}";
}
);
layerId = "3D0525B3-6B2A-4787-8D58-1F6DD6CCA7DC";
paths = (
{
closed = 1;
nodes = (
"135 153 LINE",
"449 153 LINE",
"426 166 LINE",
"426 49 LINE SMOOTH",
"426 21 OFFCURVE",
"447 0 OFFCURVE",
"475 0 CURVE SMOOTH",
"805 0 LINE SMOOTH",
"834 0 OFFCURVE",
"855 19 OFFCURVE",
"855 46 CURVE SMOOTH",
"855 71 OFFCURVE",
"834 93 OFFCURVE",
"805 93 CURVE SMOOTH",
"518 93 LINE",
"527 72 LINE",
"527 322 LINE",
"517 308 LINE",
"760 308 LINE SMOOTH",
"789 308 OFFCURVE",
"810 326 OFFCURVE",
"810 354 CURVE SMOOTH",
"810 382 OFFCURVE",
"789 402 OFFCURVE",
"760 402 CURVE SMOOTH",
"519 402 LINE",
"527 385 LINE",
"527 616 LINE",
"518 607 LINE",
"805 607 LINE SMOOTH",
"834 607 OFFCURVE",
"855 625 OFFCURVE",
"855 652 CURVE SMOOTH",
"855 680 OFFCURVE",
"834 700 OFFCURVE",
"805 700 CURVE SMOOTH",
"484 700 LINE SMOOTH",
"467 700 OFFCURVE",
"451 695 OFFCURVE",
"439 679 CURVE SMOOTH",
"16 72 LINE SMOOTH",
"9 62 OFFCURVE",
"5 51 OFFCURVE",
"5 40 CURVE SMOOTH",
"7 13 OFFCURVE",
"29 -4 OFFCURVE",
"51 -4 CURVE SMOOTH",
"64 -4 OFFCURVE",
"77 3 OFFCURVE",
"86 16 CURVE",
"445 541 LINE",
"426 552 LINE",
"426 213 LINE",
"444 245 LINE",
"189 245 LINE"
);
}
);
width = 898;
}
);
note = AE;
rightMetricsKey = E;
unicode = 00C6;
},
{
glyphname = B;
lastChange = "2018-04-13 13:49:50 +0000";
layers = (
{
anchors = (
{
name = bottom;
position = "{333, 0}";
},
{
name = top;
position = "{333, 700}";
}
);
layerId = "3D0525B3-6B2A-4787-8D58-1F6DD6CCA7DC";
paths = (
{
closed = 1;
nodes = (
"82 700 LINE",
"82 0 LINE",
"384 0 LINE",
"492 0 OFFCURVE",
"617 43 OFFCURVE",
"617 206 CURVE",
"617 354 OFFCURVE",
"484 399 OFFCURVE",
"396 399 CURVE",
"395 363 LINE",
"516 365 OFFCURVE",
"580 433 OFFCURVE",
"580 524 CURVE",
"580 638 OFFCURVE",
"510 700 OFFCURVE",
"374 700 CURVE"
);
},
{
closed = 1;
nodes = (
"421 596 OFFCURVE",
"472 570 OFFCURVE",
"472 503 CURVE",
"472 444 OFFCURVE",
"423 411 OFFCURVE",
"368 410 CURVE",
"181 410 LINE",
"190 399 LINE",
"190 621 LINE",
"180 596 LINE",
"356 596 LINE"
);
},
{
closed = 1;
nodes = (
"434 306 OFFCURVE",
"507 283 OFFCURVE",
"507 208 CURVE",
"507 137 OFFCURVE",
"454 104 OFFCURVE",
"378 104 CURVE",
"184 104 LINE",
"190 84 LINE",
"190 324 LINE",
"185 306 LINE",
"373 306 LINE"
);
}
);
width = 660;
}
);
leftMetricsKey = H;
note = B;
rightKerningGroup = B;
rightMetricsKey = O;
unicode = 0042;
},
{
glyphname = C;
lastChange = "2018-04-13 13:50:56 +0000";
layers = (
{
anchors = (
{
name = bottom;
position = "{392, 0}";
},
{
name = top;
position = "{374, 700}";
}
);
layerId = "3D0525B3-6B2A-4787-8D58-1F6DD6CCA7DC";
paths = (
{
closed = 1;
nodes = (
"571 174 LINE",
"535 137 OFFCURVE",
"473 99 OFFCURVE",
"395 99 CURVE SMOOTH",
"266 99 OFFCURVE",
"153 182 OFFCURVE",
"153 350 CURVE SMOOTH",
"153 504 OFFCURVE",
"265 598 OFFCURVE",
"386 598 CURVE SMOOTH",
"456 598 OFFCURVE",
"516 561 OFFCURVE",
"566 510 CURVE",
"638 585 LINE",
"595 646 OFFCURVE",
"500 706 OFFCURVE",
"386 706 CURVE SMOOTH",
"201 706 OFFCURVE",
"43 556 OFFCURVE",
"43 350 CURVE SMOOTH",
"43 131 OFFCURVE",
"189 -10 OFFCURVE",
"377 -10 CURVE SMOOTH",
"486 -10 OFFCURVE",
"583 37 OFFCURVE",
"625 86 CURVE SMOOTH",
"625 86 OFFCURVE",
"626 87 OFFCURVE",
"626 87 CURVE"
);
}
);
width = 674;
},
{
anchors = (
{
name = bottom;
position = "{392, 0}";
},
{
name = top;
position = "{374, 700}";
}
);
associatedMasterId = "3D0525B3-6B2A-4787-8D58-1F6DD6CCA7DC";
layerId = "A8318955-2332-4256-90D0-5C0B55045161";
name = "Apr 2 18, 12:45";
paths = (
{
closed = 1;
nodes = (
"592 648 OFFCURVE",
"507 706 OFFCURVE",
"386 706 CURVE SMOOTH",
"201 706 OFFCURVE",
"43 556 OFFCURVE",
"43 350 CURVE",
"43 121 OFFCURVE",
"209 -10 OFFCURVE",
"400 -10 CURVE",
"464 -10 OFFCURVE",
"530 9 OFFCURVE",
"581 37 CURVE",
"597 45 OFFCURVE",
"606 61 OFFCURVE",
"606 77 CURVE SMOOTH",
"606 88 OFFCURVE",
"602 99 OFFCURVE",
"594 110 CURVE",
"584 122 OFFCURVE",
"571 127 OFFCURVE",
"558 127 CURVE SMOOTH",
"549 127 OFFCURVE",
"540 125 OFFCURVE",
"532 121 CURVE",
"492 98 OFFCURVE",
"447 86 OFFCURVE",
"400 86 CURVE",
"258 86 OFFCURVE",
"148 180 OFFCURVE",
"148 350 CURVE",
"148 503 OFFCURVE",
"253 610 OFFCURVE",
"386 610 CURVE SMOOTH",
"476 610 OFFCURVE",
"535 561 OFFCURVE",
"555 537 CURVE SMOOTH",
"567 522 OFFCURVE",
"580 512 OFFCURVE",
"596 512 CURVE SMOOTH",
"620 512 OFFCURVE",
"644 531 OFFCURVE",
"644 561 CURVE SMOOTH",
"644 569 OFFCURVE",
"641 580 OFFCURVE",
"633 591 CURVE SMOOTH"
);
}
);
width = 637;
},
{
anchors = (
{
name = bottom;
position = "{392, 0}";
},
{
name = top;
position = "{374, 700}";
}
);
associatedMasterId = "3D0525B3-6B2A-4787-8D58-1F6DD6CCA7DC";
layerId = "77367C94-86C1-49F8-9713-672AA0BC257D";
name = "Apr 2 18, 12:45";
paths = (
{
closed = 1;
nodes = (
"528 689 OFFCURVE",
"465 706 OFFCURVE",
"400 706 CURVE",
"196 706 OFFCURVE",
"43 556 OFFCURVE",
"43 350 CURVE",
"43 121 OFFCURVE",
"209 -10 OFFCURVE",
"400 -10 CURVE",
"464 -10 OFFCURVE",
"530 9 OFFCURVE",
"581 37 CURVE",
"607 51 OFFCURVE",
"614 83 OFFCURVE",
"594 110 CURVE",
"578 129 OFFCURVE",
"554 132 OFFCURVE",
"532 121 CURVE",
"492 98 OFFCURVE",
"447 86 OFFCURVE",
"400 86 CURVE",
"258 86 OFFCURVE",
"148 180 OFFCURVE",
"148 350 CURVE",
"148 503 OFFCURVE",
"249 610 OFFCURVE",
"400 610 CURVE",
"448 610 OFFCURVE",
"493 597 OFFCURVE",
"532 576 CURVE",
"554 564 OFFCURVE",
"578 566 OFFCURVE",
"593 585 CURVE",
"613 610 OFFCURVE",
"608 644 OFFCURVE",
"580 659 CURVE"
);
}
);
visible = 1;
width = 637;
}
);
leftKerningGroup = C;
leftMetricsKey = O;
note = C;
unicode = 0043;
},
{
glyphname = D;
lastChange = "2018-04-13 13:51:30 +0000";
layers = (
{
anchors = (
{
name = bottom;
position = "{319, 0}";
},
{
name = center;
position = "{131, 350}";
},
{
name = top;
position = "{309, 700}";
}
);
layerId = "3D0525B3-6B2A-4787-8D58-1F6DD6CCA7DC";
paths = (
{
closed = 1;
nodes = (
"82 700 LINE",
"82 0 LINE",
"356 0 LINE SMOOTH",
"572 0 OFFCURVE",
"684 157 OFFCURVE",
"684 350 CURVE SMOOTH",
"684 540 OFFCURVE",
"572 700 OFFCURVE",
"356 700 CURVE SMOOTH"
);
},
{
closed = 1;
nodes = (
"187 104 LINE",
"190 93 LINE",
"190 605 LINE",
"184 596 LINE",
"351 596 LINE SMOOTH",
"508 596 OFFCURVE",
"574 482 OFFCURVE",
"574 350 CURVE SMOOTH",
"574 215 OFFCURVE",
"508 104 OFFCURVE",
"351 104 CURVE SMOOTH"
);
}
);
width = 727;
}
);
leftMetricsKey = H;
note = D;
rightKerningGroup = D;
rightMetricsKey = O;
unicode = 0044;
},
{
glyphname = E;
lastChange = "2018-04-13 14:13:09 +0000";
layers = (
{
anchors = (
{
name = bottom;
position = "{306, 0}";
},
{
name = ogonek;
position = "{459, 10}";
},
{
name = top;
position = "{321, 700}";
},
{
name = topleft;
position = "{30, 700}";
}
);
layerId = "3D0525B3-6B2A-4787-8D58-1F6DD6CCA7DC";
paths = (
{
closed = 1;
nodes = (
"82 0 LINE",
"523 0 LINE",
"523 0 OFFCURVE",
"523 104 OFFCURVE",
"523 104 CURVE",
"183 104 LINE",
"190 97 LINE",
"190 316 LINE",
"184 307 LINE",
"468 307 LINE",
"468 411 LINE",
"181 411 LINE",
"190 402 LINE",
"190 614 LINE",
"181 596 LINE",
"523 596 LINE",
"523 700 LINE",
"82 700 LINE"
);
}
);
width = 573;
}
);
leftMetricsKey = H;
note = E;
rightKerningGroup = E;
unicode = 0045;
},
{
glyphname = Eogonek;
lastChange = "2018-04-02 16:38:16 +0000";
layers = (
{
anchors = (
{
name = _ogonek;
position = "{461, 10}";
},
{
name = bottom;
position = "{296, 0}";
},
{
name = ogonek;
position = "{449, 10}";
},
{
name = top;
position = "{293, 700}";
},
{
name = topleft;
position = "{20, 700}";
}
);
layerId = "3D0525B3-6B2A-4787-8D58-1F6DD6CCA7DC";
paths = (
{
closed = 1;
nodes = (
"466 -201 OFFCURVE",
"515 -164 OFFCURVE",
"515 -133 CURVE SMOOTH",
"515 -110 OFFCURVE",
"499 -95 OFFCURVE",
"479 -95 CURVE SMOOTH",
"469 -95 OFFCURVE",
"454 -98 OFFCURVE",
"444 -112 CURVE SMOOTH",
"439 -120 OFFCURVE",
"430 -124 OFFCURVE",
"420 -124 CURVE SMOOTH",
"400 -124 OFFCURVE",
"382 -109 OFFCURVE",
"382 -80 CURVE SMOOTH",
"382 -43 OFFCURVE",
"425 -11 OFFCURVE",
"478 0 CURVE SMOOTH",
"508 6 OFFCURVE",
"528 19 OFFCURVE",
"528 46 CURVE",
"528 75 OFFCURVE",
"507 93 OFFCURVE",
"478 93 CURVE",
"176 93 LINE",
"183 86 LINE",
"183 321 LINE",
"177 312 LINE",
"433 312 LINE",
"462 312 OFFCURVE",
"483 335 OFFCURVE",
"483 357 CURVE",
"483 386 OFFCURVE",
"462 405 OFFCURVE",
"433 405 CURVE",
"174 405 LINE",
"183 396 LINE",
"183 624 LINE",
"174 607 LINE",
"478 607 LINE",
"507 607 OFFCURVE",
"528 629 OFFCURVE",
"528 652 CURVE",
"528 680 OFFCURVE",
"507 700 OFFCURVE",
"478 700 CURVE",
"131 700 LINE",
"103 700 OFFCURVE",
"82 679 OFFCURVE",
"82 651 CURVE",
"82 49 LINE",
"82 21 OFFCURVE",
"103 0 OFFCURVE",
"131 0 CURVE",
"459 0 LINE",
"463 45 LINE",
"394 26 OFFCURVE",
"300 -16 OFFCURVE",
"300 -98 CURVE SMOOTH",
"300 -167 OFFCURVE",
"352 -201 OFFCURVE",
"411 -201 CURVE SMOOTH"
);
}
);
width = 575;
}
);
leftMetricsKey = E;
note = Eogonek;
rightMetricsKey = E;
unicode = 0118;
},
{
glyphname = F;
lastChange = "2018-04-13 14:13:06 +0000";
layers = (
{
anchors = (
{
name = bottom;
position = "{292, 0}";
},
{
name = center;
position = "{141, 194}";
},
{
name = top;
position = "{292, 700}";
}
);
layerId = "3D0525B3-6B2A-4787-8D58-1F6DD6CCA7DC";
paths = (
{
closed = 1;
nodes = (
"187 0 OFFCURVE",
"190 0 CURVE",
"190 307 LINE",
"182 298 LINE",
"461 298 LINE",
"461 402 LINE",
"184 402 LINE",
"190 390 LINE",
"190 606 LINE",
"182 596 LINE",
"506 596 LINE",
"506 700 LINE",
"82 700 LINE",
"82 0 LINE",
"78 0 OFFCURVE"
);
}
);
width = 556;
}
);
leftMetricsKey = H;
note = F;
rightKerningGroup = F;
unicode = 0046;
},
{
glyphname = G;
lastChange = "2018-04-13 13:53:02 +0000";
layers = (
{
anchors = (
{
name = bottom;
position = "{408, 0}";
},
{
name = top;
position = "{395, 700}";
}
);
layerId = "3D0525B3-6B2A-4787-8D58-1F6DD6CCA7DC";
paths = (
{
closed = 1;
nodes = (
"201 706 OFFCURVE",
"43 552 OFFCURVE",
"43 350 CURVE",
"43 148 OFFCURVE",
"202 -10 OFFCURVE",
"406 -10 CURVE",
"509 -10 OFFCURVE",
"597 32 OFFCURVE",
"650 99 CURVE SMOOTH",
"709 165 OFFCURVE",
"727 266 OFFCURVE",
"713 359 CURVE",
"403 359 LINE",
"403 252 LINE",
"617 252 LINE",
"601 266 LINE",
"616 167 OFFCURVE",
"516 95 OFFCURVE",
"409 95 CURVE SMOOTH",
"270 95 OFFCURVE",
"153 208 OFFCURVE",
"153 350 CURVE",
"153 493 OFFCURVE",
"262 601 OFFCURVE",
"405 601 CURVE SMOOTH",
"479 601 OFFCURVE",
"544 565 OFFCURVE",
"597 514 CURVE",
"667 587 LINE",
"622 648 OFFCURVE",
"524 706 OFFCURVE",
"405 706 CURVE SMOOTH"
);
}
);
width = 761;
}
);
leftKerningGroup = C;
leftMetricsKey = O;
note = G;
rightKerningGroup = G;
unicode = 0047;
},
{
glyphname = H;
lastChange = "2018-04-13 13:48:07 +0000";
layers = (
{
anchors = (
{
name = bottom;
position = "{360, 0}";
},
{
name = center;
position = "{360, 350}";
},
{
name = top;
position = "{360, 700}";
},
{
name = topleft;
position = "{20, 700}";
}
);
layerId = "3D0525B3-6B2A-4787-8D58-1F6DD6CCA7DC";
paths = (
{
closed = 1;
nodes = (
"82 700 LINE",
"82 0 LINE",
"190 0 LINE",
"190 700 LINE"
);
},
{
closed = 1;
nodes = (
"539 700 LINE",
"539 0 LINE",
"647 0 LINE",
"647 700 LINE"
);
},
{
closed = 1;
nodes = (
"129 297 LINE",
"587 297 LINE",
"587 401 LINE",
"130 401 LINE"
);
}
);
width = 729;
}
);
note = H;
unicode = 0048;
},
{
glyphname = Hbar;
lastChange = "2018-04-02 16:38:16 +0000";
layers = (
{
components = (
{
name = H;
transform = "{1, 0, 0, 1, 48, 0}";
}
);
layerId = "3D0525B3-6B2A-4787-8D58-1F6DD6CCA7DC";
paths = (
{
closed = 1;
nodes = (
"716 490 LINE SMOOTH",
"741 490 OFFCURVE",
"758 507 OFFCURVE",
"758 530 CURVE SMOOTH",
"758 555 OFFCURVE",
"741 572 OFFCURVE",
"716 572 CURVE SMOOTH",
"99 572 LINE SMOOTH",
"75 572 OFFCURVE",
"57 555 OFFCURVE",
"57 532 CURVE SMOOTH",
"57 507 OFFCURVE",
"75 490 OFFCURVE",
"99 490 CURVE SMOOTH"
);
}
);
width = 815;
}
);
note = Hbar;
unicode = 0126;
},
{
glyphname = I;
lastChange = "2018-04-20 19:49:41 +0000";
layers = (
{
anchors = (
{
name = bottom;
position = "{216, 0}";
},
{
name = ogonek;
position = "{406, 10}";
},
{
name = top;
position = "{216, 700}";
},
{
name = topleft;
position = "{101, 700}";
}
);
layerId = "3D0525B3-6B2A-4787-8D58-1F6DD6CCA7DC";
paths = (
{
closed = 1;
nodes = (
"271 700 LINE",
"270 700 OFFCURVE",
"164 700 OFFCURVE",
"163 700 CURVE",
"163 0 LINE",
"271 0 LINE"
);
},
{
closed = 1;
nodes = (
"384 700 LINE",
"50 700 LINE",
"50 596 LINE",
"384 596 LINE"
);
},
{
closed = 1;
nodes = (
"384 104 LINE",
"50 104 LINE",
"50 0 LINE",
"384 0 LINE"
);
}
);
width = 434;
}
);
note = I;
unicode = 0049;
},
{
glyphname = IJ;
lastChange = "2018-04-21 00:44:22 +0000";
layers = (
{
anchors = (
{
name = bottom;
position = "{-1, 170}";
},
{
name = ogonek;
position = "{106, 10}";
},
{
name = top;
position = "{98, 700}";
},
{
name = topleft;
position = "{-87, 700}";
}
);
components = (
{
name = J;
transform = "{1, 0, 0, 1, 66, 0}";
}
);
layerId = "3D0525B3-6B2A-4787-8D58-1F6DD6CCA7DC";
paths = (
{
closed = 1;
nodes = (
"241 651 LINE",
"140 651 LINE",
"140 337 LINE",
"241 337 LINE"
);
},
{
closed = 1;
nodes = (
"324 391 LINE",
"60 391 LINE",
"60 287 LINE",
"324 287 LINE"
);
},
{
closed = 1;
nodes = (
"324 700 LINE",
"60 700 LINE",
"60 596 LINE",
"324 596 LINE"
);
}
);
width = 632;
}
);
note = IJ;
rightMetricsKey = H;
unicode = 0132;
},
{
glyphname = J;
lastChange = "2018-04-21 00:34:28 +0000";
layers = (
{
anchors = (
{
name = bottom;
position = "{280, 0}";
},
{
name = top;
position = "{427, 700}";
}
);
layerId = "3D0525B3-6B2A-4787-8D58-1F6DD6CCA7DC";
paths = (
{
closed = 1;
nodes = (
"402 -10 OFFCURVE",
"484 99 OFFCURVE",
"484 213 CURVE",
"484 700 LINE",
"376 700 LINE",
"376 223 LINE",
"376 152 OFFCURVE",
"331 95 OFFCURVE",
"256 95 CURVE SMOOTH",
"184 95 OFFCURVE",
"152 141 OFFCURVE",
"118 188 CURVE",
"50 117 LINE",
"66 86 OFFCURVE",
"128 -10 OFFCURVE",
"256 -10 CURVE"
);
}
);
width = 566;
}
);
leftKerningGroup = J;
note = J;
rightKerningGroup = J;
rightMetricsKey = H;
unicode = 004A;
},
{
glyphname = K;
lastChange = "2018-04-13 13:54:53 +0000";
layers = (
{
anchors = (
{
name = bottom;
position = "{320, 0}";
},
{
name = top;
position = "{332, 700}";
}
);
layerId = "3D0525B3-6B2A-4787-8D58-1F6DD6CCA7DC";
paths = (
{
closed = 1;
nodes = (
"681 0 LINE",
"358 427 LINE",
"291 341 LINE",
"546 0 LINE"
);
},
{
closed = 1;
nodes = (
"533 700 LINE",
"166 333 LINE",
"172 212 LINE",
"675 700 LINE"
);
},
{
closed = 1;
nodes = (
"190 700 LINE",
"189 700 OFFCURVE",
"83 700 OFFCURVE",
"82 700 CURVE",
"82 0 LINE",
"190 0 LINE"
);
}
);
width = 701;
}
);
leftMetricsKey = H;
note = K;
rightKerningGroup = K;
unicode = 004B;
},
{
glyphname = L;
lastChange = "2018-04-13 13:55:37 +0000";
layers = (
{
anchors = (
{
name = bottom;
position = "{282, 0}";
},
{
name = center;
position = "{275, 350}";
},
{
name = top;
position = "{125, 700}";
},
{
name = topright;
position = "{531, 700}";
}
);
layerId = "3D0525B3-6B2A-4787-8D58-1F6DD6CCA7DC";
paths = (
{
closed = 1;
nodes = (
"162 104 LINE",
"190 78 LINE",
"190 700 LINE",
"82 700 LINE",
"82 0 LINE",
"518 0 LINE",
"518 0 OFFCURVE",
"518 104 OFFCURVE",
"518 104 CURVE"
);
}
);
width = 563;
}
);
leftMetricsKey = H;
note = L;
rightKerningGroup = L;
unicode = 004C;
},
{
glyphname = Lcaron;
lastChange = "2018-04-02 16:38:16 +0000";
layers = (
{
components = (
{
name = caronalt;
transform = "{1, 0, 0, 1, 323, 11}";
}
);
layerId = "3D0525B3-6B2A-4787-8D58-1F6DD6CCA7DC";
paths = (
{
closed = 1;
nodes = (
"188 97 LINE SMOOTH",
"183 97 OFFCURVE",
"179 100 OFFCURVE",
"179 106 CURVE SMOOTH",
"179 651 LINE SMOOTH",
"179 679 OFFCURVE",
"159 700 OFFCURVE",
"131 700 CURVE SMOOTH",
"103 700 OFFCURVE",
"82 679 OFFCURVE",
"82 651 CURVE SMOOTH",
"82 49 LINE SMOOTH",
"82 21 OFFCURVE",
"103 0 OFFCURVE",
"131 0 CURVE SMOOTH",
"468 0 LINE SMOOTH",
"497 0 OFFCURVE",
"518 20 OFFCURVE",
"518 48 CURVE SMOOTH",
"518 76 OFFCURVE",
"497 97 OFFCURVE",
"468 97 CURVE SMOOTH"
);
}
);
width = 551;
}
);
leftMetricsKey = H;
note = Lcaron;
rightMetricsKey = L;
unicode = 013D;
},
{
glyphname = Lslash;
lastChange = "2018-04-02 16:38:16 +0000";
layers = (
{
layerId = "3D0525B3-6B2A-4787-8D58-1F6DD6CCA7DC";
paths = (
{
closed = 1;
nodes = (
"87 292 OFFCURVE",
"93 294 OFFCURVE",
"99 297 CURVE SMOOTH",
"366 414 LINE SMOOTH",
"382 422 OFFCURVE",
"392 436 OFFCURVE",
"392 452 CURVE SMOOTH",
"392 469 OFFCURVE",
"379 495 OFFCURVE",
"351 495 CURVE SMOOTH",
"346 495 OFFCURVE",
"339 493 OFFCURVE",
"333 490 CURVE SMOOTH",
"66 372 LINE SMOOTH",
"48 365 OFFCURVE",
"39 351 OFFCURVE",
"39 336 CURVE SMOOTH",
"39 318 OFFCURVE",
"52 292 OFFCURVE",
"81 292 CURVE SMOOTH"
);
},
{
closed = 1;
nodes = (
"241 651 LINE SMOOTH",
"241 679 OFFCURVE",
"221 700 OFFCURVE",
"193 700 CURVE SMOOTH",
"165 700 OFFCURVE",
"144 679 OFFCURVE",
"144 651 CURVE SMOOTH",
"144 49 LINE SMOOTH",
"144 21 OFFCURVE",
"165 0 OFFCURVE",
"193 0 CURVE SMOOTH",
"530 0 LINE SMOOTH",
"558 0 OFFCURVE",
"579 20 OFFCURVE",
"579 48 CURVE SMOOTH",
"579 76 OFFCURVE",
"558 97 OFFCURVE",
"530 97 CURVE SMOOTH",
"235 97 LINE",
"241 87 LINE"
);
}
);
width = 612;
}
);
note = Lslash;
rightMetricsKey = L;
unicode = 0141;
},
{
glyphname = M;
lastChange = "2018-04-21 00:39:56 +0000";
layers = (
{
anchors = (
{
name = bottom;
position = "{417, 0}";
},
{
name = top;
position = "{417, 700}";
}
);
layerId = "3D0525B3-6B2A-4787-8D58-1F6DD6CCA7DC";
paths = (
{
closed = 1;
nodes = (
"82 700 LINE",
"82 0 LINE",
"83 0 OFFCURVE",
"189 0 OFFCURVE",
"190 0 CURVE",
"190 287 LINE SMOOTH",
"190 398 OFFCURVE",
"186 490 OFFCURVE",
"170 592 CURVE",
"159 551 LINE",
"381 201 LINE",
"447 201 LINE",
"676 555 LINE",
"662 592 LINE",
"647 490 OFFCURVE",
"642 398 OFFCURVE",
"642 287 CURVE SMOOTH",
"642 0 LINE",
"750 0 LINE",
"750 700 LINE",
"650 700 LINE",
"392 286 LINE",
"443 285 LINE",
"188 700 LINE"
);
}
);
width = 832;
}
);
leftMetricsKey = H;
note = M;
rightMetricsKey = H;
unicode = 004D;
},
{
glyphname = N;
lastChange = "2018-04-21 00:40:35 +0000";
layers = (
{
anchors = (
{
name = bottom;
position = "{377, 0}";
},
{
name = top;
position = "{377, 700}";
}
);
layerId = "3D0525B3-6B2A-4787-8D58-1F6DD6CCA7DC";
paths = (
{
closed = 1;
nodes = (
"570 700 OFFCURVE",
"571 700 CURVE",
"571 470 LINE",
"571 360 OFFCURVE",
"575 219 OFFCURVE",
"591 118 CURVE",
"607 127 LINE",
"179 700 LINE",
"82 700 LINE",
"82 0 LINE",
"190 0 LINE",
"190 291 LINE",
"190 383 OFFCURVE",
"178 474 OFFCURVE",
"170 566 CURVE",
"159 552 LINE",
"580 0 LINE",
"679 0 LINE",
"679 700 LINE",
"676 700 OFFCURVE"
);
}
);
width = 761;
}
);
leftMetricsKey = H;
note = N;
rightMetricsKey = H;
unicode = 004E;
},
{
glyphname = Eng;
lastChange = "2018-04-02 16:38:16 +0000";
layers = (
{
layerId = "3D0525B3-6B2A-4787-8D58-1F6DD6CCA7DC";
paths = (
{
closed = 1;
nodes = (
"596 -201 OFFCURVE",
"670 -147 OFFCURVE",
"670 -23 CURVE SMOOTH",
"670 48 LINE",
"670 650 LINE SMOOTH",
"670 678 OFFCURVE",
"650 699 OFFCURVE",
"622 699 CURVE SMOOTH",
"594 699 OFFCURVE",
"573 678 OFFCURVE",
"573 650 CURVE SMOOTH",
"573 151 LINE",
"587 159 LINE",
"172 679 LINE",
"162 692 OFFCURVE",
"148 700 OFFCURVE",
"132 700 CURVE SMOOTH",
"104 700 OFFCURVE",
"82 679 OFFCURVE",
"82 651 CURVE SMOOTH",
"82 49 LINE SMOOTH",
"82 21 OFFCURVE",
"102 0 OFFCURVE",
"130 0 CURVE SMOOTH",
"158 0 OFFCURVE",
"179 21 OFFCURVE",
"179 49 CURVE SMOOTH",
"179 535 LINE",
"168 535 LINE",
"579 21 LINE",
"573 49 LINE",
"573 -26 LINE SMOOTH",
"573 -81 OFFCURVE",
"552 -109 OFFCURVE",
"489 -110 CURVE SMOOTH",
"461 -111 OFFCURVE",
"442 -131 OFFCURVE",
"442 -157 CURVE SMOOTH",
"442 -183 OFFCURVE",
"463 -200 OFFCURVE",
"494 -200 CURVE SMOOTH"
);
}
);
width = 752;
}
);
leftMetricsKey = N;
note = Eng;
rightMetricsKey = N;
unicode = 014A;
},
{
glyphname = Nhookleft;
lastChange = "2018-04-02 16:38:16 +0000";
layers = (
{
anchors = (
{
name = bottom;
position = "{318, 0}";
},
{
name = top;
position = "{318, 700}";
}
);
layerId = "3D0525B3-6B2A-4787-8D58-1F6DD6CCA7DC";
paths = (
{
closed = 1;
nodes = (
"51 -194 OFFCURVE",
"174 -181 OFFCURVE",
"174 -24 CURVE",
"174 566 LINE",
"149 552 LINE",
"562 14 LINE",
"570 5 OFFCURVE",
"587 0 OFFCURVE",
"600 0 CURVE",
"629 0 OFFCURVE",
"650 21 OFFCURVE",
"650 50 CURVE",
"650 655 LINE",
"650 681 OFFCURVE",
"631 700 OFFCURVE",
"605 700 CURVE",
"578 700 OFFCURVE",
"558 681 OFFCURVE",
"558 655 CURVE",
"558 141 LINE",
"576 155 LINE",
"171 682 LINE",
"163 694 OFFCURVE",
"146 700 OFFCURVE",
"131 700 CURVE",
"104 700 OFFCURVE",
"82 680 OFFCURVE",
"82 651 CURVE",
"82 1 LINE",
"82 -50 OFFCURVE",
"65 -86 OFFCURVE",
"19 -98 CURVE SMOOTH",
"-9 -106 OFFCURVE",
"-23 -119 OFFCURVE",
"-23 -152 CURVE SMOOTH",
"-23 -177 OFFCURVE",
"-4 -197 OFFCURVE",
"23 -197 CURVE SMOOTH"
);
}
);
width = 732;
}
);
unicode = 019D;
},
{
glyphname = O;
lastChange = "2018-04-13 13:57:29 +0000";
layers = (
{
anchors = (
{
name = bottom;
position = "{381, 0}";
},
{
name = center;
position = "{381, 350}";
},
{
name = ogonek;
position = "{685, 10}";
},
{
name = top;
position = "{381, 700}";
},
{
name = topleft;
position = "{20, 700}";
},
{
name = topright;
position = "{382, 706}";
}
);
layerId = "3D0525B3-6B2A-4787-8D58-1F6DD6CCA7DC";
paths = (
{
closed = 1;
nodes = (
"729 553 OFFCURVE",
"586 710 OFFCURVE",
"386 710 CURVE",
"185 710 OFFCURVE",
"43 553 OFFCURVE",
"43 350 CURVE",
"43 147 OFFCURVE",
"185 -10 OFFCURVE",
"386 -10 CURVE",
"586 -10 OFFCURVE",
"729 147 OFFCURVE",
"729 350 CURVE"
);
},
{
closed = 1;
nodes = (
"619 205 OFFCURVE",
"522 95 OFFCURVE",
"386 95 CURVE SMOOTH",
"248 95 OFFCURVE",
"153 204 OFFCURVE",
"153 350 CURVE",
"153 496 OFFCURVE",
"248 605 OFFCURVE",
"386 605 CURVE SMOOTH",
"522 605 OFFCURVE",
"619 495 OFFCURVE",
"619 350 CURVE"
);
}
);
width = 772;
}
);
leftKerningGroup = C;
leftMetricsKey = O;
note = O;
rightKerningGroup = D;
unicode = 004F;
},
{
glyphname = Oogonek;
lastChange = "2018-04-02 16:38:16 +0000";
layers = (
{
components = (
{
name = O;
}
);
layerId = "3D0525B3-6B2A-4787-8D58-1F6DD6CCA7DC";
paths = (
{
closed = 1;
nodes = (
"469 -201 OFFCURVE",
"517 -164 OFFCURVE",
"517 -133 CURVE SMOOTH",
"517 -110 OFFCURVE",
"502 -95 OFFCURVE",
"482 -95 CURVE SMOOTH",
"472 -95 OFFCURVE",
"456 -99 OFFCURVE",
"445 -113 CURVE SMOOTH",
"440 -121 OFFCURVE",
"432 -124 OFFCURVE",
"423 -124 CURVE SMOOTH",
"403 -124 OFFCURVE",
"385 -109 OFFCURVE",
"385 -80 CURVE SMOOTH",
"385 -43 OFFCURVE",
"416 -8 OFFCURVE",
"487 7 CURVE",
"458 58 LINE",
"390 39 OFFCURVE",
"303 -3 OFFCURVE",
"303 -98 CURVE SMOOTH",
"303 -167 OFFCURVE",
"354 -201 OFFCURVE",
"414 -201 CURVE SMOOTH"
);
}
);
width = 762;
}
);
unicode = 01EA;
},
{
glyphname = Oslash;
lastChange = "2018-04-02 16:38:16 +0000";
layers = (
{
anchors = (
{
name = bottom;
position = "{367, 0}";
},
{
name = top;
position = "{367, 700}";
}
);
components = (
{
name = O;
}
);
layerId = "3D0525B3-6B2A-4787-8D58-1F6DD6CCA7DC";
paths = (
{
closed = 1;
nodes = (
"101 -28 OFFCURVE",
"113 -21 OFFCURVE",
"122 -9 CURVE SMOOTH",
"679 673 LINE SMOOTH",
"686 682 OFFCURVE",
"689 692 OFFCURVE",
"689 701 CURVE SMOOTH",
"689 723 OFFCURVE",
"669 740 OFFCURVE",
"648 740 CURVE SMOOTH",
"635 740 OFFCURVE",
"624 736 OFFCURVE",
"614 723 CURVE SMOOTH",
"55 40 LINE SMOOTH",
"49 32 OFFCURVE",
"45 22 OFFCURVE",
"45 13 CURVE SMOOTH",
"45 -10 OFFCURVE",
"66 -28 OFFCURVE",
"87 -28 CURVE SMOOTH"
);
}
);
width = 734;
}
);
leftMetricsKey = "+10";
note = Oslash;
rightMetricsKey = "+10";
unicode = 00D8;
},
{
glyphname = OE;
lastChange = "2018-04-02 16:38:16 +0000";
layers = (
{
anchors = (
{
name = bottom;
position = "{487, 0}";
},
{
name = top;
position = "{487, 700}";
}
);
layerId = "3D0525B3-6B2A-4787-8D58-1F6DD6CCA7DC";
paths = (
{
closed = 1;
nodes = (
"589 97 LINE",
"595 89 LINE",
"595 318 LINE",
"584 302 LINE",
"839 302 LINE SMOOTH",
"867 302 OFFCURVE",
"888 322 OFFCURVE",
"888 350 CURVE SMOOTH",
"888 378 OFFCURVE",
"867 399 OFFCURVE",
"839 399 CURVE SMOOTH",
"584 399 LINE",
"595 385 LINE",
"595 619 LINE",
"585 603 LINE",
"884 603 LINE SMOOTH",
"912 603 OFFCURVE",
"933 623 OFFCURVE",
"933 651 CURVE SMOOTH",
"933 679 OFFCURVE",
"912 700 OFFCURVE",
"884 700 CURVE SMOOTH",
"340 700 LINE SMOOTH",
"145 700 OFFCURVE",
"43 540 OFFCURVE",
"43 350 CURVE SMOOTH",
"43 157 OFFCURVE",
"145 0 OFFCURVE",
"340 0 CURVE SMOOTH",
"884 0 LINE SMOOTH",
"912 0 OFFCURVE",
"933 20 OFFCURVE",
"933 48 CURVE SMOOTH",
"933 76 OFFCURVE",
"912 97 OFFCURVE",
"884 97 CURVE SMOOTH"
);
},
{
closed = 1;
nodes = (
"343 97 LINE SMOOTH",
"200 97 OFFCURVE",
"140 210 OFFCURVE",
"140 350 CURVE SMOOTH",
"140 487 OFFCURVE",
"200 603 OFFCURVE",
"343 603 CURVE SMOOTH",
"508 603 LINE",
"497 618 LINE",
"497 83 LINE",
"510 97 LINE"
);
}
);
width = 976;
}
);
leftMetricsKey = O;
note = OE;
rightMetricsKey = E;
unicode = 0152;
},
{
glyphname = P;
lastChange = "2018-04-13 13:47:46 +0000";
layers = (
{
anchors = (
{
name = bottom;
position = "{305, 0}";
},
{
name = center;
position = "{139, 161}";
},
{
name = top;
position = "{305, 700}";
}
);
layerId = "3D0525B3-6B2A-4787-8D58-1F6DD6CCA7DC";
paths = (
{
closed = 1;
nodes = (
"82 700 LINE",
"82 0 LINE",
"190 0 LINE",
"190 282 LINE",
"182 268 LINE",
"367 268 LINE SMOOTH",
"479 268 OFFCURVE",
"573 364 OFFCURVE",
"573 485 CURVE SMOOTH",
"573 606 OFFCURVE",
"479 700 OFFCURVE",
"367 700 CURVE SMOOTH"
);
},
{
closed = 1;
nodes = (
"181 372 LINE",
"190 358 LINE",
"190 611 LINE",
"181 596 LINE",
"365 596 LINE SMOOTH",
"418 596 OFFCURVE",
"463 547 OFFCURVE",
"463 485 CURVE SMOOTH",
"463 423 OFFCURVE",
"418 372 OFFCURVE",
"365 372 CURVE SMOOTH"
);
}
);
width = 604;
}
);
leftMetricsKey = H;
note = P;
rightKerningGroup = P;
unicode = 0050;
},
{
glyphname = Thorn;
lastChange = "2018-04-02 16:38:16 +0000";
layers = (
{
anchors = (
{
name = bottom;
position = "{269, 0}";
},
{
name = top;
position = "{269, 700}";
}
);
layerId = "3D0525B3-6B2A-4787-8D58-1F6DD6CCA7DC";
paths = (
{
closed = 1;
nodes = (
"179 691 LINE SMOOTH",
"179 719 OFFCURVE",
"160 740 OFFCURVE",
"131 740 CURVE SMOOTH",
"103 740 OFFCURVE",
"82 719 OFFCURVE",
"82 691 CURVE SMOOTH",
"82 49 LINE SMOOTH",
"82 21 OFFCURVE",
"102 0 OFFCURVE",
"130 0 CURVE SMOOTH",
"158 0 OFFCURVE",
"179 21 OFFCURVE",
"179 49 CURVE SMOOTH"
);
},
{
closed = 1;
nodes = (
"125 171 LINE",
"360 171 LINE SMOOTH",
"465 171 OFFCURVE",
"556 267 OFFCURVE",
"556 388 CURVE SMOOTH",
"556 510 OFFCURVE",
"467 603 OFFCURVE",
"360 603 CURVE SMOOTH",
"128 603 LINE",
"167 506 LINE",
"360 506 LINE SMOOTH",
"413 506 OFFCURVE",
"458 456 OFFCURVE",
"458 388 CURVE SMOOTH",
"458 321 OFFCURVE",
"413 268 OFFCURVE",
"360 268 CURVE SMOOTH",
"168 268 LINE"
);
}
);
width = 597;
}
);
leftMetricsKey = H;
note = Thorn;
rightMetricsKey = P;
unicode = 00DE;
},
{
glyphname = Q;
lastChange = "2018-04-12 15:12:16 +0000";
layers = (
{
anchors = (
{
name = bottom;
position = "{382, 0}";
},
{
name = top;
position = "{382, 700}";
}
);
layerId = "3D0525B3-6B2A-4787-8D58-1F6DD6CCA7DC";
paths = (
{
closed = 1;
nodes = (
"719 553 OFFCURVE",
"578 710 OFFCURVE",
"380 710 CURVE",
"183 710 OFFCURVE",
"43 553 OFFCURVE",
"43 350 CURVE",
"43 147 OFFCURVE",
"183 -10 OFFCURVE",
"380 -10 CURVE",
"578 -10 OFFCURVE",
"719 147 OFFCURVE",
"719 350 CURVE"
);
},
{
closed = 1;
nodes = (
"614 200 OFFCURVE",
"517 87 OFFCURVE",
"380 87 CURVE",
"243 87 OFFCURVE",
"148 199 OFFCURVE",
"148 350 CURVE",
"148 501 OFFCURVE",
"243 613 OFFCURVE",
"380 613 CURVE",
"517 613 OFFCURVE",
"614 500 OFFCURVE",
"614 350 CURVE"
);
},
{
closed = 1;
nodes = (
"422 288 LINE",
"421 288 OFFCURVE",
"344 237 OFFCURVE",
"343 237 CURVE",
"608 -110 LINE",
"684 -56 LINE"
);
}
);
width = 763;
}
);
leftKerningGroup = C;
leftMetricsKey = O;
note = Q;
rightKerningGroup = D;
unicode = 0051;
},
{
glyphname = R;
lastChange = "2018-04-20 22:50:36 +0000";
layers = (
{
anchors = (
{
name = bottom;
position = "{349, 0}";
},
{
name = top;
position = "{349, 700}";
}
);
layerId = "3D0525B3-6B2A-4787-8D58-1F6DD6CCA7DC";
paths = (
{
closed = 1;
nodes = (
"504 263 OFFCURVE",
"601 365 OFFCURVE",
"601 477 CURVE",
"601 614 OFFCURVE",
"489 700 OFFCURVE",
"380 700 CURVE",
"82 700 LINE",
"82 0 LINE",
"190 0 LINE",
"190 630 LINE",
"180 596 LINE",
"362 596 LINE",
"432 596 OFFCURVE",
"491 551 OFFCURVE",
"491 478 CURVE",
"491 421 OFFCURVE",
"454 367 OFFCURVE",
"390 367 CURVE",
"177 367 LINE",
"177 263 LINE",
"380 263 LINE"
);
},
{
closed = 1;
nodes = (
"320 316 LINE",
"498 0 LINE",
"629 -1 LINE",
"431 341 LINE"
);
}
);
width = 679;
}
);
leftMetricsKey = H;
note = R;
rightKerningGroup = R;
unicode = 0052;
},
{
glyphname = S;
lastChange = "2018-04-21 00:37:39 +0000";
layers = (
{
anchors = (
{
name = bottom;
position = "{292, 0}";
},
{
name = top;
position = "{292, 700}";
}
);
layerId = "3D0525B3-6B2A-4787-8D58-1F6DD6CCA7DC";
paths = (
{
closed = 1;
nodes = (
"21 126 LINE",
"87 30 OFFCURVE",
"177 -10 OFFCURVE",
"285 -10 CURVE SMOOTH",
"426 -10 OFFCURVE",
"540 75 OFFCURVE",
"540 200 CURVE",
"540 320 OFFCURVE",
"426 380 OFFCURVE",
"308 405 CURVE SMOOTH",
"221 423 OFFCURVE",
"164 449 OFFCURVE",
"164 517 CURVE",
"164 577 OFFCURVE",
"220 613 OFFCURVE",
"294 613 CURVE",
"367 613 OFFCURVE",
"422 572 OFFCURVE",
"458 512 CURVE",
"534 587 LINE",
"488 666 OFFCURVE",
"407 710 OFFCURVE",
"297 710 CURVE",
"169 710 OFFCURVE",
"56 634 OFFCURVE",
"56 514 CURVE",
"56 389 OFFCURVE",
"139 327 OFFCURVE",
"270 301 CURVE SMOOTH",
"372 281 OFFCURVE",
"432 246 OFFCURVE",
"432 180 CURVE",
"432 121 OFFCURVE",
"364 87 OFFCURVE",
"296 87 CURVE SMOOTH",
"201 87 OFFCURVE",
"150 132 OFFCURVE",
"95 211 CURVE"
);
}
);
width = 583;
}
);
leftKerningGroup = S;
note = S;
rightKerningGroup = S;
unicode = 0053;
},
{
glyphname = Germandbls;
lastChange = "2018-04-02 16:38:16 +0000";
layers = (
{
layerId = "3D0525B3-6B2A-4787-8D58-1F6DD6CCA7DC";
paths = (
{
closed = 1;
nodes = (
"588 -9 OFFCURVE",
"687 78 OFFCURVE",
"687 184 CURVE SMOOTH",
"687 318 OFFCURVE",
"598 354 OFFCURVE",
"525 384 CURVE SMOOTH",
"471 407 OFFCURVE",
"425 433 OFFCURVE",
"425 486 CURVE SMOOTH",
"425 545 OFFCURVE",
"479 566 OFFCURVE",
"559 582 CURVE SMOOTH",
"598 592 OFFCURVE",
"633 591 OFFCURVE",
"633 625 CURVE SMOOTH",
"633 652 OFFCURVE",
"617 670 OFFCURVE",
"584 686 CURVE SMOOTH",
"540 708 OFFCURVE",
"472 726 OFFCURVE",
"387 726 CURVE SMOOTH",
"187 726 OFFCURVE",
"84 584 OFFCURVE",
"84 420 CURVE SMOOTH",
"82 50 LINE SMOOTH",
"82 22 OFFCURVE",
"103 1 OFFCURVE",
"134 1 CURVE SMOOTH",
"164 1 OFFCURVE",
"186 22 OFFCURVE",
"186 50 CURVE SMOOTH",
"188 443 LINE SMOOTH",
"189 568 OFFCURVE",
"271 644 OFFCURVE",
"397 642 CURVE",
"484 644 OFFCURVE",
"522 625 OFFCURVE",
"571 595 CURVE",
"521 643 LINE",
"418 634 OFFCURVE",
"318 582 OFFCURVE",
"318 460 CURVE SMOOTH",
"318 362 OFFCURVE",
"383 322 OFFCURVE",
"449 291 CURVE SMOOTH",
"515 260 OFFCURVE",
"581 239 OFFCURVE",
"582 171 CURVE SMOOTH",
"582 119 OFFCURVE",
"539 87 OFFCURVE",
"469 87 CURVE SMOOTH",
"423 87 OFFCURVE",
"373 118 OFFCURVE",
"342 155 CURVE SMOOTH",
"332 166 OFFCURVE",
"317 170 OFFCURVE",
"308 170 CURVE SMOOTH",
"279 170 OFFCURVE",
"262 142 OFFCURVE",
"262 118 CURVE SMOOTH",
"262 96 OFFCURVE",
"273 78 OFFCURVE",
"275 75 CURVE",
"319 19 OFFCURVE",
"401 -11 OFFCURVE",
"473 -10 CURVE SMOOTH"
);
}
);
width = 730;
}
);
leftMetricsKey = H;
rightMetricsKey = S;
unicode = 1E9E;
},
{
glyphname = Schwa;
lastChange = "2018-04-02 16:38:16 +0000";
layers = (
{
layerId = "3D0525B3-6B2A-4787-8D58-1F6DD6CCA7DC";
paths = (
{
closed = 1;
nodes = (
"573 -10 OFFCURVE",
"727 151 OFFCURVE",
"727 350 CURVE SMOOTH",
"727 549 OFFCURVE",
"571 710 OFFCURVE",
"382 710 CURVE SMOOTH",
"270 710 OFFCURVE",
"187 681 OFFCURVE",
"111 606 CURVE SMOOTH",
"88 586 OFFCURVE",
"91 553 OFFCURVE",
"113 535 CURVE SMOOTH",
"133 519 OFFCURVE",
"159 519 OFFCURVE",
"179 536 CURVE SMOOTH",
"238 592 OFFCURVE",
"304 613 OFFCURVE",
"382 613 CURVE SMOOTH",
"514 613 OFFCURVE",
"624 526 OFFCURVE",
"624 351 CURVE SMOOTH",
"624 186 OFFCURVE",
"516 87 OFFCURVE",
"385 87 CURVE SMOOTH",
"268 87 OFFCURVE",
"167 177 OFFCURVE",
"147 296 CURVE",
"690 296 LINE",
"681 393 LINE",
"102 393 LINE SMOOTH",
"72 393 OFFCURVE",
"43 374 OFFCURVE",
"43 336 CURVE",
"43 313 LINE",
"53 118 OFFCURVE",
"214 -10 OFFCURVE",
"385 -10 CURVE SMOOTH"
);
}
);
width = 769;
}
);
leftMetricsKey = O;
rightMetricsKey = O;
unicode = 018F;
},
{
glyphname = T;
lastChange = "2018-04-13 14:01:04 +0000";
layers = (
{
anchors = (
{
name = bottom;
position = "{288, 0}";
},
{
name = center;
position = "{288, 350}";
},
{
name = top;
position = "{288, 700}";
}
);
layerId = "3D0525B3-6B2A-4787-8D58-1F6DD6CCA7DC";
paths = (
{
closed = 1;
nodes = (
"339 0 LINE",
"339 651 LINE",
"231 651 LINE",
"231 0 LINE"
);
},
{
closed = 1;
nodes = (
"541 596 LINE",
"541 700 LINE",
"35 700 LINE",
"35 596 LINE"
);
}
);
width = 576;
}
);
leftKerningGroup = T;
note = T;
rightKerningGroup = T;
unicode = 0054;
},
{
glyphname = U;
lastChange = "2018-04-13 14:01:50 +0000";
layers = (
{
anchors = (
{
name = bottom;
position = "{364, 0}";
},
{
name = ogonek;
position = "{647, 10}";
},
{
name = top;
position = "{364, 700}";
},
{
name = topright;
position = "{506, 708}";
}
);
layerId = "3D0525B3-6B2A-4787-8D58-1F6DD6CCA7DC";
paths = (
{
closed = 1;
nodes = (
"543 701 LINE",
"543 278 LINE",
"543 173 OFFCURVE",
"460 98 OFFCURVE",
"364 98 CURVE",
"273 98 OFFCURVE",
"190 173 OFFCURVE",
"190 278 CURVE",
"190 701 LINE",
"82 701 LINE",
"82 269 LINE",
"82 110 OFFCURVE",
"201 -6 OFFCURVE",
"364 -6 CURVE",
"527 -6 OFFCURVE",
"646 110 OFFCURVE",
"646 269 CURVE",
"646 701 LINE"
);
}
);
width = 728;
}
);
leftKerningGroup = U;
leftMetricsKey = H;
note = U;
rightKerningGroup = U;
rightMetricsKey = H;
unicode = 0055;
},
{
glyphname = Uogonek;
lastChange = "2018-04-02 16:38:16 +0000";
layers = (
{
anchors = (
{
name = _ogonek;
position = "{601, 10}";
},
{
name = bottom;
position = "{354, 0}";
},
{
name = ogonek;
position = "{637, 10}";
},
{
name = top;
position = "{354, 700}";
},
{
name = topright;
position = "{688, 700}";
}
);
layerId = "3D0525B3-6B2A-4787-8D58-1F6DD6CCA7DC";
paths = (
{
closed = 1;
nodes = (
"492 -201 OFFCURVE",
"541 -164 OFFCURVE",
"541 -133 CURVE SMOOTH",
"541 -110 OFFCURVE",
"525 -95 OFFCURVE",
"505 -95 CURVE SMOOTH",
"495 -95 OFFCURVE",
"480 -98 OFFCURVE",
"470 -112 CURVE SMOOTH",
"464 -120 OFFCURVE",
"456 -124 OFFCURVE",
"446 -124 CURVE SMOOTH",
"427 -124 OFFCURVE",
"408 -109 OFFCURVE",
"408 -80 CURVE SMOOTH",
"408 -37 OFFCURVE",
"451 2 OFFCURVE",
"508 37 CURVE SMOOTH",
"590 86 OFFCURVE",
"626 185 OFFCURVE",
"626 269 CURVE",
"626 652 LINE",
"626 680 OFFCURVE",
"607 701 OFFCURVE",
"579 701 CURVE",
"555 701 OFFCURVE",
"533 680 OFFCURVE",
"533 652 CURVE",
"533 269 LINE",
"533 164 OFFCURVE",
"451 91 OFFCURVE",
"354 91 CURVE",
"263 91 OFFCURVE",
"183 164 OFFCURVE",
"183 269 CURVE",
"183 652 LINE",
"183 680 OFFCURVE",
"164 701 OFFCURVE",
"134 701 CURVE",
"103 701 OFFCURVE",
"82 680 OFFCURVE",
"82 652 CURVE",
"82 269 LINE",
"82 110 OFFCURVE",
"197 -6 OFFCURVE",
"354 -6 CURVE",
"367 -6 OFFCURVE",
"381 -5 OFFCURVE",
"394 -5 CURVE",
"483 72 LINE",
"415 53 OFFCURVE",
"327 -3 OFFCURVE",
"327 -98 CURVE SMOOTH",
"327 -167 OFFCURVE",
"378 -201 OFFCURVE",
"438 -201 CURVE SMOOTH"
);
}
);
width = 708;
}
);
leftKerningGroup = U;
rightKerningGroup = U;
unicode = 0172;
},
{
glyphname = V;
lastChange = "2018-04-13 14:04:36 +0000";
layers = (
{
anchors = (
{
name = bottom;
position = "{338, 0}";
},
{
name = top;
position = "{338, 700}";
}
);
layerId = "3D0525B3-6B2A-4787-8D58-1F6DD6CCA7DC";
paths = (
{
closed = 1;
nodes = (
"551 700 LINE",
"331 98 LINE",
"359 99 LINE",
"123 700 LINE",
"10 700 LINE",
"285 0 LINE",
"390 0 LINE",
"667 700 LINE"
);
}
);
width = 677;
}
);
leftKerningGroup = V;
note = V;
rightKerningGroup = V;
unicode = 0056;
},
{
glyphname = W;
lastChange = "2018-04-21 00:32:08 +0000";
layers = (
{
anchors = (
{
name = bottom;
position = "{483, 0}";
},
{
name = top;
position = "{483, 700}";
}
);
layerId = "3D0525B3-6B2A-4787-8D58-1F6DD6CCA7DC";
paths = (
{
closed = 1;
nodes = (
"847 700 LINE",
"674 152 LINE",
"688 159 LINE",
"518 559 LINE",
"446 559 LINE",
"276 150 LINE",
"294 149 LINE",
"119 700 LINE",
"10 700 LINE",
"238 0 LINE",
"306 0 LINE",
"481 407 LINE",
"472 411 LINE",
"660 0 LINE",
"729 0 LINE",
"958 700 LINE"
);
}
);
width = 968;
}
);
leftKerningGroup = W;
note = W;
rightKerningGroup = W;
unicode = 0057;
},
{
glyphname = X;
lastChange = "2018-04-13 14:51:03 +0000";
layers = (
{
anchors = (
{
name = bottom;
position = "{342, 0}";
},
{
name = top;
position = "{342, 700}";
}
);
layerId = "3D0525B3-6B2A-4787-8D58-1F6DD6CCA7DC";
paths = (
{
closed = 1;
nodes = (
"549 700 LINE",
"341 420 LINE",
"396 344 LINE",
"662 700 LINE"
);
},
{
closed = 1;
nodes = (
"20 700 LINE",
"531 0 LINE",
"663 0 LINE",
"151 700 LINE"
);
},
{
closed = 1;
nodes = (
"135 0 LINE",
"342 282 LINE",
"289 361 LINE",
"25 0 LINE"
);
}
);
width = 683;
}
);
leftKerningGroup = X;
note = X;
rightKerningGroup = X;
unicode = 0058;
},
{
glyphname = Y;
lastChange = "2018-04-13 14:05:35 +0000";
layers = (
{
anchors = (
{
name = bottom;
position = "{335, -1}";
},
{
name = top;
position = "{331, 700}";
},
{
name = topleft;
position = "{60, 700}";
}
);
layerId = "3D0525B3-6B2A-4787-8D58-1F6DD6CCA7DC";
paths = (
{
closed = 1;
nodes = (
"526 700 LINE",
"337 403 LINE",
"360 400 LINE",
"150 700 LINE",
"10 700 LINE",
"293 320 LINE",
"286 349 LINE",
"286 0 LINE",
"394 0 LINE",
"394 357 LINE",
"379 299 LINE",
"650 700 LINE"
);
}
);
width = 660;
}
);
leftKerningGroup = Y;
note = Y;
rightKerningGroup = Y;
unicode = 0059;
},
{
glyphname = Z;
lastChange = "2018-04-13 14:06:53 +0000";
layers = (
{
anchors = (
{
name = bottom;
position = "{320, 0}";
},
{
name = top;
position = "{320, 700}";
}
);
layerId = "3D0525B3-6B2A-4787-8D58-1F6DD6CCA7DC";
paths = (
{
closed = 1;
nodes = (
"76 700 LINE",
"76 596 LINE",
"464 596 LINE",
"455 613 LINE",
"50 79 LINE",
"50 0 LINE",
"594 0 LINE",
"594 104 LINE",
"170 104 LINE",
"178 87 LINE",
"583 622 LINE",
"583 700 LINE"
);
}
);
width = 644;
}
);
leftKerningGroup = Z;
note = Z;
rightKerningGroup = Z;
unicode = 005A;
},
{
glyphname = a;
lastChange = "2018-04-13 14:27:56 +0000";
layers = (
{
anchors = (
{
name = bottom;
position = "{305, 0}";
},
{
name = ogonek;
position = "{554, 3}";
},
{
name = top;
position = "{301, 510}";
}
);
layerId = "3D0525B3-6B2A-4787-8D58-1F6DD6CCA7DC";
paths = (
{
closed = 1;
nodes = (
"451 525 LINE",
"451 389 LINE",
"481 391 LINE",
"481 452 OFFCURVE",
"394 536 OFFCURVE",
"278 536 CURVE",
"140 536 OFFCURVE",
"32 424 OFFCURVE",
"32 264 CURVE",
"32 104 OFFCURVE",
"139 -10 OFFCURVE",
"281 -10 CURVE",
"388 -10 OFFCURVE",
"471 73 OFFCURVE",
"471 122 CURVE",
"451 125 LINE",
"451 0 LINE",
"555 0 LINE",
"555 525 LINE"
);
},
{
closed = 1;
nodes = (
"202 85 OFFCURVE",
"137 161 OFFCURVE",
"137 264 CURVE",
"137 366 OFFCURVE",
"202 441 OFFCURVE",
"295 441 CURVE",
"390 441 OFFCURVE",
"455 364 OFFCURVE",
"455 264 CURVE",
"455 161 OFFCURVE",
"390 85 OFFCURVE",
"295 85 CURVE"
);
}
);
width = 625;
}
);
leftKerningGroup = a;
note = a;
rightKerningGroup = a;
unicode = 0061;
},
{
glyphname = aogonek;
lastChange = "2018-04-02 16:38:16 +0000";
layers = (
{
anchors = (
{
name = _ogonek;
position = "{560, 3}";
},
{
name = bottom;
position = "{308, 0}";
},
{
name = ogonek;
position = "{551, 3}";
},
{
name = top;
position = "{308, 510}";
}
);
layerId = "3D0525B3-6B2A-4787-8D58-1F6DD6CCA7DC";
paths = (
{
closed = 1;
nodes = (
"198 79 OFFCURVE",
"132 158 OFFCURVE",
"132 264 CURVE",
"132 369 OFFCURVE",
"198 447 OFFCURVE",
"292 447 CURVE",
"387 447 OFFCURVE",
"452 367 OFFCURVE",
"452 264 CURVE",
"452 158 OFFCURVE",
"387 79 OFFCURVE",
"292 79 CURVE"
);
},
{
closed = 1;
nodes = (
"509 -208 OFFCURVE",
"558 -172 OFFCURVE",
"558 -140 CURVE SMOOTH",
"558 -117 OFFCURVE",
"542 -102 OFFCURVE",
"523 -102 CURVE SMOOTH",
"513 -102 OFFCURVE",
"498 -105 OFFCURVE",
"487 -119 CURVE SMOOTH",
"481 -127 OFFCURVE",
"473 -131 OFFCURVE",
"463 -131 CURVE SMOOTH",
"444 -131 OFFCURVE",
"425 -116 OFFCURVE",
"425 -87 CURVE SMOOTH",
"425 -54 OFFCURVE",
"466 -26 OFFCURVE",
"517 -11 CURVE SMOOTH",
"539 -4 OFFCURVE",
"545 11 OFFCURVE",
"545 24 CURVE",
"545 483 LINE",
"545 511 OFFCURVE",
"525 532 OFFCURVE",
"496 532 CURVE",
"468 532 OFFCURVE",
"448 510 OFFCURVE",
"448 483 CURVE",
"448 389 LINE",
"478 391 LINE",
"478 452 OFFCURVE",
"392 536 OFFCURVE",
"278 536 CURVE",
"144 536 OFFCURVE",
"39 424 OFFCURVE",
"39 264 CURVE",
"39 104 OFFCURVE",
"143 -10 OFFCURVE",
"281 -10 CURVE",
"386 -10 OFFCURVE",
"468 73 OFFCURVE",
"468 122 CURVE",
"448 125 LINE",
"448 1 LINE",
"499 43 LINE",
"431 24 OFFCURVE",
"344 -10 OFFCURVE",
"344 -105 CURVE SMOOTH",
"344 -174 OFFCURVE",
"395 -208 OFFCURVE",
"455 -208 CURVE SMOOTH"
);
}
);
width = 614;
}
);
leftKerningGroup = a;
leftMetricsKey = a;
note = aogonek;
rightKerningGroup = a;
unicode = 0105;
},
{
glyphname = ae;
lastChange = "2018-04-02 16:38:16 +0000";
layers = (
{
anchors = (
{
name = bottom;
position = "{413, 0}";
},
{
name = ogonek;
position = "{852, 10}";
},
{
name = top;
position = "{428, 515}";
}
);
layerId = "3D0525B3-6B2A-4787-8D58-1F6DD6CCA7DC";
paths = (
{
closed = 1;
nodes = (
"165 536 OFFCURVE",
"95 479 OFFCURVE",
"54 427 CURVE SMOOTH",
"45 416 OFFCURVE",
"43 405 OFFCURVE",
"43 394 CURVE SMOOTH",
"43 371 OFFCURVE",
"63 355 OFFCURVE",
"84 355 CURVE SMOOTH",
"98 355 OFFCURVE",
"111 362 OFFCURVE",
"121 373 CURVE",
"152 413 OFFCURVE",
"195 447 OFFCURVE",
"265 447 CURVE",
"310 447 OFFCURVE",
"376 435 OFFCURVE",
"376 356 CURVE",
"376 257 LINE",
"469 263 LINE",
"469 388 LINE",
"469 502 OFFCURVE",
"361 536 OFFCURVE",
"267 536 CURVE"
);
},
{
closed = 1;
nodes = (
"327 -10 OFFCURVE",
"402 61 OFFCURVE",
"433 107 CURVE",
"389 174 LINE",
"369 135 OFFCURVE",
"312 78 OFFCURVE",
"223 78 CURVE",
"182 78 OFFCURVE",
"138 100 OFFCURVE",
"138 151 CURVE",
"138 197 OFFCURVE",
"170 238 OFFCURVE",
"264 238 CURVE",
"820 238 LINE",
"846 238 OFFCURVE",
"868 256 OFFCURVE",
"869 282 CURVE",
"867 429 OFFCURVE",
"752 536 OFFCURVE",
"624 536 CURVE",
"496 536 OFFCURVE",
"376 433 OFFCURVE",
"376 257 CURVE",
"376 102 OFFCURVE",
"482 -10 OFFCURVE",
"647 -10 CURVE",
"716 -10 OFFCURVE",
"785 22 OFFCURVE",
"821 58 CURVE",
"836 70 OFFCURVE",
"843 83 OFFCURVE",
"843 96 CURVE SMOOTH",
"843 117 OFFCURVE",
"825 137 OFFCURVE",
"801 137 CURVE SMOOTH",
"791 137 OFFCURVE",
"782 134 OFFCURVE",
"772 128 CURVE",
"748 107 OFFCURVE",
"714 79 OFFCURVE",
"642 79 CURVE",
"544 79 OFFCURVE",
"469 151 OFFCURVE",
"469 264 CURVE",
"469 399 OFFCURVE",
"543 447 OFFCURVE",
"624 447 CURVE",
"692 447 OFFCURVE",
"759 398 OFFCURVE",
"766 327 CURVE",
"766 304 LINE",
"782 320 LINE",
"272 320 LINE",
"111 320 OFFCURVE",
"41 253 OFFCURVE",
"41 149 CURVE",
"41 39 OFFCURVE",
"135 -10 OFFCURVE",
"219 -10 CURVE"
);
}
);
width = 908;
}
);
leftMetricsKey = a;
note = ae;
rightMetricsKey = e;
unicode = 00E6;
},
{
glyphname = b;
lastChange = "2018-04-02 19:55:22 +0000";
layers = (
{
anchors = (
{
name = bottom;
position = "{314, 0}";
},
{
name = top;
position = "{314, 510}";
}
);
layerId = "3D0525B3-6B2A-4787-8D58-1F6DD6CCA7DC";
paths = (
{
closed = 1;
nodes = (
"249 536 OFFCURVE",
"168 466 OFFCURVE",
"157 414 CURVE",
"173 405 LINE",
"173 740 LINE",
"70 740 LINE",
"70 3 LINE",
"173 3 LINE",
"173 131 LINE",
"147 117 LINE",
"159 65 OFFCURVE",
"242 -10 OFFCURVE",
"346 -10 CURVE",
"482 -10 OFFCURVE",
"588 104 OFFCURVE",
"588 264 CURVE",
"588 424 OFFCURVE",
"483 536 OFFCURVE",
"343 536 CURVE"
);
},
{
closed = 1;
nodes = (
"423 442 OFFCURVE",
"489 366 OFFCURVE",
"489 264 CURVE",
"489 162 OFFCURVE",
"423 84 OFFCURVE",
"329 84 CURVE",
"234 84 OFFCURVE",
"168 162 OFFCURVE",
"168 264 CURVE",
"168 366 OFFCURVE",
"234 442 OFFCURVE",
"329 442 CURVE"
);
}
);
width = 628;
}
);
leftKerningGroup = b;
leftMetricsKey = n;
note = b;
rightKerningGroup = b;
rightMetricsKey = o;
unicode = 0062;
},
{
glyphname = c;
lastChange = "2018-04-13 13:29:32 +0000";
layers = (
{
anchors = (
{
name = bottom;
position = "{259, 0}";
},
{
name = top;
position = "{299, 510}";
}
);
layerId = "3D0525B3-6B2A-4787-8D58-1F6DD6CCA7DC";
paths = (
{
closed = 1;
nodes = (
"138 367 OFFCURVE",
"210 443 OFFCURVE",
"305 443 CURVE SMOOTH",
"358 443 OFFCURVE",
"422 405 OFFCURVE",
"453 360 CURVE",
"510 430 LINE",
"472 493 OFFCURVE",
"392 536 OFFCURVE",
"295 536 CURVE",
"150 536 OFFCURVE",
"40 418 OFFCURVE",
"40 263 CURVE SMOOTH",
"40 108 OFFCURVE",
"150 -10 OFFCURVE",
"295 -10 CURVE",
"387 -10 OFFCURVE",
"471 38 OFFCURVE",
"510 93 CURVE",
"453 163 LINE",
"422 125 OFFCURVE",
"373 83 OFFCURVE",
"306 83 CURVE",
"217 83 OFFCURVE",
"138 159 OFFCURVE",
"138 263 CURVE SMOOTH"
);
}
);
width = 530;
}
);
leftKerningGroup = c;
leftMetricsKey = o;
note = c;
rightKerningGroup = c;
unicode = 0063;
},
{
glyphname = d;
lastChange = "2018-04-13 14:27:02 +0000";
layers = (
{
anchors = (
{
name = bottom;
position = "{321, 0}";
},
{
name = center;
position = "{486, 614}";
},
{
name = top;
position = "{321, 510}";
},
{
name = topright;
position = "{608, 510}";
}
);
layerId = "3D0525B3-6B2A-4787-8D58-1F6DD6CCA7DC";
paths = (
{
closed = 1;
nodes = (
"461 740 LINE",
"461 389 LINE",
"491 391 LINE",
"491 452 OFFCURVE",
"403 536 OFFCURVE",
"288 536 CURVE",
"149 536 OFFCURVE",
"40 423 OFFCURVE",
"40 263 CURVE",
"40 104 OFFCURVE",
"149 -10 OFFCURVE",
"291 -10 CURVE",
"398 -10 OFFCURVE",
"481 74 OFFCURVE",
"481 125 CURVE",
"461 125 LINE",
"461 0 LINE",
"564 0 LINE",
"564 740 LINE"
);
},
{
closed = 1;
nodes = (
"211 79 OFFCURVE",
"145 158 OFFCURVE",
"145 263 CURVE",
"145 368 OFFCURVE",
"211 447 OFFCURVE",
"305 447 CURVE",
"400 447 OFFCURVE",
"465 368 OFFCURVE",
"465 263 CURVE",
"465 158 OFFCURVE",
"400 79 OFFCURVE",
"305 79 CURVE"
);
}
);
width = 634;
}
);
leftKerningGroup = c;
leftMetricsKey = o;
note = d;
rightKerningGroup = d;
unicode = 0064;
},
{
glyphname = eth;
lastChange = "2018-04-02 16:38:16 +0000";
layers = (
{
layerId = "3D0525B3-6B2A-4787-8D58-1F6DD6CCA7DC";
paths = (
{
closed = 1;
nodes = (
"423 -7 OFFCURVE",
"533 102 OFFCURVE",
"533 281 CURVE",
"533 470 OFFCURVE",
"444 681 OFFCURVE",
"234 737 CURVE",
"225 739 OFFCURVE",
"217 740 OFFCURVE",
"210 740 CURVE",
"181 740 OFFCURVE",
"168 715 OFFCURVE",
"168 692 CURVE",
"168 669 OFFCURVE",
"185 650 OFFCURVE",
"210 644 CURVE",
"345 609 OFFCURVE",
"409 530 OFFCURVE",
"417 379 CURVE",
"467 348 LINE",
"448 447 OFFCURVE",
"383 528 OFFCURVE",
"274 528 CURVE",
"155 528 OFFCURVE",
"39 411 OFFCURVE",
"39 262 CURVE",
"39 112 OFFCURVE",
"148 -7 OFFCURVE",
"286 -7 CURVE"
);
},
{
closed = 1;
nodes = (
"202 89 OFFCURVE",
"136 165 OFFCURVE",
"136 262 CURVE",
"136 358 OFFCURVE",
"202 432 OFFCURVE",
"286 432 CURVE",
"371 432 OFFCURVE",
"436 355 OFFCURVE",
"436 262 CURVE",
"436 165 OFFCURVE",
"370 89 OFFCURVE",
"286 89 CURVE"
);
},
{
closed = 1;
nodes = (
"352 574 LINE",
"393 591 LINE",
"468 608 LINE",
"491 612 OFFCURVE",
"505 627 OFFCURVE",
"500 650 CURVE",
"495 673 OFFCURVE",
"474 678 OFFCURVE",
"450 674 CURVE",
"342 650 LINE",
"287 630 LINE",
"174 601 LINE",
"150 596 OFFCURVE",
"137 582 OFFCURVE",
"142 559 CURVE",
"146 536 OFFCURVE",
"167 530 OFFCURVE",
"192 535 CURVE"
);
}
);
width = 572;
}
);
leftMetricsKey = o;
note = eth;
rightMetricsKey = o;
unicode = 00F0;
},
{
glyphname = e;
lastChange = "2018-04-13 14:53:30 +0000";
layers = (
{
anchors = (
{
name = bottom;
position = "{292, 0}";
},
{
name = ogonek;
position = "{521, 10}";
},
{
name = top;
position = "{293, 510}";
}
);
layerId = "3D0525B3-6B2A-4787-8D58-1F6DD6CCA7DC";
paths = (
{
closed = 1;
nodes = (
"472 144 LINE",
"442 118 OFFCURVE",
"400 84 OFFCURVE",
"327 84 CURVE",
"217 84 OFFCURVE",
"142 154 OFFCURVE",
"142 264 CURVE",
"142 395 OFFCURVE",
"215 442 OFFCURVE",
"308 442 CURVE",
"373 442 OFFCURVE",
"434 395 OFFCURVE",
"441 327 CURVE",
"441 303 LINE",
"456 320 LINE",
"93 320 LINE",
"116 238 LINE",
"545 238 LINE",
"546 282 LINE",
"546 433 OFFCURVE",
"440 536 OFFCURVE",
"308 537 CURVE",
"163 536 OFFCURVE",
"40 433 OFFCURVE",
"40 257 CURVE",
"40 102 OFFCURVE",
"153 -10 OFFCURVE",
"317 -10 CURVE",
"398 -10 OFFCURVE",
"479 28 OFFCURVE",
"522 69 CURVE",
"522 69 OFFCURVE",
"522 69 OFFCURVE",
"523 69 CURVE"
);
}
);
width = 586;
}
);
leftKerningGroup = c;
leftMetricsKey = o;
note = e;
rightKerningGroup = e;
rightMetricsKey = o;
unicode = 0065;
},
{
glyphname = eogonek;
lastChange = "2018-04-02 16:38:16 +0000";
layers = (
{
anchors = (
{
name = _ogonek;
position = "{513, 10}";
},
{
name = bottom;
position = "{285, 0}";
},
{
name = ogonek;
position = "{514, 10}";
},
{
name = top;
position = "{291, 510}";
}
);
layerId = "3D0525B3-6B2A-4787-8D58-1F6DD6CCA7DC";
paths = (
{
closed = 1;
nodes = (
"466 -201 OFFCURVE",
"517 -163 OFFCURVE",
"517 -133 CURVE SMOOTH",
"517 -109 OFFCURVE",
"502 -95 OFFCURVE",
"482 -95 CURVE SMOOTH",
"472 -95 OFFCURVE",
"457 -98 OFFCURVE",
"446 -112 CURVE SMOOTH",
"441 -120 OFFCURVE",
"433 -124 OFFCURVE",
"422 -124 CURVE SMOOTH",
"401 -124 OFFCURVE",
"383 -108 OFFCURVE",
"383 -81 CURVE SMOOTH",
"383 -26 OFFCURVE",
"433 12 OFFCURVE",
"486 57 CURVE SMOOTH",
"504 70 OFFCURVE",
"508 82 OFFCURVE",
"508 93 CURVE",
"508 112 OFFCURVE",
"491 138 OFFCURVE",
"464 138 CURVE SMOOTH",
"455 138 OFFCURVE",
"445 134 OFFCURVE",
"435 128 CURVE",
"411 107 OFFCURVE",
"377 79 OFFCURVE",
"305 79 CURVE",
"208 79 OFFCURVE",
"132 151 OFFCURVE",
"132 264 CURVE",
"132 397 OFFCURVE",
"202 447 OFFCURVE",
"287 447 CURVE",
"355 447 OFFCURVE",
"422 398 OFFCURVE",
"429 327 CURVE",
"429 301 LINE",
"450 320 LINE",
"72 320 LINE",
"93 238 LINE",
"483 238 LINE",
"509 238 OFFCURVE",
"531 256 OFFCURVE",
"532 282 CURVE",
"531 429 OFFCURVE",
"416 536 OFFCURVE",
"287 536 CURVE",
"159 536 OFFCURVE",
"39 433 OFFCURVE",
"39 257 CURVE",
"39 102 OFFCURVE",
"145 -10 OFFCURVE",
"310 -10 CURVE",
"339 -10 OFFCURVE",
"369 -4 OFFCURVE",
"395 5 CURVE",
"452 51 LINE",
"384 28 OFFCURVE",
"302 -8 OFFCURVE",
"302 -98 CURVE SMOOTH",
"302 -167 OFFCURVE",
"354 -201 OFFCURVE",
"414 -201 CURVE SMOOTH"
);
}
);
width = 571;
}
);
leftKerningGroup = c;
leftMetricsKey = e;
note = eogonek;
rightKerningGroup = e;
rightMetricsKey = e;
unicode = 0119;
},
{
glyphname = f;
lastChange = "2018-04-02 19:56:32 +0000";
layers = (
{
anchors = (
{
name = bottom;
position = "{197, 0}";
},
{
name = top;
position = "{197, 510}";
}
);
layerId = "3D0525B3-6B2A-4787-8D58-1F6DD6CCA7DC";
paths = (
{
closed = 1;
nodes = (
"357 516 LINE",
"45 516 LINE",
"45 421 LINE",
"357 421 LINE"
);
},
{
closed = 1;
nodes = (
"390 695 LINE",
"374 714 OFFCURVE",
"338 739 OFFCURVE",
"285 739 CURVE SMOOTH",
"193 739 OFFCURVE",
"129 675 OFFCURVE",
"129 584 CURVE SMOOTH",
"129 0 LINE SMOOTH",
"129 0 OFFCURVE",
"233 0 OFFCURVE",
"233 0 CURVE SMOOTH",
"233 584 LINE SMOOTH",
"233 617 OFFCURVE",
"249 653 OFFCURVE",
"297 653 CURVE SMOOTH",
"318 653 OFFCURVE",
"341 639 OFFCURVE",
"355 626 CURVE"
);
}
);
width = 393;
}
);
leftKerningGroup = f;
note = f;
rightKerningGroup = f;
unicode = 0066;
},
{
glyphname = g;
lastChange = "2018-04-20 17:50:23 +0000";
layers = (
{
anchors = (
{
name = bottom;
position = "{313, 0}";
},
{
name = top;
position = "{313, 510}";
}
);
layerId = "3D0525B3-6B2A-4787-8D58-1F6DD6CCA7DC";
paths = (
{
closed = 1;
nodes = (
"92 -167 LINE",
"137 -204 OFFCURVE",
"218 -230 OFFCURVE",
"293 -230 CURVE",
"437 -230 OFFCURVE",
"563 -156 OFFCURVE",
"563 32 CURVE",
"563 525 LINE",
"460 525 LINE",
"460 402 LINE",
"482 400 LINE",
"482 449 OFFCURVE",
"397 536 OFFCURVE",
"283 536 CURVE",
"142 536 OFFCURVE",
"32 423 OFFCURVE",
"32 263 CURVE",
"32 104 OFFCURVE",
"142 -10 OFFCURVE",
"286 -10 CURVE",
"379 -10 OFFCURVE",
"462 57 OFFCURVE",
"471 114 CURVE",
"460 121 LINE",
"460 20 LINE",
"460 -86 OFFCURVE",
"401 -138 OFFCURVE",
"293 -138 CURVE",
"235 -138 OFFCURVE",
"170 -118 OFFCURVE",
"130 -87 CURVE"
);
},
{
closed = 1;
nodes = (
"396 442 OFFCURVE",
"464 366 OFFCURVE",
"464 263 CURVE",
"464 160 OFFCURVE",
"396 85 OFFCURVE",
"297 85 CURVE",
"200 85 OFFCURVE",
"131 161 OFFCURVE",
"131 263 CURVE",
"131 365 OFFCURVE",
"200 442 OFFCURVE",
"297 442 CURVE"
);
}
);
width = 629;
}
);
leftKerningGroup = g;
note = g;
rightKerningGroup = g;
rightMetricsKey = n;
unicode = 0067;
},
{
glyphname = h;
lastChange = "2018-04-02 19:54:25 +0000";
layers = (
{
anchors = (
{
name = bottom;
position = "{290, 0}";
},
{
name = center;
position = "{120, 593}";
},
{
name = top;
position = "{119, 729}";
}
);
layerId = "3D0525B3-6B2A-4787-8D58-1F6DD6CCA7DC";
paths = (
{
closed = 1;
nodes = (
"252 536 OFFCURVE",
"173 466 OFFCURVE",
"155 405 CURVE",
"173 417 LINE",
"173 740 LINE",
"70 740 LINE",
"70 0 LINE",
"70 0 OFFCURVE",
"173 0 OFFCURVE",
"173 0 CURVE",
"173 318 LINE",
"173 386 OFFCURVE",
"231 442 OFFCURVE",
"311 442 CURVE",
"396 447 OFFCURVE",
"422 389 OFFCURVE",
"422 313 CURVE",
"422 0 LINE",
"525 0 LINE",
"525 320 LINE",
"525 439 OFFCURVE",
"486 536 OFFCURVE",
"345 536 CURVE"
);
}
);
width = 591;
}
);
leftKerningGroup = b;
leftMetricsKey = n;
note = h;
rightKerningGroup = h;
rightMetricsKey = n;
unicode = 0068;
},
{
glyphname = idotless;
lastChange = "2018-04-02 19:57:00 +0000";
layers = (
{
anchors = (
{
name = bottom;
position = "{124, 0}";
},
{
name = ogonek;
position = "{208, 10}";
},
{
name = top;
position = "{124, 525}";
}
);
layerId = "3D0525B3-6B2A-4787-8D58-1F6DD6CCA7DC";
paths = (
{
closed = 1;
nodes = (
"175 525 LINE",
"72 525 LINE",
"72 0 LINE",
"121 0 LINE",
"175 0 LINE"
);
}
);
width = 247;
}
);
note = dotlessi;
unicode = 0131;
},
{
glyphname = iogonek;
lastChange = "2018-04-02 16:38:16 +0000";
layers = (
{
anchors = (
{
name = _ogonek;
position = "{198, 10}";
},
{
name = bottom;
position = "{115, 0}";
},
{
name = ogonek;
position = "{198, 10}";
},
{
name = top;
position = "{114, 510}";
}
);
components = (
{
name = dotaccentcomb;
transform = "{1, 0, 0, 1, 9, 0}";
}
);
layerId = "3D0525B3-6B2A-4787-8D58-1F6DD6CCA7DC";
paths = (
{
closed = 1;
nodes = (
"148 -201 OFFCURVE",
"197 -164 OFFCURVE",
"197 -133 CURVE SMOOTH",
"197 -110 OFFCURVE",
"181 -95 OFFCURVE",
"161 -95 CURVE SMOOTH",
"151 -95 OFFCURVE",
"136 -99 OFFCURVE",
"125 -113 CURVE SMOOTH",
"119 -121 OFFCURVE",
"111 -124 OFFCURVE",
"102 -124 CURVE SMOOTH",
"82 -124 OFFCURVE",
"64 -109 OFFCURVE",
"64 -80 CURVE SMOOTH",
"64 -5 OFFCURVE",
"162 -24 OFFCURVE",
"162 54 CURVE",
"162 480 LINE SMOOTH",
"162 508 OFFCURVE",
"142 529 OFFCURVE",
"114 529 CURVE SMOOTH",
"86 529 OFFCURVE",
"65 508 OFFCURVE",
"65 480 CURVE SMOOTH",
"65 7 LINE",
"142 40 LINE",
"69 21 OFFCURVE",
"-18 -3 OFFCURVE",
"-18 -98 CURVE SMOOTH",
"-18 -167 OFFCURVE",
"34 -201 OFFCURVE",
"93 -201 CURVE SMOOTH"
);
}
);
width = 227;
}
);
leftMetricsKey = "+10";
note = iogonek;
rightMetricsKey = "+10";
unicode = 012F;
},
{
glyphname = jdotless;
lastChange = "2018-04-13 13:32:06 +0000";
layers = (
{
anchors = (
{
name = bottom;
position = "{151, 0}";
},
{
name = top;
position = "{138, 531}";
}
);
layerId = "3D0525B3-6B2A-4787-8D58-1F6DD6CCA7DC";
paths = (
{
closed = 1;
nodes = (
"188 -131 OFFCURVE",
"188 -24 CURVE SMOOTH",
"188 525 LINE",
"85 525 LINE",
"85 1 LINE SMOOTH",
"85 -73 OFFCURVE",
"50 -118 OFFCURVE",
"-31 -118 CURVE",
"8 -197 LINE",
"110 -197 OFFCURVE"
);
}
);
width = 263;
}
);
note = dotlessj;
unicode = 0237;
},
{
glyphname = k;
lastChange = "2018-04-13 15:03:51 +0000";
layers = (
{
anchors = (
{
name = bottom;
position = "{283, 0}";
},
{
name = top;
position = "{283, 510}";
}
);
layerId = "3D0525B3-6B2A-4787-8D58-1F6DD6CCA7DC";
paths = (
{
closed = 1;
nodes = (
"181 0 LINE",
"181 740 LINE",
"78 740 LINE",
"78 0 LINE"
);
},
{
closed = 1;
nodes = (
"418 525 LINE",
"167 276 LINE",
"172 164 LINE",
"557 525 LINE"
);
},
{
closed = 1;
nodes = (
"564 0 LINE",
"307 298 LINE",
"234 231 LINE",
"432 0 LINE"
);
}
);
width = 574;
}
);
leftKerningGroup = b;
leftMetricsKey = l;
note = k;
rightKerningGroup = k;
unicode = 006B;
},
{
glyphname = kgreenlandic;
lastChange = "2018-04-02 16:38:16 +0000";
layers = (
{
anchors = (
{
name = bottom;
position = "{300, 0}";
},
{
name = top;
position = "{300, 510}";
}
);
layerId = "3D0525B3-6B2A-4787-8D58-1F6DD6CCA7DC";
paths = (
{
closed = 1;
nodes = (
"156 0 OFFCURVE",
"176 21 OFFCURVE",
"176 49 CURVE SMOOTH",
"176 475 LINE SMOOTH",
"176 504 OFFCURVE",
"156 525 OFFCURVE",
"127 525 CURVE SMOOTH",
"99 525 OFFCURVE",
"79 504 OFFCURVE",
"79 475 CURVE SMOOTH",
"79 49 LINE SMOOTH",
"79 21 OFFCURVE",
"99 0 OFFCURVE",
"127 0 CURVE SMOOTH"
);
},
{
closed = 1;
nodes = (
"441 526 OFFCURVE",
"429 522 OFFCURVE",
"418 511 CURVE SMOOTH",
"162 276 LINE",
"167 164 LINE",
"481 444 LINE SMOOTH",
"494 455 OFFCURVE",
"500 468 OFFCURVE",
"500 480 CURVE SMOOTH",
"500 501 OFFCURVE",
"479 526 OFFCURVE",
"454 526 CURVE SMOOTH"
);
},
{
closed = 1;
nodes = (
"486 1 OFFCURVE",
"515 19 OFFCURVE",
"515 49 CURVE SMOOTH",
"515 61 OFFCURVE",
"510 74 OFFCURVE",
"500 85 CURVE SMOOTH",
"302 298 LINE",
"229 231 LINE",
"430 17 LINE SMOOTH",
"440 7 OFFCURVE",
"453 1 OFFCURVE",
"466 1 CURVE SMOOTH"
);
}
);
width = 556;
}
);
unicode = 0138;
},
{
glyphname = l;
lastChange = "2018-04-20 17:38:01 +0000";
layers = (
{
anchors = (
{
name = bottom;
position = "{123, 0}";
},
{
name = center;
position = "{123, 289}";
},
{
name = top;
position = "{124, 740}";
},
{
name = topright;
position = "{230, 580}";
}
);
layerId = "3D0525B3-6B2A-4787-8D58-1F6DD6CCA7DC";
paths = (
{
closed = 1;
nodes = (
"178 0 LINE",
"178 740 LINE",
"75 740 LINE",
"75 0 LINE"
);
}
);
width = 253;
}
);
leftKerningGroup = b;
note = l;
rightKerningGroup = l;
unicode = 006C;
},
{
glyphname = lcaron;
lastChange = "2018-04-02 16:38:16 +0000";
layers = (
{
components = (
{
name = caronalt;
transform = "{1, 0, 0, 1, 200, 0}";
}
);
layerId = "3D0525B3-6B2A-4787-8D58-1F6DD6CCA7DC";
paths = (
{
closed = 1;
nodes = (
"174 691 LINE SMOOTH",
"174 719 OFFCURVE",
"154 740 OFFCURVE",
"127 740 CURVE SMOOTH",
"98 740 OFFCURVE",
"77 719 OFFCURVE",
"77 691 CURVE SMOOTH",
"77 49 LINE SMOOTH",
"77 21 OFFCURVE",
"97 0 OFFCURVE",
"125 0 CURVE SMOOTH",
"153 0 OFFCURVE",
"174 21 OFFCURVE",
"174 49 CURVE SMOOTH"
);
}
);
width = 383;
}
);
leftMetricsKey = l;
note = lcaron;
unicode = 013E;
},
{
glyphname = lslash;
lastChange = "2018-04-02 16:38:16 +0000";
layers = (
{
components = (
{
name = l;
}
);
layerId = "3D0525B3-6B2A-4787-8D58-1F6DD6CCA7DC";
paths = (
{
closed = 1;
nodes = (
"30 293 OFFCURVE",
"37 294 OFFCURVE",
"44 297 CURVE SMOOTH",
"250 392 LINE SMOOTH",
"266 399 OFFCURVE",
"276 413 OFFCURVE",
"276 430 CURVE SMOOTH",
"276 446 OFFCURVE",
"263 471 OFFCURVE",
"237 471 CURVE SMOOTH",
"230 471 OFFCURVE",
"223 469 OFFCURVE",
"217 466 CURVE SMOOTH",
"10 372 LINE SMOOTH",
"-6 364 OFFCURVE",
"-16 350 OFFCURVE",
"-16 335 CURVE SMOOTH",
"-16 318 OFFCURVE",
"-2 293 OFFCURVE",
"24 293 CURVE SMOOTH"
);
}
);
width = 255;
}
);
note = lslash;
unicode = 0142;
},
{
glyphname = m;
lastChange = "2018-04-02 19:54:56 +0000";
layers = (
{
anchors = (
{
name = bottom;
position = "{466, 0}";
},
{
name = top;
position = "{466, 510}";
}
);
layerId = "3D0525B3-6B2A-4787-8D58-1F6DD6CCA7DC";
paths = (
{
closed = 1;
nodes = (
"246 534 OFFCURVE",
"172 460 OFFCURVE",
"155 401 CURVE",
"174 413 LINE",
"174 525 LINE",
"70 525 LINE",
"70 0 LINE",
"174 0 LINE",
"174 316 LINE",
"174 383 OFFCURVE",
"229 439 OFFCURVE",
"306 439 CURVE",
"379 439 OFFCURVE",
"409 386 OFFCURVE",
"409 311 CURVE",
"409 0 LINE",
"513 0 LINE",
"513 314 LINE",
"513 383 OFFCURVE",
"568 439 OFFCURVE",
"646 439 CURVE",
"727 439 OFFCURVE",
"751 386 OFFCURVE",
"751 309 CURVE",
"751 0 LINE",
"855 0 LINE",
"855 315 LINE",
"855 436 OFFCURVE",
"816 534 OFFCURVE",
"680 534 CURVE",
"596 534 OFFCURVE",
"522 471 OFFCURVE",
"497 420 CURVE",
"490 403 LINE",
"506 399 LINE",
"488 481 OFFCURVE",
"436 534 OFFCURVE",
"339 534 CURVE"
);
}
);
width = 925;
}
);
leftKerningGroup = m;
leftMetricsKey = n;
note = m;
rightKerningGroup = h;
rightMetricsKey = n;
unicode = 006D;
},
{
glyphname = n;
lastChange = "2018-04-02 19:51:24 +0000";
layers = (
{
anchors = (
{
name = bottom;
position = "{301, 0}";
},
{
name = top;
position = "{301, 510}";
}
);
layerId = "3D0525B3-6B2A-4787-8D58-1F6DD6CCA7DC";
paths = (
{
closed = 1;
nodes = (
"252 536 OFFCURVE",
"173 466 OFFCURVE",
"155 405 CURVE",
"173 417 LINE",
"173 525 LINE",
"70 525 LINE",
"70 0 LINE",
"70 0 OFFCURVE",
"173 0 OFFCURVE",
"173 0 CURVE",
"173 318 LINE",
"173 386 OFFCURVE",
"231 442 OFFCURVE",
"311 442 CURVE",
"396 447 OFFCURVE",
"422 389 OFFCURVE",
"422 313 CURVE",
"422 0 LINE",
"525 0 LINE",
"525 320 LINE",
"525 439 OFFCURVE",
"486 536 OFFCURVE",
"345 536 CURVE"
);
}
);
width = 591;
}
);
leftKerningGroup = m;
note = n;
rightKerningGroup = h;
unicode = 006E;
},
{
glyphname = eng;
lastChange = "2018-04-02 16:38:16 +0000";
layers = (
{
anchors = (
{
name = bottom;
position = "{286, 0}";
},
{
name = top;
position = "{295, 510}";
}
);
layerId = "3D0525B3-6B2A-4787-8D58-1F6DD6CCA7DC";
paths = (
{
closed = 1;
nodes = (
"444 -201 OFFCURVE",
"519 -147 OFFCURVE",
"519 -23 CURVE SMOOTH",
"519 320 LINE",
"519 439 OFFCURVE",
"480 536 OFFCURVE",
"339 536 CURVE",
"246 536 OFFCURVE",
"167 466 OFFCURVE",
"149 405 CURVE",
"167 417 LINE",
"167 475 LINE",
"167 504 OFFCURVE",
"147 525 OFFCURVE",
"119 525 CURVE",
"91 525 OFFCURVE",
"70 504 OFFCURVE",
"70 475 CURVE",
"70 49 LINE",
"70 21 OFFCURVE",
"90 0 OFFCURVE",
"119 0 CURVE",
"147 0 OFFCURVE",
"167 21 OFFCURVE",
"167 49 CURVE",
"167 318 LINE",
"167 389 OFFCURVE",
"226 447 OFFCURVE",
"308 447 CURVE",
"395 447 OFFCURVE",
"422 389 OFFCURVE",
"422 318 CURVE",
"422 -26 LINE SMOOTH",
"422 -81 OFFCURVE",
"400 -109 OFFCURVE",
"337 -110 CURVE SMOOTH",
"309 -111 OFFCURVE",
"290 -131 OFFCURVE",
"290 -157 CURVE SMOOTH",
"290 -183 OFFCURVE",
"312 -200 OFFCURVE",
"342 -200 CURVE SMOOTH"
);
}
);
width = 589;
}
);
leftMetricsKey = n;
note = eng;
rightMetricsKey = n;
unicode = 014B;
},
{
glyphname = nhookleft;
lastChange = "2018-04-02 16:38:16 +0000";
layers = (
{
layerId = "3D0525B3-6B2A-4787-8D58-1F6DD6CCA7DC";
paths = (
{
closed = 1;
nodes = (
"36 -197 OFFCURVE",
"167 -190 OFFCURVE",
"167 -24 CURVE",
"167 318 LINE",
"167 389 OFFCURVE",
"226 447 OFFCURVE",
"308 447 CURVE",
"395 447 OFFCURVE",
"422 389 OFFCURVE",
"422 318 CURVE",
"422 49 LINE",
"422 21 OFFCURVE",
"442 0 OFFCURVE",
"470 0 CURVE",
"498 0 OFFCURVE",
"519 21 OFFCURVE",
"519 49 CURVE",
"519 320 LINE",
"519 439 OFFCURVE",
"480 536 OFFCURVE",
"339 536 CURVE",
"246 536 OFFCURVE",
"167 466 OFFCURVE",
"149 405 CURVE",
"167 417 LINE",
"167 475 LINE",
"167 504 OFFCURVE",
"147 525 OFFCURVE",
"119 525 CURVE",
"91 525 OFFCURVE",
"70 504 OFFCURVE",
"70 475 CURVE",
"70 1 LINE",
"70 -50 OFFCURVE",
"53 -85 OFFCURVE",
"7 -98 CURVE SMOOTH",
"-21 -107 OFFCURVE",
"-34 -119 OFFCURVE",
"-34 -152 CURVE SMOOTH",
"-34 -175 OFFCURVE",
"-17 -197 OFFCURVE",
"7 -197 CURVE SMOOTH"
);
}
);
width = 592;
}
);
unicode = 0272;
},
{
glyphname = o;
lastChange = "2018-04-13 14:26:46 +0000";
layers = (
{
anchors = (
{
name = bottom;
position = "{305, 0}";
},
{
name = center;
position = "{305, 256}";
},
{
name = ogonek;
position = "{547, 10}";
},
{
name = top;
position = "{305, 513}";
},
{
name = topright;
position = "{319, 531}";
}
);
layerId = "3D0525B3-6B2A-4787-8D58-1F6DD6CCA7DC";
paths = (
{
closed = 1;
nodes = (
"575 423 OFFCURVE",
"458 536 OFFCURVE",
"308 536 CURVE",
"157 536 OFFCURVE",
"40 423 OFFCURVE",
"40 263 CURVE",
"40 103 OFFCURVE",
"157 -10 OFFCURVE",
"308 -10 CURVE",
"458 -10 OFFCURVE",
"575 103 OFFCURVE",
"575 263 CURVE"
);
},
{
closed = 1;
nodes = (
"472 158 OFFCURVE",
"400 84 OFFCURVE",
"308 84 CURVE",
"216 84 OFFCURVE",
"143 158 OFFCURVE",
"145 263 CURVE",
"143 369 OFFCURVE",
"216 442 OFFCURVE",
"308 442 CURVE",
"400 442 OFFCURVE",
"472 369 OFFCURVE",
"470 263 CURVE"
);
}
);
width = 615;
}
);
leftKerningGroup = c;
note = o;
rightKerningGroup = b;
unicode = 006F;
},
{
glyphname = oogonek;
lastChange = "2018-04-02 16:38:16 +0000";
layers = (
{
layerId = "3D0525B3-6B2A-4787-8D58-1F6DD6CCA7DC";
paths = (
{
closed = 1;
nodes = (
"471 155 OFFCURVE",
"398 79 OFFCURVE",
"304 79 CURVE",
"210 79 OFFCURVE",
"136 155 OFFCURVE",
"136 263 CURVE",
"136 372 OFFCURVE",
"210 447 OFFCURVE",
"304 447 CURVE",
"398 447 OFFCURVE",
"471 372 OFFCURVE",
"471 263 CURVE"
);
},
{
closed = 1;
nodes = (
"418 -201 OFFCURVE",
"467 -164 OFFCURVE",
"467 -133 CURVE",
"467 -110 OFFCURVE",
"452 -95 OFFCURVE",
"432 -95 CURVE",
"422 -95 OFFCURVE",
"407 -99 OFFCURVE",
"396 -113 CURVE",
"390 -120 OFFCURVE",
"383 -124 OFFCURVE",
"373 -124 CURVE",
"352 -124 OFFCURVE",
"331 -106 OFFCURVE",
"331 -73 CURVE",
"331 -34 OFFCURVE",
"370 -6 OFFCURVE",
"421 19 CURVE",
"510 58 OFFCURVE",
"568 149 OFFCURVE",
"568 263 CURVE",
"568 423 OFFCURVE",
"452 536 OFFCURVE",
"304 536 CURVE",
"155 536 OFFCURVE",
"39 423 OFFCURVE",
"39 263 CURVE",
"39 103 OFFCURVE",
"155 -10 OFFCURVE",
"304 -10 CURVE",
"340 16 OFFCURVE",
"376 46 OFFCURVE",
"408 78 CURVE",
"338 57 OFFCURVE",
"250 14 OFFCURVE",
"250 -91 CURVE",
"250 -165 OFFCURVE",
"303 -201 OFFCURVE",
"364 -201 CURVE"
);
}
);
width = 607;
}
);
leftKerningGroup = o;
rightKerningGroup = b;
unicode = 01EB;
},
{
glyphname = oslash;
lastChange = "2018-04-02 16:38:16 +0000";
layers = (
{
anchors = (
{
name = top;
position = "{305, 510}";
}
);
components = (
{
name = o;
}
);
layerId = "3D0525B3-6B2A-4787-8D58-1F6DD6CCA7DC";
paths = (
{
closed = 1;
nodes = (
"105 -31 OFFCURVE",
"116 -26 OFFCURVE",
"124 -16 CURVE SMOOTH",
"544 476 LINE SMOOTH",
"550 483 OFFCURVE",
"554 493 OFFCURVE",
"554 503 CURVE SMOOTH",
"554 526 OFFCURVE",
"534 545 OFFCURVE",
"512 545 CURVE SMOOTH",
"500 545 OFFCURVE",
"489 540 OFFCURVE",
"481 530 CURVE SMOOTH",
"62 38 LINE SMOOTH",
"54 30 OFFCURVE",
"51 20 OFFCURVE",
"51 10 CURVE SMOOTH",
"51 -10 OFFCURVE",
"69 -31 OFFCURVE",
"93 -31 CURVE SMOOTH"
);
}
);
width = 607;
}
);
leftKerningGroup = o;
note = oslash;
rightKerningGroup = b;
unicode = 00F8;
},
{
glyphname = p;
lastChange = "2018-04-20 22:51:30 +0000";
layers = (
{
anchors = (
{
name = bottom;
position = "{315, 0}";
},
{
name = top;
position = "{315, 510}";
}
);
layerId = "3D0525B3-6B2A-4787-8D58-1F6DD6CCA7DC";
paths = (
{
closed = 1;
nodes = (
"250 534 OFFCURVE",
"169 467 OFFCURVE",
"158 414 CURVE",
"174 405 LINE",
"174 526 LINE",
"70 526 LINE",
"70 -220 LINE",
"174 -220 LINE",
"174 131 LINE",
"148 117 LINE",
"160 65 OFFCURVE",
"243 -9 OFFCURVE",
"347 -9 CURVE",
"483 -9 OFFCURVE",
"589 104 OFFCURVE",
"589 263 CURVE",
"589 422 OFFCURVE",
"484 534 OFFCURVE",
"344 534 CURVE"
);
},
{
closed = 1;
nodes = (
"424 439 OFFCURVE",
"490 364 OFFCURVE",
"490 263 CURVE",
"490 163 OFFCURVE",
"424 86 OFFCURVE",
"330 86 CURVE",
"235 86 OFFCURVE",
"169 163 OFFCURVE",
"169 263 CURVE",
"169 364 OFFCURVE",
"235 439 OFFCURVE",
"330 439 CURVE"
);
}
);
width = 621;
}
);
leftKerningGroup = p;
leftMetricsKey = n;
note = p;
rightKerningGroup = b;
unicode = 0070;
},
{
glyphname = thorn;
lastChange = "2018-04-02 16:38:16 +0000";
layers = (
{
anchors = (
{
name = bottom;
position = "{282, 0}";
},
{
name = top;
position = "{282, 499}";
}
);
layerId = "3D0525B3-6B2A-4787-8D58-1F6DD6CCA7DC";
paths = (
{
closed = 1;
nodes = (
"242 534 OFFCURVE",
"162 467 OFFCURVE",
"151 414 CURVE",
"167 405 LINE",
"167 691 LINE",
"167 719 OFFCURVE",
"147 740 OFFCURVE",
"119 740 CURVE",
"90 740 OFFCURVE",
"70 719 OFFCURVE",
"70 691 CURVE",
"70 -151 LINE",
"70 -180 OFFCURVE",
"91 -200 OFFCURVE",
"119 -200 CURVE",
"147 -200 OFFCURVE",
"167 -179 OFFCURVE",
"167 -151 CURVE",
"167 131 LINE",
"141 117 LINE",
"153 65 OFFCURVE",
"235 -9 OFFCURVE",
"337 -9 CURVE",
"471 -9 OFFCURVE",
"576 104 OFFCURVE",
"576 263 CURVE",
"576 422 OFFCURVE",
"472 534 OFFCURVE",
"334 534 CURVE"
);
},
{
closed = 1;
nodes = (
"417 444 OFFCURVE",
"483 367 OFFCURVE",
"483 263 CURVE",
"483 159 OFFCURVE",
"417 80 OFFCURVE",
"323 80 CURVE",
"228 80 OFFCURVE",
"162 159 OFFCURVE",
"162 263 CURVE",
"162 367 OFFCURVE",
"228 444 OFFCURVE",
"323 444 CURVE"
);
}
);
width = 615;
}
);
leftMetricsKey = p;
note = thorn;
rightMetricsKey = p;
unicode = 00FE;
},
{
glyphname = q;
lastChange = "2018-04-20 22:51:39 +0000";
layers = (
{
anchors = (
{
name = bottom;
position = "{315, 0}";
},
{
name = top;
position = "{315, 510}";
}
);
layerId = "3D0525B3-6B2A-4787-8D58-1F6DD6CCA7DC";
paths = (
{
closed = 1;
nodes = (
"455 526 LINE",
"455 389 LINE",
"485 391 LINE",
"485 452 OFFCURVE",
"398 536 OFFCURVE",
"285 536 CURVE",
"148 536 OFFCURVE",
"40 423 OFFCURVE",
"40 263 CURVE",
"40 104 OFFCURVE",
"148 -10 OFFCURVE",
"288 -10 CURVE",
"393 -10 OFFCURVE",
"475 74 OFFCURVE",
"475 125 CURVE",
"455 125 LINE",
"455 -220 LINE",
"558 -220 LINE",
"558 526 LINE"
);
},
{
closed = 1;
nodes = (
"205 85 OFFCURVE",
"139 161 OFFCURVE",
"139 263 CURVE",
"139 365 OFFCURVE",
"205 442 OFFCURVE",
"299 442 CURVE",
"394 442 OFFCURVE",
"459 365 OFFCURVE",
"459 263 CURVE",
"459 161 OFFCURVE",
"394 85 OFFCURVE",
"299 85 CURVE"
);
}
);
width = 624;
}
);
leftKerningGroup = c;
leftMetricsKey = o;
note = q;
rightKerningGroup = q;
rightMetricsKey = n;
unicode = 0071;
},
{
glyphname = r;
lastChange = "2018-04-11 14:01:55 +0000";
layers = (
{
anchors = (
{
name = bottom;
position = "{124, 0}";
},
{
name = top;
position = "{215, 510}";
}
);
layerId = "3D0525B3-6B2A-4787-8D58-1F6DD6CCA7DC";
paths = (
{
closed = 1;
nodes = (
"391 526 LINE",
"379 532 OFFCURVE",
"356 536 OFFCURVE",
"334 536 CURVE",
"260 536 OFFCURVE",
"186 476 OFFCURVE",
"164 400 CURVE",
"174 360 LINE",
"174 525 LINE",
"70 525 LINE",
"70 0 LINE",
"174 0 LINE",
"174 290 LINE",
"174 373 OFFCURVE",
"245 426 OFFCURVE",
"309 426 CURVE SMOOTH",
"330 426 OFFCURVE",
"351 420 OFFCURVE",
"364 414 CURVE"
);
}
);
width = 401;
}
);
leftKerningGroup = m;
leftMetricsKey = n;
note = r;
rightKerningGroup = r;
unicode = 0072;
},
{
glyphname = s;
lastChange = "2018-04-13 14:24:36 +0000";
layers = (
{
anchors = (
{
name = bottom;
position = "{239, 0}";
},
{
name = top;
position = "{239, 510}";
}
);
layerId = "3D0525B3-6B2A-4787-8D58-1F6DD6CCA7DC";
paths = (
{
closed = 1;
nodes = (
"435 452 LINE",
"387 511 OFFCURVE",
"305 536 OFFCURVE",
"242 536 CURVE",
"143 536 OFFCURVE",
"54 478 OFFCURVE",
"54 385 CURVE",
"54 273 OFFCURVE",
"149 240 OFFCURVE",
"235 217 CURVE",
"293 202 OFFCURVE",
"343 190 OFFCURVE",
"343 142 CURVE",
"343 92 OFFCURVE",
"294 75 OFFCURVE",
"257 75 CURVE",
"190 75 OFFCURVE",
"147 100 OFFCURVE",
"111 141 CURVE",
"41 81 LINE",
"93 14 OFFCURVE",
"172 -10 OFFCURVE",
"248 -10 CURVE",
"343 -10 OFFCURVE",
"438 48 OFFCURVE",
"438 146 CURVE",
"438 259 OFFCURVE",
"350 286 OFFCURVE",
"268 308 CURVE",
"205 324 OFFCURVE",
"156 340 OFFCURVE",
"155 388 CURVE",
"155 439 OFFCURVE",
"205 451 OFFCURVE",
"247 451 CURVE",
"287 451 OFFCURVE",
"339 424 OFFCURVE",
"376 387 CURVE"
);
}
);
width = 477;
}
);
leftKerningGroup = s;
note = s;
rightKerningGroup = s;
unicode = 0073;
},
{
glyphname = germandbls;
lastChange = "2018-04-21 00:28:59 +0000";
layers = (
{
layerId = "3D0525B3-6B2A-4787-8D58-1F6DD6CCA7DC";
paths = (
{
closed = 1;
nodes = (
"226 -1 LINE",
"226 502 LINE",
"226 582 OFFCURVE",
"269 644 OFFCURVE",
"350 644 CURVE",
"416 644 OFFCURVE",
"457 614 OFFCURVE",
"457 565 CURVE",
"457 523 OFFCURVE",
"424 485 OFFCURVE",
"344 450 CURVE",
"344 385 LINE",
"459 357 OFFCURVE",
"525 311 OFFCURVE",
"525 206 CURVE",
"525 128 OFFCURVE",
"483 68 OFFCURVE",
"414 68 CURVE",
"386 68 OFFCURVE",
"356 87 OFFCURVE",
"327 112 CURVE",
"275 57 LINE",
"305 19 OFFCURVE",
"348 -10 OFFCURVE",
"410 -10 CURVE",
"530 -10 OFFCURVE",
"622 84 OFFCURVE",
"622 218 CURVE",
"622 342 OFFCURVE",
"535 415 OFFCURVE",
"447 443 CURVE",
"449 439 LINE",
"506 464 OFFCURVE",
"553 514 OFFCURVE",
"553 574 CURVE",
"553 662 OFFCURVE",
"483 734 OFFCURVE",
"354 734 CURVE",
"208 734 OFFCURVE",
"129 630 OFFCURVE",
"129 499 CURVE",
"129 -1 LINE"
);
},
{
closed = 1;
nodes = (
"180 404 LINE",
"180 497 LINE",
"45 497 LINE",
"45 404 LINE"
);
}
);
width = 661;
}
);
leftMetricsKey = f;
note = germandbls;
rightMetricsKey = s;
unicode = 00DF;
},
{
glyphname = t;
lastChange = "2018-04-21 00:25:23 +0000";
layers = (
{
anchors = (
{
name = bottom;
position = "{194, 0}";
},
{
name = center;
position = "{194, 256}";
},
{
name = top;
position = "{175, 646}";
},
{
name = topright;
position = "{300, 548}";
}
);
layerId = "3D0525B3-6B2A-4787-8D58-1F6DD6CCA7DC";
paths = (
{
closed = 1;
nodes = (
"232 639 LINE",
"129 639 LINE",
"129 0 LINE",
"232 0 LINE"
);
},
{
closed = 1;
nodes = (
"354 519 LINE",
"20 519 LINE",
"20 423 LINE",
"354 423 LINE"
);
}
);
width = 379;
}
);
leftKerningGroup = t;
note = t;
rightKerningGroup = t;
unicode = 0074;
},
{
glyphname = u;
lastChange = "2018-04-02 19:55:35 +0000";
layers = (
{
anchors = (
{
name = bottom;
position = "{297, 0}";
},
{
name = ogonek;
position = "{528, 10}";
},
{
name = top;
position = "{297, 510}";
},
{
name = topright;
position = "{384, 532}";
}
);
layerId = "3D0525B3-6B2A-4787-8D58-1F6DD6CCA7DC";
paths = (
{
closed = 1;
nodes = (
"428 128 OFFCURVE",
"368 80 OFFCURVE",
"296 80 CURVE SMOOTH",
"209 80 OFFCURVE",
"173 149 OFFCURVE",
"173 229 CURVE",
"173 525 LINE",
"70 525 LINE",
"70 201 LINE",
"70 69 OFFCURVE",
"144 -10 OFFCURVE",
"254 -10 CURVE SMOOTH",
"358 -10 OFFCURVE",
"426 61 OFFCURVE",
"446 122 CURVE",
"428 110 LINE",
"428 1 LINE",
"531 1 LINE",
"531 525 LINE",
"531 525 OFFCURVE",
"428 525 OFFCURVE",
"428 525 CURVE",
"428 209 LINE SMOOTH"
);
}
);
width = 597;
}
);
leftKerningGroup = u;
leftMetricsKey = n;
note = u;
rightKerningGroup = u;
rightMetricsKey = n;
unicode = 0075;
},
{
glyphname = uogonek;
lastChange = "2018-04-02 16:38:16 +0000";
layers = (
{
layerId = "3D0525B3-6B2A-4787-8D58-1F6DD6CCA7DC";
paths = (
{
closed = 1;
nodes = (
"429 -201 OFFCURVE",
"478 -164 OFFCURVE",
"478 -133 CURVE",
"478 -110 OFFCURVE",
"463 -95 OFFCURVE",
"443 -95 CURVE",
"433 -95 OFFCURVE",
"418 -99 OFFCURVE",
"408 -112 CURVE",
"402 -119 OFFCURVE",
"394 -124 OFFCURVE",
"383 -124 CURVE",
"359 -124 OFFCURVE",
"336 -104 OFFCURVE",
"336 -74 CURVE",
"336 -18 OFFCURVE",
"393 10 OFFCURVE",
"435 37 CURVE",
"493 79 OFFCURVE",
"510 140 OFFCURVE",
"510 211 CURVE",
"510 475 LINE",
"510 504 OFFCURVE",
"490 525 OFFCURVE",
"461 525 CURVE",
"433 525 OFFCURVE",
"413 504 OFFCURVE",
"413 475 CURVE",
"413 211 LINE",
"413 123 OFFCURVE",
"370 80 OFFCURVE",
"290 80 CURVE",
"210 80 OFFCURVE",
"167 123 OFFCURVE",
"167 211 CURVE",
"167 475 LINE",
"167 504 OFFCURVE",
"147 525 OFFCURVE",
"119 525 CURVE",
"91 525 OFFCURVE",
"70 504 OFFCURVE",
"70 475 CURVE",
"70 211 LINE",
"70 73 OFFCURVE",
"150 -9 OFFCURVE",
"290 -9 CURVE",
"302 -9 OFFCURVE",
"315 -8 OFFCURVE",
"326 -7 CURVE",
"419 84 LINE",
"347 63 OFFCURVE",
"254 -2 OFFCURVE",
"254 -88 CURVE",
"254 -156 OFFCURVE",
"309 -201 OFFCURVE",
"375 -201 CURVE"
);
}
);
width = 580;
}
);
leftKerningGroup = u;
leftMetricsKey = u;
note = uogonek;
rightKerningGroup = u;
rightMetricsKey = u;
unicode = 0173;
},
{
glyphname = v;
lastChange = "2018-04-13 14:29:23 +0000";
layers = (
{
anchors = (
{
name = bottom;
position = "{275, 0}";
},
{
name = top;
position = "{275, 510}";
}
);
layerId = "3D0525B3-6B2A-4787-8D58-1F6DD6CCA7DC";
paths = (
{
closed = 1;
nodes = (
"10 525 LINE",
"232 0 LINE",
"306 0 LINE",
"539 525 LINE",
"433 525 LINE",
"262 123 LINE",
"281 132 LINE",
"121 525 LINE"
);
}
);
width = 549;
}
);
leftKerningGroup = v;
leftMetricsKey = v;
note = v;
rightKerningGroup = v;
rightMetricsKey = v;
unicode = 0076;
},
{
glyphname = w;
lastChange = "2018-04-21 00:32:23 +0000";
layers = (
{
anchors = (
{
name = bottom;
position = "{378, 0}";
},
{
name = top;
position = "{378, 505}";
}
);
layerId = "3D0525B3-6B2A-4787-8D58-1F6DD6CCA7DC";
paths = (
{
closed = 1;
nodes = (
"642 525 LINE",
"513 132 LINE",
"540 134 LINE",
"410 442 LINE",
"348 442 LINE",
"219 135 LINE",
"242 133 LINE",
"114 526 LINE",
"10 525 LINE",
"189 0 LINE",
"259 0 LINE",
"385 331 LINE",
"362 334 LINE",
"498 0 LINE",
"569 0 LINE",
"746 525 LINE"
);
}
);
width = 756;
}
);
leftKerningGroup = w;
leftMetricsKey = v;
note = w;
rightKerningGroup = w;
rightMetricsKey = v;
unicode = 0077;
},
{
glyphname = x;
lastChange = "2018-04-13 14:49:54 +0000";
layers = (
{
anchors = (
{
name = bottom;
position = "{282, 0}";
},
{
name = top;
position = "{282, 510}";
}
);
layerId = "3D0525B3-6B2A-4787-8D58-1F6DD6CCA7DC";
paths = (
{
closed = 1;
nodes = (
"10 525 LINE",
"420 0 LINE",
"552 0 LINE",
"146 525 LINE"
);
},
{
closed = 1;
nodes = (
"142 -1 LINE",
"278 190 LINE",
"228 270 LINE",
"21 0 LINE"
);
},
{
closed = 1;
nodes = (
"422 525 LINE",
"289 326 LINE",
"340 254 LINE",
"544 525 LINE"
);
}
);
width = 562;
}
);
leftKerningGroup = x;
note = x;
rightKerningGroup = x;
unicode = 0078;
},
{
glyphname = y;
lastChange = "2018-04-20 17:51:08 +0000";
layers = (
{
anchors = (
{
name = bottom;
position = "{502, 0}";
},
{
name = top;
position = "{297, 510}";
}
);
layerId = "3D0525B3-6B2A-4787-8D58-1F6DD6CCA7DC";
paths = (
{
closed = 1;
nodes = (
"314 79 LINE",
"127 525 LINE",
"10 525 LINE",
"257 -32 LINE"
);
},
{
closed = 1;
nodes = (
"118 -146 OFFCURVE",
"99 -103 OFFCURVE",
"93 -66 CURVE",
"11 -93 LINE",
"18 -159 OFFCURVE",
"72 -229 OFFCURVE",
"143 -229 CURVE",
"227 -229 OFFCURVE",
"266 -176 OFFCURVE",
"297 -102 CURVE SMOOTH",
"563 525 LINE",
"450 525 LINE",
"227 -56 LINE SMOOTH",
"203 -120 OFFCURVE",
"180 -146 OFFCURVE",
"150 -146 CURVE SMOOTH"
);
}
);
width = 563;
}
);
leftKerningGroup = y;
note = y;
rightKerningGroup = y;
unicode = 0079;
},
{
glyphname = z;
lastChange = "2018-04-13 13:11:58 +0000";
layers = (
{
anchors = (
{
name = bottom;
position = "{240, 0}";
},
{
name = top;
position = "{248, 510}";
}
);
layerId = "3D0525B3-6B2A-4787-8D58-1F6DD6CCA7DC";
paths = (
{
closed = 1;
nodes = (
"162 89 LINE",
"166 84 LINE",
"433 441 LINE",
"433 525 LINE",
"50 525 LINE",
"50 436 LINE",
"321 436 LINE",
"321 448 LINE",
"50 86 LINE",
"50 0 LINE",
"439 0 LINE",
"439 89 LINE"
);
}
);
width = 482;
}
);
leftKerningGroup = z;
note = z;
rightKerningGroup = z;
unicode = 007A;
},
{
glyphname = a.ss01;
lastChange = "2018-04-21 00:18:13 +0000";
layers = (
{
anchors = (
{
name = bottom;
position = "{289, 0}";
},
{
name = ogonek;
position = "{534, 0}";
},
{
name = top;
position = "{270, 515}";
}
);
layerId = "3D0525B3-6B2A-4787-8D58-1F6DD6CCA7DC";
paths = (
{
closed = 1;
nodes = (
"189 72 OFFCURVE",
"141 105 OFFCURVE",
"141 162 CURVE",
"141 219 OFFCURVE",
"189 252 OFFCURVE",
"259 252 CURVE",
"330 252 OFFCURVE",
"376 219 OFFCURVE",
"376 162 CURVE",
"376 105 OFFCURVE",
"330 72 OFFCURVE",
"259 72 CURVE"
);
},
{
closed = 1;
nodes = (
"298 -10 OFFCURVE",
"367 34 OFFCURVE",
"394 91 CURVE",
"366 76 LINE",
"375 37 OFFCURVE",
"402 0 OFFCURVE",
"454 0 CURVE",
"502 0 OFFCURVE",
"540 27 OFFCURVE",
"562 55 CURVE",
"525 106 LINE",
"506 94 OFFCURVE",
"493 88 OFFCURVE",
"483 88 CURVE",
"474 88 OFFCURVE",
"463 98 OFFCURVE",
"463 116 CURVE",
"462 351 LINE",
"461 484 OFFCURVE",
"374 536 OFFCURVE",
"264 536 CURVE",
"172 536 OFFCURVE",
"83 488 OFFCURVE",
"50 438 CURVE",
"111 375 LINE",
"157 431 OFFCURVE",
"212 447 OFFCURVE",
"257 447 CURVE",
"315 447 OFFCURVE",
"366 415 OFFCURVE",
"366 346 CURVE",
"366 237 LINE",
"431 180 LINE",
"423 258 OFFCURVE",
"355 333 OFFCURVE",
"248 333 CURVE",
"149 333 OFFCURVE",
"44 272 OFFCURVE",
"44 157 CURVE",
"44 67 OFFCURVE",
"108 -10 OFFCURVE",
"220 -10 CURVE"
);
}
);
width = 582;
}
);
leftKerningGroup = a;
},
{
glyphname = aogonek.ss01;
lastChange = "2018-04-02 16:38:16 +0000";
layers = (
{
anchors = (
{
name = _ogonek;
position = "{534, 0}";
},
{
name = bottom;
position = "{289, 0}";
},
{
name = ogonek;
position = "{534, 0}";
},
{
name = top;
position = "{259, 515}";
}
);
layerId = "3D0525B3-6B2A-4787-8D58-1F6DD6CCA7DC";
paths = (
{
closed = 1;
nodes = (
"191 72 OFFCURVE",
"146 105 OFFCURVE",
"146 162 CURVE",
"146 219 OFFCURVE",
"192 252 OFFCURVE",
"263 252 CURVE",
"332 252 OFFCURVE",
"375 219 OFFCURVE",
"375 162 CURVE",
"375 105 OFFCURVE",
"331 72 OFFCURVE",
"261 72 CURVE"
);
},
{
closed = 1;
nodes = (
"490 -211 OFFCURVE",
"538 -174 OFFCURVE",
"538 -143 CURVE SMOOTH",
"538 -120 OFFCURVE",
"523 -105 OFFCURVE",
"503 -105 CURVE SMOOTH",
"493 -105 OFFCURVE",
"478 -108 OFFCURVE",
"468 -122 CURVE SMOOTH",
"462 -130 OFFCURVE",
"454 -134 OFFCURVE",
"444 -134 CURVE SMOOTH",
"424 -134 OFFCURVE",
"406 -119 OFFCURVE",
"406 -90 CURVE SMOOTH",
"406 -58 OFFCURVE",
"434 -15 OFFCURVE",
"481 2 CURVE SMOOTH",
"518 14 OFFCURVE",
"540 31 OFFCURVE",
"540 60 CURVE",
"540 82 OFFCURVE",
"527 92 OFFCURVE",
"515 92 CURVE",
"500 92 OFFCURVE",
"492 84 OFFCURVE",
"484 84 CURVE",
"472 84 OFFCURVE",
"462 91 OFFCURVE",
"462 113 CURVE",
"462 351 LINE",
"461 487 OFFCURVE",
"372 536 OFFCURVE",
"260 536 CURVE",
"158 536 OFFCURVE",
"92 494 OFFCURVE",
"61 455 CURVE",
"48 441 OFFCURVE",
"46 430 OFFCURVE",
"46 419 CURVE",
"46 396 OFFCURVE",
"70 373 OFFCURVE",
"91 373 CURVE",
"105 373 OFFCURVE",
"118 380 OFFCURVE",
"128 391 CURVE",
"159 431 OFFCURVE",
"212 447 OFFCURVE",
"257 447 CURVE",
"314 447 OFFCURVE",
"365 420 OFFCURVE",
"365 346 CURVE",
"365 237 LINE",
"431 181 LINE",
"424 259 OFFCURVE",
"358 333 OFFCURVE",
"252 333 CURVE",
"151 333 OFFCURVE",
"47 272 OFFCURVE",
"47 163 CURVE",
"47 64 OFFCURVE",
"117 -10 OFFCURVE",
"228 -10 CURVE",
"293 -10 OFFCURVE",
"366 22 OFFCURVE",
"393 82 CURVE",
"365 90 LINE",
"365 35 OFFCURVE",
"392 0 OFFCURVE",
"453 0 CURVE",
"479 40 LINE",
"411 21 OFFCURVE",
"324 -13 OFFCURVE",
"324 -108 CURVE SMOOTH",
"324 -177 OFFCURVE",
"375 -211 OFFCURVE",
"435 -211 CURVE SMOOTH"
);
}
);
width = 552;
}
);
},
{
glyphname = g.ss01;
lastChange = "2018-04-21 00:19:47 +0000";
layers = (
{
anchors = (
{
name = bottom;
position = "{252, 0}";
},
{
name = top;
position = "{251, 499}";
}
);
layerId = "3D0525B3-6B2A-4787-8D58-1F6DD6CCA7DC";
paths = (
{
closed = 1;
nodes = (
"477 453 OFFCURVE",
"379 536 OFFCURVE",
"253 536 CURVE",
"127 536 OFFCURVE",
"30 453 OFFCURVE",
"30 334 CURVE",
"30 216 OFFCURVE",
"127 133 OFFCURVE",
"253 133 CURVE",
"379 133 OFFCURVE",
"477 216 OFFCURVE",
"477 334 CURVE"
);
},
{
closed = 1;
nodes = (
"380 258 OFFCURVE",
"327 210 OFFCURVE",
"253 210 CURVE",
"180 210 OFFCURVE",
"127 258 OFFCURVE",
"127 330 CURVE",
"127 403 OFFCURVE",
"180 451 OFFCURVE",
"253 451 CURVE",
"327 451 OFFCURVE",
"380 403 OFFCURVE",
"380 330 CURVE"
);
},
{
closed = 1;
nodes = (
"390 95 OFFCURVE",
"447 47 OFFCURVE",
"447 -4 CURVE",
"447 -75 OFFCURVE",
"364 -115 OFFCURVE",
"262 -115 CURVE",
"197 -115 OFFCURVE",
"130 -81 OFFCURVE",
"94 -42 CURVE",
"35 -98 LINE",
"54 -136 OFFCURVE",
"146 -204 OFFCURVE",
"249 -204 CURVE",
"420 -204 OFFCURVE",
"544 -115 OFFCURVE",
"544 1 CURVE",
"544 109 OFFCURVE",
"441 180 OFFCURVE",
"260 180 CURVE",
"181 179 LINE",
"197 120 LINE",
"202 99 OFFCURVE",
"220 95 OFFCURVE",
"240 95 CURVE"
);
},
{
closed = 1;
nodes = (
"557 478 LINE",
"501 552 LINE",
"374 474 LINE",
"428 402 LINE"
);
}
);
width = 565;
}
);
},
{
glyphname = ordfeminine;
lastChange = "2018-04-02 16:38:16 +0000";
layers = (
{
layerId = "3D0525B3-6B2A-4787-8D58-1F6DD6CCA7DC";
paths = (
{
closed = 1;
nodes = (
"212 391 OFFCURVE",
"256 462 OFFCURVE",
"256 512 CURVE",
"241 474 LINE",
"241 435 LINE",
"241 416 OFFCURVE",
"258 401 OFFCURVE",
"283 401 CURVE",
"304 401 OFFCURVE",
"324 415 OFFCURVE",
"324 435 CURVE",
"324 681 LINE",
"324 699 OFFCURVE",
"307 715 OFFCURVE",
"283 715 CURVE",
"258 715 OFFCURVE",
"241 698 OFFCURVE",
"241 681 CURVE",
"241 648 LINE",
"256 592 LINE",
"256 679 OFFCURVE",
"216 721 OFFCURVE",
"154 721 CURVE",
"68 721 OFFCURVE",
"14 650 OFFCURVE",
"14 562 CURVE",
"14 469 OFFCURVE",
"56 391 OFFCURVE",
"142 391 CURVE"
);
},
{
closed = 1;
nodes = (
"120 458 OFFCURVE",
"97 505 OFFCURVE",
"97 562 CURVE",
"97 613 OFFCURVE",
"130 654 OFFCURVE",
"170 654 CURVE",
"217 654 OFFCURVE",
"245 616 OFFCURVE",
"245 555 CURVE",
"245 493 OFFCURVE",
"212 458 OFFCURVE",
"171 458 CURVE"
);
}
);
width = 353;
}
);
note = ordfeminine;
unicode = 00AA;
},
{
glyphname = ordmasculine;
lastChange = "2018-04-02 16:38:16 +0000";
layers = (
{
layerId = "3D0525B3-6B2A-4787-8D58-1F6DD6CCA7DC";
paths = (
{
closed = 1;
nodes = (
"332 640 OFFCURVE",
"264 710 OFFCURVE",
"174 710 CURVE",
"84 710 OFFCURVE",
"18 640 OFFCURVE",
"18 549 CURVE",
"18 459 OFFCURVE",
"84 392 OFFCURVE",
"174 392 CURVE",
"264 392 OFFCURVE",
"332 459 OFFCURVE",
"332 549 CURVE"
);
},
{
closed = 1;
nodes = (
"253 500 OFFCURVE",
"222 463 OFFCURVE",
"174 463 CURVE",
"126 463 OFFCURVE",
"96 500 OFFCURVE",
"96 549 CURVE",
"96 601 OFFCURVE",
"126 639 OFFCURVE",
"174 639 CURVE",
"222 639 OFFCURVE",
"253 601 OFFCURVE",
"253 549 CURVE"
);
}
);
width = 349;
}
);
note = ordmasculine;
unicode = 00BA;
},
{
glyphname = pi;
lastChange = "2018-04-02 16:38:16 +0000";
layers = (
{
layerId = "3D0525B3-6B2A-4787-8D58-1F6DD6CCA7DC";
paths = (
{
closed = 1;
nodes = (
"165 0 OFFCURVE",
"182 18 OFFCURVE",
"182 41 CURVE SMOOTH",
"182 429 LINE SMOOTH",
"182 432 OFFCURVE",
"184 434 OFFCURVE",
"187 434 CURVE SMOOTH",
"401 434 LINE SMOOTH",
"404 434 OFFCURVE",
"406 432 OFFCURVE",
"406 429 CURVE SMOOTH",
"406 41 LINE SMOOTH",
"406 18 OFFCURVE",
"423 0 OFFCURVE",
"446 0 CURVE SMOOTH",
"470 0 OFFCURVE",
"487 18 OFFCURVE",
"487 41 CURVE SMOOTH",
"487 429 LINE SMOOTH",
"487 432 OFFCURVE",
"489 434 OFFCURVE",
"492 434 CURVE SMOOTH",
"521 434 LINE SMOOTH",
"544 434 OFFCURVE",
"561 451 OFFCURVE",
"561 474 CURVE SMOOTH",
"561 498 OFFCURVE",
"544 515 OFFCURVE",
"521 515 CURVE SMOOTH",
"68 515 LINE SMOOTH",
"45 515 OFFCURVE",
"27 498 OFFCURVE",
"27 475 CURVE SMOOTH",
"27 452 OFFCURVE",
"45 434 OFFCURVE",
"68 434 CURVE SMOOTH",
"96 434 LINE SMOOTH",
"99 434 OFFCURVE",
"101 432 OFFCURVE",
"101 429 CURVE SMOOTH",
"101 41 LINE SMOOTH",
"101 18 OFFCURVE",
"118 0 OFFCURVE",
"141 0 CURVE SMOOTH"
);
}
);
width = 598;
}
);
note = pi;
unicode = 03C0;
},
{
glyphname = zero;
lastChange = "2018-04-02 16:38:16 +0000";
layers = (
{
anchors = (
{
name = center;
position = "{302, 351}";
}
);
layerId = "3D0525B3-6B2A-4787-8D58-1F6DD6CCA7DC";
paths = (
{
closed = 1;
nodes = (
"472 -10 OFFCURVE",
"561 141 OFFCURVE",
"561 350 CURVE",
"561 559 OFFCURVE",
"472 710 OFFCURVE",
"303 710 CURVE",
"135 710 OFFCURVE",
"46 559 OFFCURVE",
"46 350 CURVE",
"46 141 OFFCURVE",
"135 -10 OFFCURVE",
"303 -10 CURVE"
);
},
{
closed = 1;
nodes = (
"207 88 OFFCURVE",
"150 182 OFFCURVE",
"150 350 CURVE",
"150 518 OFFCURVE",
"207 612 OFFCURVE",
"303 612 CURVE",
"399 612 OFFCURVE",
"456 518 OFFCURVE",
"456 350 CURVE",
"456 182 OFFCURVE",
"399 88 OFFCURVE",
"303 88 CURVE"
);
}
);
width = 607;
}
);
note = zero;
unicode = 0030;
},
{
glyphname = one;
lastChange = "2018-04-20 18:11:46 +0000";
layers = (
{
layerId = "3D0525B3-6B2A-4787-8D58-1F6DD6CCA7DC";
paths = (
{
closed = 1;
nodes = (
"326 49 LINE",
"326 710 LINE",
"274 710 LINE",
"227 662 OFFCURVE",
"156 610 OFFCURVE",
"87 610 CURVE",
"116 516 LINE",
"175 516 OFFCURVE",
"223 551 OFFCURVE",
"254 589 CURVE",
"217 617 LINE",
"217 49 LINE"
);
},
{
closed = 1;
nodes = (
"440 104 LINE",
"106 104 LINE",
"106 0 LINE",
"440 0 LINE"
);
}
);
width = 500;
}
);
note = one;
unicode = 0031;
},
{
glyphname = two;
lastChange = "2018-04-20 22:52:05 +0000";
layers = (
{
layerId = "3D0525B3-6B2A-4787-8D58-1F6DD6CCA7DC";
paths = (
{
closed = 1;
nodes = (
"172 104 LINE",
"192 74 LINE",
"347 247 LINE SMOOTH",
"436 347 OFFCURVE",
"494 430 OFFCURVE",
"494 525 CURVE SMOOTH",
"494 638 OFFCURVE",
"409 710 OFFCURVE",
"300 710 CURVE SMOOTH",
"188 710 OFFCURVE",
"89 649 OFFCURVE",
"51 525 CURVE",
"134 473 LINE",
"166 570 OFFCURVE",
"235 610 OFFCURVE",
"285 610 CURVE",
"342 610 OFFCURVE",
"383 577 OFFCURVE",
"383 517 CURVE",
"383 450 OFFCURVE",
"326 387 OFFCURVE",
"270 323 CURVE SMOOTH",
"60 82 LINE",
"93 0 LINE",
"516 0 LINE",
"516 104 LINE"
);
}
);
width = 548;
}
);
note = two;
unicode = 0032;
},
{
glyphname = three;
lastChange = "2018-04-20 18:13:47 +0000";
layers = (
{
layerId = "3D0525B3-6B2A-4787-8D58-1F6DD6CCA7DC";
paths = (
{
closed = 1;
nodes = (
"12 138 LINE",
"62 55 OFFCURVE",
"124 -10 OFFCURVE",
"243 -10 CURVE",
"369 -10 OFFCURVE",
"486 82 OFFCURVE",
"486 227 CURVE",
"486 350 OFFCURVE",
"390 443 OFFCURVE",
"275 443 CURVE",
"259 443 OFFCURVE",
"228 437 OFFCURVE",
"218 432 CURVE",
"243 406 LINE",
"472 660 LINE",
"452 700 LINE",
"51 700 LINE",
"51 600 LINE",
"349 600 LINE",
"328 631 LINE",
"112 393 LINE",
"142 314 LINE",
"178 329 OFFCURVE",
"222 344 OFFCURVE",
"257 344 CURVE",
"312 344 OFFCURVE",
"378 311 OFFCURVE",
"378 221 CURVE",
"378 132 OFFCURVE",
"310 85 OFFCURVE",
"251 85 CURVE SMOOTH",
"174 85 OFFCURVE",
"126 146 OFFCURVE",
"96 191 CURVE"
);
}
);
width = 521;
}
);
note = three;
unicode = 0033;
},
{
glyphname = four;
lastChange = "2018-04-20 18:15:12 +0000";
layers = (
{
layerId = "3D0525B3-6B2A-4787-8D58-1F6DD6CCA7DC";
paths = (
{
closed = 1;
nodes = (
"436 0 LINE",
"436 700 LINE",
"353 700 LINE",
"20 280 LINE",
"66 190 LINE",
"548 190 LINE",
"548 289 LINE",
"133 289 LINE",
"137 277 LINE",
"357 558 LINE",
"332 564 LINE",
"332 0 LINE"
);
}
);
width = 600;
}
);
note = four;
unicode = 0034;
},
{
glyphname = five;
lastChange = "2018-04-23 16:10:32 +0000";
layers = (
{
layerId = "3D0525B3-6B2A-4787-8D58-1F6DD6CCA7DC";
paths = (
{
closed = 1;
nodes = (
"388 -7 OFFCURVE",
"508 99 OFFCURVE",
"508 239 CURVE",
"508 371 OFFCURVE",
"412 468 OFFCURVE",
"286 468 CURVE",
"225 468 OFFCURVE",
"159 445 OFFCURVE",
"140 426 CURVE",
"165 397 LINE",
"198 619 LINE",
"177 600 LINE",
"487 600 LINE",
"487 700 LINE",
"109 700 LINE",
"68 403 LINE",
"125 326 LINE",
"151 339 OFFCURVE",
"197 368 OFFCURVE",
"265 368 CURVE",
"341 368 OFFCURVE",
"401 323 OFFCURVE",
"401 238 CURVE",
"401 157 OFFCURVE",
"330 92 OFFCURVE",
"251 92 CURVE",
"187 92 OFFCURVE",
"144 129 OFFCURVE",
"99 182 CURVE",
"39 115 LINE",
"83 45 OFFCURVE",
"155 -7 OFFCURVE",
"257 -7 CURVE"
);
}
);
width = 568;
}
);
note = five;
unicode = 0035;
},
{
glyphname = six;
lastChange = "2018-04-21 00:32:37 +0000";
layers = (
{
layerId = "3D0525B3-6B2A-4787-8D58-1F6DD6CCA7DC";
paths = (
{
closed = 1;
nodes = (
"425 0 OFFCURVE",
"517 118 OFFCURVE",
"517 260 CURVE SMOOTH",
"517 372 OFFCURVE",
"411 489 OFFCURVE",
"303 489 CURVE SMOOTH",
"206 489 OFFCURVE",
"143 428 OFFCURVE",
"103 363 CURVE",
"128 260 LINE",
"160 394 OFFCURVE",
"266 575 OFFCURVE",
"386 702 CURVE",
"382 712 LINE",
"257 712 LINE",
"168 597 OFFCURVE",
"35 396 OFFCURVE",
"35 238 CURVE",
"35 100 OFFCURVE",
"144 0 OFFCURVE",
"278 0 CURVE"
);
},
{
closed = 1;
nodes = (
"192 100 OFFCURVE",
"140 170 OFFCURVE",
"140 248 CURVE SMOOTH",
"140 321 OFFCURVE",
"193 389 OFFCURVE",
"280 389 CURVE SMOOTH",
"357 389 OFFCURVE",
"409 316 OFFCURVE",
"409 247 CURVE SMOOTH",
"409 154 OFFCURVE",
"348 100 OFFCURVE",
"278 100 CURVE"
);
}
);
width = 544;
}
);
note = six;
unicode = 0036;
},
{
glyphname = seven;
lastChange = "2018-04-23 16:10:00 +0000";
layers = (
{
layerId = "3D0525B3-6B2A-4787-8D58-1F6DD6CCA7DC";
paths = (
{
closed = 1;
nodes = (
"228 0 LINE",
"507 631 LINE",
"493 700 LINE",
"60 700 LINE",
"60 610 LINE",
"414 610 LINE",
"402 632 LINE",
"122 0 LINE"
);
}
);
width = 549;
}
);
note = seven;
unicode = 0037;
},
{
glyphname = eight;
lastChange = "2018-04-20 18:23:06 +0000";
layers = (
{
layerId = "3D0525B3-6B2A-4787-8D58-1F6DD6CCA7DC";
paths = (
{
closed = 1;
nodes = (
"445 384 OFFCURVE",
"508 425 OFFCURVE",
"508 509 CURVE SMOOTH",
"508 613 OFFCURVE",
"412 700 OFFCURVE",
"289 700 CURVE",
"166 700 OFFCURVE",
"70 613 OFFCURVE",
"70 509 CURVE SMOOTH",
"70 432 OFFCURVE",
"126 385 OFFCURVE",
"182 364 CURVE",
"188 385 LINE",
"123 356 OFFCURVE",
"53 301 OFFCURVE",
"53 200 CURVE SMOOTH",
"53 88 OFFCURVE",
"157 -3 OFFCURVE",
"289 -3 CURVE",
"422 -3 OFFCURVE",
"526 88 OFFCURVE",
"526 200 CURVE SMOOTH",
"526 278 OFFCURVE",
"471 349 OFFCURVE",
"392 381 CURVE",
"395 364 LINE"
);
},
{
closed = 1;
nodes = (
"177 559 OFFCURVE",
"224 600 OFFCURVE",
"289 600 CURVE",
"354 600 OFFCURVE",
"401 559 OFFCURVE",
"401 508 CURVE",
"401 450 OFFCURVE",
"351 409 OFFCURVE",
"289 409 CURVE SMOOTH",
"227 409 OFFCURVE",
"177 450 OFFCURVE",
"177 508 CURVE"
);
},
{
closed = 1;
nodes = (
"215 97 OFFCURVE",
"160 143 OFFCURVE",
"160 202 CURVE",
"160 274 OFFCURVE",
"218 323 OFFCURVE",
"289 323 CURVE SMOOTH",
"361 323 OFFCURVE",
"419 274 OFFCURVE",
"419 202 CURVE",
"419 143 OFFCURVE",
"364 97 OFFCURVE",
"289 97 CURVE"
);
}
);
width = 579;
}
);
note = eight;
unicode = 0038;
},
{
glyphname = nine;
lastChange = "2018-04-21 00:32:40 +0000";
layers = (
{
layerId = "3D0525B3-6B2A-4787-8D58-1F6DD6CCA7DC";
paths = (
{
closed = 1;
nodes = (
"139 712 OFFCURVE",
"35 608 OFFCURVE",
"35 462 CURVE SMOOTH",
"35 354 OFFCURVE",
"129 243 OFFCURVE",
"250 243 CURVE",
"350 243 OFFCURVE",
"405 299 OFFCURVE",
"445 369 CURVE",
"424 452 LINE",
"392 318 OFFCURVE",
"286 137 OFFCURVE",
"166 10 CURVE",
"170 0 LINE",
"296 0 LINE",
"385 115 OFFCURVE",
"517 316 OFFCURVE",
"517 474 CURVE",
"517 612 OFFCURVE",
"408 712 OFFCURVE",
"274 712 CURVE"
);
},
{
closed = 1;
nodes = (
"360 612 OFFCURVE",
"412 547 OFFCURVE",
"412 474 CURVE SMOOTH",
"412 406 OFFCURVE",
"359 343 OFFCURVE",
"272 343 CURVE SMOOTH",
"195 343 OFFCURVE",
"143 411 OFFCURVE",
"143 475 CURVE SMOOTH",
"143 562 OFFCURVE",
"204 612 OFFCURVE",
"274 612 CURVE"
);
}
);
width = 550;
}
);
note = nine;
unicode = 0039;
},
{
glyphname = zero.dnom;
lastChange = "2018-04-02 16:38:16 +0000";
layers = (
{
layerId = "3D0525B3-6B2A-4787-8D58-1F6DD6CCA7DC";
paths = (
{
closed = 1;
nodes = (
"271 -10 OFFCURVE",
"334 71 OFFCURVE",
"334 174 CURVE",
"334 278 OFFCURVE",
"276 359 OFFCURVE",
"183 359 CURVE",
"89 359 OFFCURVE",
"30 278 OFFCURVE",
"30 174 CURVE",
"30 71 OFFCURVE",
"93 -10 OFFCURVE",
"183 -10 CURVE"
);
},
{
closed = 1;
nodes = (
"137 64 OFFCURVE",
"112 110 OFFCURVE",
"112 174 CURVE",
"112 237 OFFCURVE",
"138 285 OFFCURVE",
"183 285 CURVE",
"228 285 OFFCURVE",
"252 237 OFFCURVE",
"252 174 CURVE",
"252 110 OFFCURVE",
"227 64 OFFCURVE",
"183 64 CURVE"
);
}
);
width = 364;
}
);
},
{
glyphname = one.dnom;
lastChange = "2018-04-02 16:38:16 +0000";
layers = (
{
layerId = "3D0525B3-6B2A-4787-8D58-1F6DD6CCA7DC";
paths = (
{
closed = 1;
nodes = (
"195 -2 OFFCURVE",
"211 14 OFFCURVE",
"211 37 CURVE",
"211 304 LINE",
"211 329 OFFCURVE",
"194 346 OFFCURVE",
"171 346 CURVE",
"163 347 OFFCURVE",
"157 345 OFFCURVE",
"145 340 CURVE",
"57 288 LINE",
"43 280 OFFCURVE",
"36 268 OFFCURVE",
"36 256 CURVE SMOOTH",
"36 239 OFFCURVE",
"49 216 OFFCURVE",
"72 216 CURVE SMOOTH",
"80 216 OFFCURVE",
"90 220 OFFCURVE",
"98 225 CURVE",
"142 254 LINE",
"136 272 LINE",
"136 37 LINE",
"136 14 OFFCURVE",
"151 -2 OFFCURVE",
"173 -2 CURVE"
);
}
);
width = 282;
}
);
},
{
glyphname = two.dnom;
lastChange = "2018-04-02 16:38:16 +0000";
layers = (
{
layerId = "3D0525B3-6B2A-4787-8D58-1F6DD6CCA7DC";
paths = (
{
closed = 1;
nodes = (
"261 0 LINE",
"281 0 OFFCURVE",
"296 14 OFFCURVE",
"296 34 CURVE",
"296 53 OFFCURVE",
"281 67 OFFCURVE",
"261 67 CURVE",
"142 67 LINE",
"148 58 LINE",
"216 123 LINE",
"253 162 OFFCURVE",
"293 202 OFFCURVE",
"293 251 CURVE",
"293 304 OFFCURVE",
"258 361 OFFCURVE",
"176 361 CURVE",
"114 361 OFFCURVE",
"53 316 OFFCURVE",
"53 277 CURVE",
"53 260 OFFCURVE",
"66 244 OFFCURVE",
"91 244 CURVE",
"102 244 OFFCURVE",
"111 248 OFFCURVE",
"118 258 CURVE",
"129 277 OFFCURVE",
"148 289 OFFCURVE",
"167 289 CURVE",
"193 289 OFFCURVE",
"209 274 OFFCURVE",
"209 249 CURVE",
"209 216 OFFCURVE",
"177 182 OFFCURVE",
"144 148 CURVE",
"66 71 LINE",
"56 60 OFFCURVE",
"50 51 OFFCURVE",
"50 38 CURVE",
"50 15 OFFCURVE",
"66 0 OFFCURVE",
"89 0 CURVE"
);
}
);
width = 346;
}
);
},
{
glyphname = three.dnom;
lastChange = "2018-04-02 16:38:16 +0000";
layers = (
{
layerId = "3D0525B3-6B2A-4787-8D58-1F6DD6CCA7DC";
paths = (
{
closed = 1;
nodes = (
"231 -10 OFFCURVE",
"297 33 OFFCURVE",
"297 111 CURVE",
"297 171 OFFCURVE",
"259 216 OFFCURVE",
"186 216 CURVE",
"177 216 OFFCURVE",
"164 211 OFFCURVE",
"160 209 CURVE",
"173 202 LINE",
"272 284 LINE",
"280 291 OFFCURVE",
"283 302 OFFCURVE",
"283 313 CURVE",
"282 334 OFFCURVE",
"266 350 OFFCURVE",
"244 350 CURVE",
"94 350 LINE",
"74 350 OFFCURVE",
"59 336 OFFCURVE",
"59 317 CURVE",
"59 297 OFFCURVE",
"74 282 OFFCURVE",
"94 282 CURVE",
"209 282 LINE",
"190 288 LINE",
"88 200 LINE SMOOTH",
"80 194 OFFCURVE",
"78 183 OFFCURVE",
"78 174 CURVE",
"78 157 OFFCURVE",
"93 142 OFFCURVE",
"109 143 CURVE",
"131 145 OFFCURVE",
"145 155 OFFCURVE",
"165 155 CURVE",
"198 155 OFFCURVE",
"222 138 OFFCURVE",
"222 110 CURVE",
"222 73 OFFCURVE",
"191 56 OFFCURVE",
"159 56 CURVE",
"136 56 OFFCURVE",
"119 66 OFFCURVE",
"111 71 CURVE",
"102 78 OFFCURVE",
"97 79 OFFCURVE",
"90 79 CURVE",
"70 79 OFFCURVE",
"56 62 OFFCURVE",
"56 43 CURVE",
"56 30 OFFCURVE",
"62 19 OFFCURVE",
"74 12 CURVE SMOOTH",
"94 -2 OFFCURVE",
"126 -10 OFFCURVE",
"165 -10 CURVE"
);
}
);
width = 339;
}
);
},
{
glyphname = four.dnom;
lastChange = "2018-04-02 16:38:16 +0000";
layers = (
{
layerId = "3D0525B3-6B2A-4787-8D58-1F6DD6CCA7DC";
paths = (
{
closed = 1;
nodes = (
"264 -2 OFFCURVE",
"279 14 OFFCURVE",
"279 36 CURVE",
"279 314 LINE",
"279 338 OFFCURVE",
"262 356 OFFCURVE",
"238 356 CURVE",
"228 356 OFFCURVE",
"213 353 OFFCURVE",
"201 338 CURVE",
"45 150 LINE",
"38 142 OFFCURVE",
"35 132 OFFCURVE",
"35 123 CURVE",
"35 99 OFFCURVE",
"55 81 OFFCURVE",
"79 81 CURVE",
"305 81 LINE",
"327 81 OFFCURVE",
"340 93 OFFCURVE",
"340 115 CURVE",
"340 136 OFFCURVE",
"327 148 OFFCURVE",
"305 149 CURVE",
"113 149 LINE",
"110 130 LINE",
"236 276 LINE",
"204 290 LINE",
"204 36 LINE",
"204 14 OFFCURVE",
"220 -2 OFFCURVE",
"242 -2 CURVE"
);
}
);
width = 390;
}
);
},
{
glyphname = five.dnom;
lastChange = "2018-04-02 16:38:16 +0000";
layers = (
{
layerId = "3D0525B3-6B2A-4787-8D58-1F6DD6CCA7DC";
paths = (
{
closed = 1;
nodes = (
"240 -9 OFFCURVE",
"306 29 OFFCURVE",
"306 121 CURVE",
"306 197 OFFCURVE",
"256 235 OFFCURVE",
"199 235 CURVE",
"155 235 OFFCURVE",
"126 219 OFFCURVE",
"106 189 CURVE",
"137 172 LINE",
"152 297 LINE",
"125 276 LINE",
"264 276 LINE",
"285 276 OFFCURVE",
"300 291 OFFCURVE",
"300 312 CURVE",
"300 330 OFFCURVE",
"285 345 OFFCURVE",
"264 345 CURVE",
"113 345 LINE",
"97 345 OFFCURVE",
"86 334 OFFCURVE",
"83 323 CURVE",
"63 182 LINE",
"60 166 OFFCURVE",
"68 142 OFFCURVE",
"98 142 CURVE",
"117 142 OFFCURVE",
"132 166 OFFCURVE",
"168 166 CURVE",
"205 166 OFFCURVE",
"226 141 OFFCURVE",
"226 114 CURVE",
"226 80 OFFCURVE",
"199 59 OFFCURVE",
"164 59 CURVE",
"137 59 OFFCURVE",
"117 68 OFFCURVE",
"104 78 CURVE",
"96 85 OFFCURVE",
"89 87 OFFCURVE",
"81 87 CURVE",
"58 87 OFFCURVE",
"49 75 OFFCURVE",
"49 57 CURVE",
"49 42 OFFCURVE",
"56 29 OFFCURVE",
"67 20 CURVE",
"91 1 OFFCURVE",
"126 -9 OFFCURVE",
"155 -9 CURVE"
);
}
);
width = 358;
}
);
},
{
glyphname = six.dnom;
lastChange = "2018-04-02 16:38:16 +0000";
layers = (
{
layerId = "3D0525B3-6B2A-4787-8D58-1F6DD6CCA7DC";
paths = (
{
closed = 1;
nodes = (
"233 -11 OFFCURVE",
"293 42 OFFCURVE",
"293 118 CURVE",
"293 175 OFFCURVE",
"250 223 OFFCURVE",
"181 223 CURVE",
"130 223 OFFCURVE",
"86 184 OFFCURVE",
"64 117 CURVE",
"116 178 LINE",
"120 250 OFFCURVE",
"169 285 OFFCURVE",
"222 285 CURVE",
"268 278 OFFCURVE",
"276 296 OFFCURVE",
"276 318 CURVE",
"276 344 OFFCURVE",
"255 358 OFFCURVE",
"208 358 CURVE",
"109 358 OFFCURVE",
"30 263 OFFCURVE",
"30 139 CURVE",
"30 62 OFFCURVE",
"79 -11 OFFCURVE",
"162 -11 CURVE"
);
},
{
closed = 1;
nodes = (
"130 52 OFFCURVE",
"109 77 OFFCURVE",
"109 108 CURVE",
"109 136 OFFCURVE",
"131 161 OFFCURVE",
"163 161 CURVE",
"192 161 OFFCURVE",
"214 136 OFFCURVE",
"214 107 CURVE",
"214 76 OFFCURVE",
"189 52 OFFCURVE",
"162 52 CURVE"
);
}
);
width = 323;
}
);
},
{
glyphname = seven.dnom;
lastChange = "2018-04-02 16:38:16 +0000";
layers = (
{
layerId = "3D0525B3-6B2A-4787-8D58-1F6DD6CCA7DC";
paths = (
{
closed = 1;
nodes = (
"152 -4 OFFCURVE",
"166 13 OFFCURVE",
"172 27 CURVE",
"285 275 LINE",
"288 282 OFFCURVE",
"290 289 OFFCURVE",
"290 297 CURVE",
"290 323 OFFCURVE",
"267 344 OFFCURVE",
"239 344 CURVE",
"79 344 LINE",
"57 344 OFFCURVE",
"44 332 OFFCURVE",
"44 311 CURVE",
"44 289 OFFCURVE",
"57 276 OFFCURVE",
"79 276 CURVE",
"232 276 LINE",
"220 307 LINE",
"103 51 LINE",
"99 44 OFFCURVE",
"97 37 OFFCURVE",
"97 29 CURVE",
"97 9 OFFCURVE",
"116 -4 OFFCURVE",
"133 -4 CURVE"
);
}
);
width = 327;
}
);
},
{
glyphname = eight.dnom;
lastChange = "2018-04-02 16:38:16 +0000";
layers = (
{
layerId = "3D0525B3-6B2A-4787-8D58-1F6DD6CCA7DC";
paths = (
{
closed = 1;
nodes = (
"249 -11 OFFCURVE",
"309 38 OFFCURVE",
"309 97 CURVE",
"309 135 OFFCURVE",
"279 170 OFFCURVE",
"236 188 CURVE",
"237 177 LINE",
"264 188 OFFCURVE",
"300 212 OFFCURVE",
"300 255 CURVE",
"300 313 OFFCURVE",
"245 358 OFFCURVE",
"177 358 CURVE",
"108 358 OFFCURVE",
"54 313 OFFCURVE",
"54 255 CURVE",
"54 214 OFFCURVE",
"85 188 OFFCURVE",
"117 177 CURVE",
"120 188 LINE",
"86 173 OFFCURVE",
"44 145 OFFCURVE",
"44 97 CURVE",
"44 38 OFFCURVE",
"104 -11 OFFCURVE",
"177 -11 CURVE"
);
},
{
closed = 1;
nodes = (
"150 213 OFFCURVE",
"129 230 OFFCURVE",
"129 253 CURVE",
"129 277 OFFCURVE",
"149 294 OFFCURVE",
"177 294 CURVE",
"203 294 OFFCURVE",
"225 277 OFFCURVE",
"225 253 CURVE",
"225 230 OFFCURVE",
"202 213 OFFCURVE",
"177 213 CURVE"
);
},
{
closed = 1;
nodes = (
"146 52 OFFCURVE",
"121 75 OFFCURVE",
"121 104 CURVE",
"121 132 OFFCURVE",
"147 151 OFFCURVE",
"177 151 CURVE",
"206 151 OFFCURVE",
"233 132 OFFCURVE",
"233 104 CURVE",
"233 75 OFFCURVE",
"208 52 OFFCURVE",
"177 52 CURVE"
);
}
);
width = 355;
}
);
},
{
glyphname = nine.dnom;
lastChange = "2018-04-02 16:38:16 +0000";
layers = (
{
layerId = "3D0525B3-6B2A-4787-8D58-1F6DD6CCA7DC";
paths = (
{
closed = 1;
nodes = (
"219 -12 OFFCURVE",
"299 84 OFFCURVE",
"299 207 CURVE",
"299 284 OFFCURVE",
"250 358 OFFCURVE",
"166 358 CURVE",
"95 358 OFFCURVE",
"36 304 OFFCURVE",
"36 228 CURVE",
"36 171 OFFCURVE",
"79 123 OFFCURVE",
"147 123 CURVE",
"198 123 OFFCURVE",
"243 162 OFFCURVE",
"264 229 CURVE",
"213 168 LINE",
"208 97 OFFCURVE",
"160 61 OFFCURVE",
"106 62 CURVE",
"61 68 OFFCURVE",
"52 50 OFFCURVE",
"52 28 CURVE",
"52 3 OFFCURVE",
"74 -12 OFFCURVE",
"121 -12 CURVE"
);
},
{
closed = 1;
nodes = (
"136 185 OFFCURVE",
"115 210 OFFCURVE",
"115 239 CURVE",
"115 271 OFFCURVE",
"139 294 OFFCURVE",
"167 294 CURVE",
"198 294 OFFCURVE",
"220 270 OFFCURVE",
"220 238 CURVE",
"220 210 OFFCURVE",
"198 185 OFFCURVE",
"165 185 CURVE"
);
}
);
width = 331;
}
);
},
{
glyphname = fraction;
lastChange = "2018-04-02 16:38:16 +0000";
layers = (
{
layerId = "3D0525B3-6B2A-4787-8D58-1F6DD6CCA7DC";
paths = (
{
closed = 1;
nodes = (
"77 -2 OFFCURVE",
"89 5 OFFCURVE",
"98 17 CURVE SMOOTH",
"508 637 LINE SMOOTH",
"512 645 OFFCURVE",
"516 654 OFFCURVE",
"516 662 CURVE SMOOTH",
"516 687 OFFCURVE",
"492 702 OFFCURVE",
"473 702 CURVE SMOOTH",
"460 702 OFFCURVE",
"448 695 OFFCURVE",
"439 683 CURVE SMOOTH",
"29 63 LINE SMOOTH",
"25 55 OFFCURVE",
"21 46 OFFCURVE",
"21 38 CURVE SMOOTH",
"21 13 OFFCURVE",
"45 -2 OFFCURVE",
"64 -2 CURVE SMOOTH"
);
}
);
width = 536;
}
);
note = fraction;
unicode = 2044;
},
{
glyphname = asterisk;
lastChange = "2018-04-02 16:38:16 +0000";
layers = (
{
layerId = "3D0525B3-6B2A-4787-8D58-1F6DD6CCA7DC";
paths = (
{
closed = 1;
nodes = (
"188 389 OFFCURVE",
"201 402 OFFCURVE",
"199 420 CURVE SMOOTH",
"191 504 LINE",
"190 508 OFFCURVE",
"193 510 OFFCURVE",
"197 508 CURVE SMOOTH",
"267 457 LINE SMOOTH",
"281 447 OFFCURVE",
"299 451 OFFCURVE",
"308 466 CURVE SMOOTH",
"317 481 OFFCURVE",
"311 499 OFFCURVE",
"294 507 CURVE SMOOTH",
"216 542 LINE",
"212 543 OFFCURVE",
"212 547 OFFCURVE",
"216 548 CURVE",
"294 584 LINE SMOOTH",
"310 591 OFFCURVE",
"318 607 OFFCURVE",
"308 624 CURVE SMOOTH",
"299 640 OFFCURVE",
"281 643 OFFCURVE",
"267 633 CURVE SMOOTH",
"197 583 LINE SMOOTH",
"193 581 OFFCURVE",
"190 583 OFFCURVE",
"191 587 CURVE",
"199 671 LINE SMOOTH",
"201 688 OFFCURVE",
"189 702 OFFCURVE",
"173 702 CURVE SMOOTH",
"155 702 OFFCURVE",
"142 688 OFFCURVE",
"144 671 CURVE SMOOTH",
"152 587 LINE",
"153 583 OFFCURVE",
"150 581 OFFCURVE",
"147 583 CURVE SMOOTH",
"77 634 LINE SMOOTH",
"62 643 OFFCURVE",
"45 640 OFFCURVE",
"36 625 CURVE SMOOTH",
"27 610 OFFCURVE",
"32 592 OFFCURVE",
"49 584 CURVE SMOOTH",
"127 548 LINE",
"131 547 OFFCURVE",
"131 543 OFFCURVE",
"127 542 CURVE",
"49 507 LINE SMOOTH",
"34 500 OFFCURVE",
"25 484 OFFCURVE",
"36 466 CURVE SMOOTH",
"44 451 OFFCURVE",
"62 447 OFFCURVE",
"77 458 CURVE SMOOTH",
"147 508 LINE SMOOTH",
"150 510 OFFCURVE",
"153 508 OFFCURVE",
"152 504 CURVE",
"144 420 LINE SMOOTH",
"142 402 OFFCURVE",
"154 389 OFFCURVE",
"171 389 CURVE SMOOTH"
);
}
);
width = 342;
}
);
note = asterisk;
unicode = 002A;
},
{
glyphname = backslash;
lastChange = "2018-04-02 16:38:16 +0000";
layers = (
{
layerId = "3D0525B3-6B2A-4787-8D58-1F6DD6CCA7DC";
paths = (
{
closed = 1;
nodes = (
"503 -134 OFFCURVE",
"529 -119 OFFCURVE",
"529 -93 CURVE SMOOTH",
"529 -86 OFFCURVE",
"527 -80 OFFCURVE",
"524 -73 CURVE SMOOTH",
"104 775 LINE SMOOTH",
"96 791 OFFCURVE",
"83 802 OFFCURVE",
"65 802 CURVE SMOOTH",
"45 802 OFFCURVE",
"22 785 OFFCURVE",
"22 761 CURVE SMOOTH",
"22 755 OFFCURVE",
"24 748 OFFCURVE",
"27 741 CURVE SMOOTH",
"446 -107 LINE SMOOTH",
"454 -123 OFFCURVE",
"467 -134 OFFCURVE",
"485 -134 CURVE SMOOTH"
);
}
);
width = 551;
}
);
note = backslash;
unicode = 005C;
},
{
glyphname = periodcentered;
lastChange = "2018-04-02 16:38:16 +0000";
layers = (
{
layerId = "3D0525B3-6B2A-4787-8D58-1F6DD6CCA7DC";
paths = (
{
closed = 1;
nodes = (
"111 243 LINE SMOOTH",
"144 243 OFFCURVE",
"162 262 OFFCURVE",
"162 295 CURVE SMOOTH",
"162 313 LINE SMOOTH",
"162 346 OFFCURVE",
"144 365 OFFCURVE",
"111 365 CURVE SMOOTH",
"100 365 LINE SMOOTH",
"67 365 OFFCURVE",
"49 346 OFFCURVE",
"49 313 CURVE SMOOTH",
"49 295 LINE SMOOTH",
"49 262 OFFCURVE",
"67 243 OFFCURVE",
"100 243 CURVE SMOOTH"
);
}
);
width = 212;
}
);
note = periodcentered;
unicode = 00B7;
},
{
glyphname = bullet;
lastChange = "2018-04-02 16:38:16 +0000";
layers = (
{
layerId = "3D0525B3-6B2A-4787-8D58-1F6DD6CCA7DC";
paths = (
{
closed = 1;
nodes = (
"248 216 OFFCURVE",
"310 276 OFFCURVE",
"310 351 CURVE SMOOTH",
"310 429 OFFCURVE",
"247 488 OFFCURVE",
"173 488 CURVE SMOOTH",
"99 488 OFFCURVE",
"37 429 OFFCURVE",
"37 351 CURVE SMOOTH",
"37 276 OFFCURVE",
"98 216 OFFCURVE",
"173 216 CURVE SMOOTH"
);
}
);
width = 346;
}
);
note = bullet;
unicode = 2022;
},
{
glyphname = colon;
lastChange = "2018-04-21 00:33:26 +0000";
layers = (
{
layerId = "3D0525B3-6B2A-4787-8D58-1F6DD6CCA7DC";
paths = (
{
closed = 1;
nodes = (
"191 385 OFFCURVE",
"213 422 OFFCURVE",
"213 460 CURVE SMOOTH",
"213 505 OFFCURVE",
"191 535 OFFCURVE",
"144 535 CURVE SMOOTH",
"97 535 OFFCURVE",
"75 498 OFFCURVE",
"75 460 CURVE SMOOTH",
"75 415 OFFCURVE",
"97 385 OFFCURVE",
"144 385 CURVE SMOOTH"
);
},
{
closed = 1;
nodes = (
"191 -11 OFFCURVE",
"213 26 OFFCURVE",
"213 64 CURVE SMOOTH",
"213 109 OFFCURVE",
"191 139 OFFCURVE",
"144 139 CURVE SMOOTH",
"97 139 OFFCURVE",
"75 102 OFFCURVE",
"75 64 CURVE SMOOTH",
"75 19 OFFCURVE",
"97 -11 OFFCURVE",
"144 -11 CURVE SMOOTH"
);
}
);
width = 288;
}
);
note = colon;
unicode = 003A;
},
{
glyphname = comma;
lastChange = "2018-04-21 00:20:43 +0000";
layers = (
{
layerId = "3D0525B3-6B2A-4787-8D58-1F6DD6CCA7DC";
paths = (
{
closed = 1;
nodes = (
"244 81 OFFCURVE",
"196 112 OFFCURVE",
"143 112 CURVE",
"108 112 OFFCURVE",
"64 97 OFFCURVE",
"36 70 CURVE",
"74 -1 LINE",
"83 3 OFFCURVE",
"93 7 OFFCURVE",
"108 7 CURVE SMOOTH",
"127 7 OFFCURVE",
"143 -9 OFFCURVE",
"143 -32 CURVE SMOOTH",
"143 -61 OFFCURVE",
"105 -106 OFFCURVE",
"65 -121 CURVE",
"65 -126 LINE",
"116 -173 LINE",
"176 -154 OFFCURVE",
"244 -69 OFFCURVE",
"244 4 CURVE SMOOTH"
);
}
);
width = 254;
}
);
leftKerningGroup = comma;
note = comma;
unicode = 002C;
},
{
glyphname = exclam;
lastChange = "2018-04-02 16:38:16 +0000";
layers = (
{
layerId = "3D0525B3-6B2A-4787-8D58-1F6DD6CCA7DC";
paths = (
{
closed = 1;
nodes = (
"136 211 OFFCURVE",
"146 222 OFFCURVE",
"148 243 CURVE SMOOTH",
"170 639 LINE SMOOTH",
"172 673 OFFCURVE",
"151 700 OFFCURVE",
"117 700 CURVE SMOOTH",
"84 700 OFFCURVE",
"63 673 OFFCURVE",
"65 639 CURVE SMOOTH",
"88 243 LINE SMOOTH",
"89 222 OFFCURVE",
"100 211 OFFCURVE",
"118 211 CURVE SMOOTH"
);
},
{
closed = 1;
nodes = (
"123 0 LINE SMOOTH",
"156 0 OFFCURVE",
"174 19 OFFCURVE",
"174 52 CURVE SMOOTH",
"174 70 LINE SMOOTH",
"174 103 OFFCURVE",
"156 122 OFFCURVE",
"123 122 CURVE SMOOTH",
"113 122 LINE SMOOTH",
"80 122 OFFCURVE",
"62 103 OFFCURVE",
"62 70 CURVE SMOOTH",
"62 52 LINE SMOOTH",
"62 19 OFFCURVE",
"80 0 OFFCURVE",
"113 0 CURVE SMOOTH"
);
}
);
width = 236;
}
);
note = exclam;
unicode = 0021;
},
{
glyphname = numbersign;
lastChange = "2018-04-02 16:38:16 +0000";
layers = (
{
layerId = "3D0525B3-6B2A-4787-8D58-1F6DD6CCA7DC";
paths = (
{
closed = 1;
nodes = (
"177 0 OFFCURVE",
"194 14 OFFCURVE",
"197 36 CURVE SMOOTH",
"301 643 LINE SMOOTH",
"307 675 OFFCURVE",
"288 700 OFFCURVE",
"258 700 CURVE SMOOTH",
"236 700 OFFCURVE",
"219 686 OFFCURVE",
"215 664 CURVE SMOOTH",
"111 57 LINE SMOOTH",
"106 25 OFFCURVE",
"125 0 OFFCURVE",
"154 0 CURVE SMOOTH"
);
},
{
closed = 1;
nodes = (
"601 448 LINE SMOOTH",
"627 448 OFFCURVE",
"647 465 OFFCURVE",
"647 490 CURVE SMOOTH",
"647 516 OFFCURVE",
"627 536 OFFCURVE",
"601 536 CURVE SMOOTH",
"115 536 LINE SMOOTH",
"89 536 OFFCURVE",
"69 518 OFFCURVE",
"69 494 CURVE SMOOTH",
"69 467 OFFCURVE",
"89 448 OFFCURVE",
"115 448 CURVE SMOOTH"
);
},
{
closed = 1;
nodes = (
"442 0 OFFCURVE",
"459 14 OFFCURVE",
"463 36 CURVE SMOOTH",
"567 643 LINE SMOOTH",
"572 675 OFFCURVE",
"553 700 OFFCURVE",
"524 700 CURVE SMOOTH",
"501 700 OFFCURVE",
"484 686 OFFCURVE",
"481 664 CURVE SMOOTH",
"377 57 LINE SMOOTH",
"371 25 OFFCURVE",
"390 0 OFFCURVE",
"421 0 CURVE SMOOTH"
);
},
{
closed = 1;
nodes = (
"564 168 LINE SMOOTH",
"590 168 OFFCURVE",
"610 186 OFFCURVE",
"610 210 CURVE SMOOTH",
"610 237 OFFCURVE",
"590 256 OFFCURVE",
"564 256 CURVE SMOOTH",
"77 256 LINE SMOOTH",
"51 256 OFFCURVE",
"31 239 OFFCURVE",
"31 214 CURVE SMOOTH",
"31 188 OFFCURVE",
"51 168 OFFCURVE",
"77 168 CURVE SMOOTH"
);
}
);
width = 678;
}
);
note = numbersign;
unicode = 0023;
},
{
glyphname = period;
lastChange = "2018-04-21 00:33:51 +0000";
layers = (
{
layerId = "3D0525B3-6B2A-4787-8D58-1F6DD6CCA7DC";
paths = (
{
closed = 1;
nodes = (
"161 -11 OFFCURVE",
"183 26 OFFCURVE",
"183 64 CURVE SMOOTH",
"183 109 OFFCURVE",
"161 139 OFFCURVE",
"114 139 CURVE SMOOTH",
"67 139 OFFCURVE",
"45 102 OFFCURVE",
"45 64 CURVE SMOOTH",
"45 19 OFFCURVE",
"67 -11 OFFCURVE",
"114 -11 CURVE SMOOTH"
);
}
);
width = 228;
}
);
leftKerningGroup = period;
note = period;
unicode = 002E;
},
{
glyphname = question;
lastChange = "2018-04-02 16:38:16 +0000";
layers = (
{
layerId = "3D0525B3-6B2A-4787-8D58-1F6DD6CCA7DC";
paths = (
{
closed = 1;
nodes = (
"173 231 LINE SMOOTH",
"173 203 OFFCURVE",
"193 182 OFFCURVE",
"221 182 CURVE SMOOTH",
"250 182 OFFCURVE",
"270 203 OFFCURVE",
"270 231 CURVE SMOOTH",
"270 294 LINE SMOOTH",
"267 294 OFFCURVE",
"265 294 OFFCURVE",
"268 295 CURVE",
"383 307 OFFCURVE",
"471 388 OFFCURVE",
"471 511 CURVE SMOOTH",
"471 643 OFFCURVE",
"368 739 OFFCURVE",
"239 739 CURVE SMOOTH",
"165 739 OFFCURVE",
"98 707 OFFCURVE",
"52 656 CURVE SMOOTH",
"30 633 OFFCURVE",
"33 603 OFFCURVE",
"59 584 CURVE SMOOTH",
"84 566 OFFCURVE",
"110 577 OFFCURVE",
"127 593 CURVE SMOOTH",
"155 623 OFFCURVE",
"195 642 OFFCURVE",
"239 642 CURVE SMOOTH",
"314 642 OFFCURVE",
"373 588 OFFCURVE",
"373 511 CURVE SMOOTH",
"373 420 OFFCURVE",
"306 375 OFFCURVE",
"222 373 CURVE SMOOTH",
"194 373 OFFCURVE",
"173 352 OFFCURVE",
"173 324 CURVE SMOOTH"
);
},
{
closed = 1;
nodes = (
"229 0 LINE SMOOTH",
"262 0 OFFCURVE",
"279 19 OFFCURVE",
"279 52 CURVE SMOOTH",
"279 70 LINE SMOOTH",
"279 103 OFFCURVE",
"262 122 OFFCURVE",
"229 122 CURVE SMOOTH",
"218 122 LINE SMOOTH",
"186 122 OFFCURVE",
"168 103 OFFCURVE",
"168 70 CURVE SMOOTH",
"168 52 LINE SMOOTH",
"168 19 OFFCURVE",
"186 0 OFFCURVE",
"218 0 CURVE SMOOTH"
);
}
);
width = 511;
}
);
note = question;
unicode = 003F;
},
{
glyphname = quotedbl;
lastChange = "2018-04-02 16:38:16 +0000";
layers = (
{
layerId = "3D0525B3-6B2A-4787-8D58-1F6DD6CCA7DC";
paths = (
{
closed = 1;
nodes = (
"38 449 LINE SMOOTH",
"36 427 OFFCURVE",
"44 414 OFFCURVE",
"61 414 CURVE SMOOTH",
"79 414 OFFCURVE",
"91 423 OFFCURVE",
"97 442 CURVE SMOOTH",
"164 654 LINE SMOOTH",
"172 682 OFFCURVE",
"160 700 OFFCURVE",
"131 700 CURVE SMOOTH",
"101 700 LINE SMOOTH",
"74 700 OFFCURVE",
"60 687 OFFCURVE",
"57 660 CURVE SMOOTH"
);
},
{
closed = 1;
nodes = (
"246 450 LINE SMOOTH",
"244 427 OFFCURVE",
"252 414 OFFCURVE",
"268 414 CURVE SMOOTH",
"287 414 OFFCURVE",
"298 423 OFFCURVE",
"305 442 CURVE SMOOTH",
"371 654 LINE SMOOTH",
"381 682 OFFCURVE",
"369 700 OFFCURVE",
"340 700 CURVE SMOOTH",
"309 700 LINE SMOOTH",
"283 700 OFFCURVE",
"269 687 OFFCURVE",
"266 660 CURVE SMOOTH"
);
}
);
width = 412;
}
);
note = quotedbl;
unicode = 0022;
},
{
glyphname = quotesingle;
lastChange = "2018-04-02 16:38:16 +0000";
layers = (
{
layerId = "3D0525B3-6B2A-4787-8D58-1F6DD6CCA7DC";
paths = (
{
closed = 1;
nodes = (
"38 449 LINE SMOOTH",
"36 427 OFFCURVE",
"44 414 OFFCURVE",
"61 414 CURVE SMOOTH",
"80 414 OFFCURVE",
"91 423 OFFCURVE",
"98 442 CURVE SMOOTH",
"164 654 LINE SMOOTH",
"174 682 OFFCURVE",
"162 700 OFFCURVE",
"132 700 CURVE SMOOTH",
"101 700 LINE SMOOTH",
"74 700 OFFCURVE",
"60 687 OFFCURVE",
"57 660 CURVE SMOOTH"
);
}
);
width = 205;
}
);
note = quotesingle;
unicode = 0027;
},
{
glyphname = semicolon;
lastChange = "2018-04-21 00:33:34 +0000";
layers = (
{
components = (
{
name = comma;
transform = "{1, 0, 0, 1, -7, 0}";
}
);
layerId = "3D0525B3-6B2A-4787-8D58-1F6DD6CCA7DC";
paths = (
{
closed = 1;
nodes = (
"177 385 OFFCURVE",
"199 422 OFFCURVE",
"199 460 CURVE SMOOTH",
"199 505 OFFCURVE",
"177 535 OFFCURVE",
"130 535 CURVE SMOOTH",
"83 535 OFFCURVE",
"61 498 OFFCURVE",
"61 460 CURVE SMOOTH",
"61 415 OFFCURVE",
"83 385 OFFCURVE",
"130 385 CURVE SMOOTH"
);
}
);
width = 257;
}
);
note = semicolon;
unicode = 003B;
},
{
glyphname = slash;
lastChange = "2018-04-02 16:38:16 +0000";
layers = (
{
layerId = "3D0525B3-6B2A-4787-8D58-1F6DD6CCA7DC";
paths = (
{
closed = 1;
nodes = (
"82 -132 OFFCURVE",
"96 -123 OFFCURVE",
"104 -105 CURVE SMOOTH",
"521 737 LINE SMOOTH",
"525 745 OFFCURVE",
"526 752 OFFCURVE",
"526 759 CURVE SMOOTH",
"526 784 OFFCURVE",
"503 800 OFFCURVE",
"484 800 CURVE SMOOTH",
"468 800 OFFCURVE",
"453 791 OFFCURVE",
"444 772 CURVE SMOOTH",
"27 -70 LINE SMOOTH",
"24 -77 OFFCURVE",
"22 -84 OFFCURVE",
"22 -91 CURVE SMOOTH",
"22 -114 OFFCURVE",
"45 -132 OFFCURVE",
"66 -132 CURVE SMOOTH"
);
}
);
width = 550;
}
);
note = slash;
unicode = 002F;
},
{
glyphname = underscore;
lastChange = "2018-04-02 16:38:16 +0000";
layers = (
{
layerId = "3D0525B3-6B2A-4787-8D58-1F6DD6CCA7DC";
paths = (
{
closed = 1;
nodes = (
"596 -160 LINE SMOOTH",
"620 -160 OFFCURVE",
"637 -144 OFFCURVE",
"637 -121 CURVE SMOOTH",
"637 -98 OFFCURVE",
"620 -82 OFFCURVE",
"596 -82 CURVE SMOOTH",
"93 -82 LINE SMOOTH",
"70 -82 OFFCURVE",
"53 -98 OFFCURVE",
"53 -121 CURVE SMOOTH",
"53 -143 OFFCURVE",
"70 -160 OFFCURVE",
"93 -160 CURVE SMOOTH"
);
}
);
width = 690;
}
);
note = underscore;
unicode = 005F;
},
{
glyphname = braceleft;
lastChange = "2018-04-02 16:38:16 +0000";
layers = (
{
layerId = "3D0525B3-6B2A-4787-8D58-1F6DD6CCA7DC";
paths = (
{
closed = 1;
nodes = (
"371 -201 OFFCURVE",
"385 -186 OFFCURVE",
"386 -168 CURVE SMOOTH",
"386 -152 OFFCURVE",
"375 -138 OFFCURVE",
"357 -131 CURVE SMOOTH",
"261 -98 OFFCURVE",
"245 -66 OFFCURVE",
"245 7 CURVE",
"247 102 LINE",
"247 182 OFFCURVE",
"208 231 OFFCURVE",
"143 252 CURVE",
"144 249 LINE",
"208 268 OFFCURVE",
"247 318 OFFCURVE",
"247 398 CURVE",
"245 493 LINE",
"245 566 OFFCURVE",
"261 600 OFFCURVE",
"357 631 CURVE SMOOTH",
"374 637 OFFCURVE",
"386 650 OFFCURVE",
"386 665 CURVE SMOOTH",
"386 686 OFFCURVE",
"371 707 OFFCURVE",
"339 700 CURVE SMOOTH",
"205 671 OFFCURVE",
"154 614 OFFCURVE",
"154 507 CURVE",
"155 412 LINE",
"155 336 OFFCURVE",
"123 290 OFFCURVE",
"59 288 CURVE",
"53 288 LINE",
"32 288 OFFCURVE",
"14 272 OFFCURVE",
"14 250 CURVE SMOOTH",
"14 228 OFFCURVE",
"32 212 OFFCURVE",
"53 212 CURVE",
"57 212 LINE",
"121 210 OFFCURVE",
"155 165 OFFCURVE",
"155 88 CURVE",
"154 -7 LINE",
"154 -103 OFFCURVE",
"189 -170 OFFCURVE",
"339 -200 CURVE SMOOTH",
"343 -201 OFFCURVE",
"347 -201 OFFCURVE",
"352 -201 CURVE SMOOTH"
);
}
);
width = 411;
}
);
note = braceleft;
unicode = 007B;
},
{
glyphname = braceright;
lastChange = "2018-04-02 16:38:16 +0000";
layers = (
{
layerId = "3D0525B3-6B2A-4787-8D58-1F6DD6CCA7DC";
paths = (
{
closed = 1;
nodes = (
"64 -201 OFFCURVE",
"68 -200 OFFCURVE",
"72 -199 CURVE SMOOTH",
"218 -157 OFFCURVE",
"257 -101 OFFCURVE",
"257 -6 CURVE",
"256 90 LINE",
"256 166 OFFCURVE",
"288 211 OFFCURVE",
"352 213 CURVE",
"358 213 LINE",
"379 213 OFFCURVE",
"397 229 OFFCURVE",
"397 251 CURVE SMOOTH",
"397 274 OFFCURVE",
"379 290 OFFCURVE",
"358 290 CURVE",
"354 290 LINE",
"290 291 OFFCURVE",
"256 337 OFFCURVE",
"256 413 CURVE",
"257 509 LINE",
"257 604 OFFCURVE",
"222 671 OFFCURVE",
"72 702 CURVE SMOOTH",
"68 703 OFFCURVE",
"64 703 OFFCURVE",
"59 703 CURVE SMOOTH",
"40 703 OFFCURVE",
"26 687 OFFCURVE",
"25 669 CURVE SMOOTH",
"25 653 OFFCURVE",
"36 639 OFFCURVE",
"54 633 CURVE SMOOTH",
"150 600 OFFCURVE",
"166 568 OFFCURVE",
"166 495 CURVE",
"164 399 LINE",
"164 319 OFFCURVE",
"203 270 OFFCURVE",
"268 250 CURVE",
"267 253 LINE",
"204 234 OFFCURVE",
"164 184 OFFCURVE",
"164 104 CURVE",
"166 8 LINE",
"166 -65 OFFCURVE",
"150 -98 OFFCURVE",
"54 -130 CURVE SMOOTH",
"37 -136 OFFCURVE",
"25 -148 OFFCURVE",
"25 -163 CURVE SMOOTH",
"25 -178 OFFCURVE",
"36 -201 OFFCURVE",
"58 -201 CURVE SMOOTH"
);
}
);
width = 411;
}
);
note = braceright;
unicode = 007D;
},
{
glyphname = bracketleft;
lastChange = "2018-04-02 16:38:16 +0000";
layers = (
{
layerId = "3D0525B3-6B2A-4787-8D58-1F6DD6CCA7DC";
paths = (
{
closed = 1;
nodes = (
"337 -190 LINE SMOOTH",
"360 -190 OFFCURVE",
"377 -173 OFFCURVE",
"377 -151 CURVE SMOOTH",
"377 -128 OFFCURVE",
"360 -111 OFFCURVE",
"337 -111 CURVE SMOOTH",
"163 -111 LINE",
"173 -123 LINE",
"173 629 LINE",
"167 621 LINE",
"337 621 LINE SMOOTH",
"360 621 OFFCURVE",
"377 638 OFFCURVE",
"377 660 CURVE SMOOTH",
"377 683 OFFCURVE",
"360 700 OFFCURVE",
"337 700 CURVE SMOOTH",
"120 700 LINE SMOOTH",
"97 700 OFFCURVE",
"80 683 OFFCURVE",
"80 660 CURVE SMOOTH",
"80 -150 LINE SMOOTH",
"80 -173 OFFCURVE",
"97 -190 OFFCURVE",
"120 -190 CURVE SMOOTH"
);
}
);
width = 403;
}
);
note = bracketleft;
unicode = 005B;
},
{
glyphname = bracketright;
lastChange = "2018-04-02 16:38:16 +0000";
layers = (
{
layerId = "3D0525B3-6B2A-4787-8D58-1F6DD6CCA7DC";
paths = (
{
closed = 1;
nodes = (
"66 700 LINE SMOOTH",
"43 700 OFFCURVE",
"26 683 OFFCURVE",
"26 661 CURVE SMOOTH",
"26 638 OFFCURVE",
"43 621 OFFCURVE",
"66 621 CURVE SMOOTH",
"240 621 LINE",
"230 633 LINE",
"230 -119 LINE",
"236 -111 LINE",
"66 -111 LINE SMOOTH",
"43 -111 OFFCURVE",
"26 -128 OFFCURVE",
"26 -150 CURVE SMOOTH",
"26 -173 OFFCURVE",
"43 -190 OFFCURVE",
"66 -190 CURVE SMOOTH",
"283 -190 LINE SMOOTH",
"306 -190 OFFCURVE",
"323 -173 OFFCURVE",
"323 -150 CURVE SMOOTH",
"323 660 LINE SMOOTH",
"323 683 OFFCURVE",
"306 700 OFFCURVE",
"283 700 CURVE SMOOTH"
);
}
);
width = 403;
}
);
note = bracketright;
unicode = 005D;
},
{
glyphname = parenleft;
lastChange = "2018-04-02 16:38:16 +0000";
layers = (
{
layerId = "3D0525B3-6B2A-4787-8D58-1F6DD6CCA7DC";
paths = (
{
closed = 1;
nodes = (
"327 -186 OFFCURVE",
"344 -163 OFFCURVE",
"344 -144 CURVE SMOOTH",
"344 -131 OFFCURVE",
"338 -118 OFFCURVE",
"326 -110 CURVE SMOOTH",
"197 -28 OFFCURVE",
"136 115 OFFCURVE",
"136 258 CURVE SMOOTH",
"136 401 OFFCURVE",
"201 539 OFFCURVE",
"326 626 CURVE SMOOTH",
"338 635 OFFCURVE",
"344 647 OFFCURVE",
"344 660 CURVE SMOOTH",
"344 678 OFFCURVE",
"329 702 OFFCURVE",
"303 702 CURVE SMOOTH",
"296 702 OFFCURVE",
"288 701 OFFCURVE",
"281 696 CURVE SMOOTH",
"124 596 OFFCURVE",
"39 435 OFFCURVE",
"39 258 CURVE SMOOTH",
"39 81 OFFCURVE",
"122 -84 OFFCURVE",
"281 -179 CURVE SMOOTH",
"288 -184 OFFCURVE",
"296 -186 OFFCURVE",
"303 -186 CURVE SMOOTH"
);
}
);
width = 363;
}
);
note = parenleft;
unicode = 0028;
},
{
glyphname = parenright;
lastChange = "2018-04-02 16:38:16 +0000";
layers = (
{
layerId = "3D0525B3-6B2A-4787-8D58-1F6DD6CCA7DC";
paths = (
{
closed = 1;
nodes = (
"67 -185 OFFCURVE",
"75 -184 OFFCURVE",
"82 -179 CURVE SMOOTH",
"239 -80 OFFCURVE",
"325 82 OFFCURVE",
"325 259 CURVE SMOOTH",
"325 436 OFFCURVE",
"241 600 OFFCURVE",
"83 696 CURVE SMOOTH",
"75 701 OFFCURVE",
"68 703 OFFCURVE",
"60 703 CURVE SMOOTH",
"37 703 OFFCURVE",
"20 680 OFFCURVE",
"20 660 CURVE SMOOTH",
"20 648 OFFCURVE",
"25 635 OFFCURVE",
"37 627 CURVE SMOOTH",
"166 545 OFFCURVE",
"227 402 OFFCURVE",
"227 259 CURVE SMOOTH",
"227 116 OFFCURVE",
"162 -22 OFFCURVE",
"37 -110 CURVE SMOOTH",
"25 -119 OFFCURVE",
"19 -131 OFFCURVE",
"19 -143 CURVE SMOOTH",
"19 -161 OFFCURVE",
"34 -185 OFFCURVE",
"60 -185 CURVE SMOOTH"
);
}
);
width = 363;
}
);
note = parenright;
unicode = 0029;
},
{
glyphname = emdash;
lastChange = "2018-04-02 16:38:16 +0000";
layers = (
{
layerId = "3D0525B3-6B2A-4787-8D58-1F6DD6CCA7DC";
paths = (
{
closed = 1;
nodes = (
"765 243 LINE SMOOTH",
"794 243 OFFCURVE",
"815 263 OFFCURVE",
"815 290 CURVE SMOOTH",
"815 318 OFFCURVE",
"794 337 OFFCURVE",
"765 337 CURVE SMOOTH",
"102 337 LINE SMOOTH",
"74 337 OFFCURVE",
"53 318 OFFCURVE",
"53 290 CURVE SMOOTH",
"53 263 OFFCURVE",
"74 243 OFFCURVE",
"102 243 CURVE SMOOTH"
);
}
);
width = 868;
}
);
note = emdash;
unicode = 2014;
},
{
glyphname = endash;
lastChange = "2018-04-02 16:38:16 +0000";
layers = (
{
layerId = "3D0525B3-6B2A-4787-8D58-1F6DD6CCA7DC";
paths = (
{
closed = 1;
nodes = (
"411 243 LINE SMOOTH",
"440 243 OFFCURVE",
"461 262 OFFCURVE",
"461 290 CURVE SMOOTH",
"461 317 OFFCURVE",
"440 336 OFFCURVE",
"411 336 CURVE SMOOTH",
"102 336 LINE SMOOTH",
"74 336 OFFCURVE",
"53 317 OFFCURVE",
"53 290 CURVE SMOOTH",
"53 262 OFFCURVE",
"74 243 OFFCURVE",
"102 243 CURVE SMOOTH"
);
}
);
width = 514;
}
);
note = endash;
unicode = 2013;
},
{
glyphname = hyphen;
lastChange = "2018-04-16 15:51:15 +0000";
layers = (
{
layerId = "3D0525B3-6B2A-4787-8D58-1F6DD6CCA7DC";
paths = (
{
closed = 1;
nodes = (
"341 241 LINE",
"341 337 LINE",
"53 337 LINE",
"53 241 LINE"
);
}
);
width = 394;
}
);
note = hyphen;
unicode = 002D;
},
{
glyphname = guilsinglleft;
lastChange = "2018-04-02 16:38:16 +0000";
layers = (
{
layerId = "3D0525B3-6B2A-4787-8D58-1F6DD6CCA7DC";
paths = (
{
closed = 1;
nodes = (
"209 50 OFFCURVE",
"236 65 OFFCURVE",
"236 94 CURVE SMOOTH",
"236 103 OFFCURVE",
"233 113 OFFCURVE",
"226 122 CURVE SMOOTH",
"116 270 LINE",
"117 255 LINE",
"224 400 LINE SMOOTH",
"231 409 OFFCURVE",
"235 420 OFFCURVE",
"235 430 CURVE SMOOTH",
"235 455 OFFCURVE",
"212 471 OFFCURVE",
"192 471 CURVE SMOOTH",
"179 471 OFFCURVE",
"167 465 OFFCURVE",
"160 454 CURVE SMOOTH",
"35 286 LINE SMOOTH",
"29 278 OFFCURVE",
"27 270 OFFCURVE",
"27 262 CURVE SMOOTH",
"27 253 OFFCURVE",
"29 244 OFFCURVE",
"35 237 CURVE SMOOTH",
"158 68 LINE SMOOTH",
"166 57 OFFCURVE",
"178 50 OFFCURVE",
"191 50 CURVE SMOOTH"
);
}
);
width = 275;
}
);
note = guilsinglleft;
unicode = 2039;
},
{
glyphname = guilsinglright;
lastChange = "2018-04-02 16:38:16 +0000";
layers = (
{
layerId = "3D0525B3-6B2A-4787-8D58-1F6DD6CCA7DC";
paths = (
{
closed = 1;
nodes = (
"53 471 OFFCURVE",
"27 456 OFFCURVE",
"27 427 CURVE SMOOTH",
"27 418 OFFCURVE",
"30 408 OFFCURVE",
"37 399 CURVE SMOOTH",
"147 251 LINE",
"146 266 LINE",
"39 121 LINE SMOOTH",
"32 112 OFFCURVE",
"27 101 OFFCURVE",
"27 91 CURVE SMOOTH",
"27 66 OFFCURVE",
"51 50 OFFCURVE",
"71 50 CURVE SMOOTH",
"83 50 OFFCURVE",
"95 56 OFFCURVE",
"103 67 CURVE SMOOTH",
"228 235 LINE SMOOTH",
"233 243 OFFCURVE",
"236 251 OFFCURVE",
"236 259 CURVE SMOOTH",
"236 268 OFFCURVE",
"233 277 OFFCURVE",
"228 284 CURVE SMOOTH",
"104 453 LINE SMOOTH",
"96 464 OFFCURVE",
"84 471 OFFCURVE",
"72 471 CURVE SMOOTH"
);
}
);
width = 275;
}
);
note = guilsinglright;
unicode = 203A;
},
{
glyphname = quoteleft;
lastChange = "2018-04-02 16:38:16 +0000";
layers = (
{
layerId = "3D0525B3-6B2A-4787-8D58-1F6DD6CCA7DC";
paths = (
{
closed = 1;
nodes = (
"29 512 OFFCURVE",
"61 481 OFFCURVE",
"109 481 CURVE",
"145 481 OFFCURVE",
"189 508 OFFCURVE",
"190 544 CURVE SMOOTH",
"190 562 OFFCURVE",
"181 570 OFFCURVE",
"170 576 CURVE",
"162 571 OFFCURVE",
"150 569 OFFCURVE",
"142 569 CURVE SMOOTH",
"123 569 OFFCURVE",
"110 581 OFFCURVE",
"110 596 CURVE SMOOTH",
"110 615 OFFCURVE",
"121 630 OFFCURVE",
"138 640 CURVE SMOOTH",
"153 647 OFFCURVE",
"176 646 OFFCURVE",
"176 673 CURVE",
"176 697 OFFCURVE",
"159 706 OFFCURVE",
"137 706 CURVE",
"82 706 OFFCURVE",
"29 620 OFFCURVE",
"29 570 CURVE SMOOTH"
);
}
);
width = 244;
}
);
note = quoteleft;
unicode = 2018;
},
{
glyphname = .notdef;
layers = (
{
layerId = "3D0525B3-6B2A-4787-8D58-1F6DD6CCA7DC";
paths = (
{
closed = 1;
nodes = (
"40 35 LINE SMOOTH",
"40 12 OFFCURVE",
"52 0 OFFCURVE",
"75 0 CURVE SMOOTH",
"509 0 LINE SMOOTH",
"532 0 OFFCURVE",
"544 12 OFFCURVE",
"544 35 CURVE SMOOTH",
"544 665 LINE SMOOTH",
"544 688 OFFCURVE",
"532 700 OFFCURVE",
"509 700 CURVE SMOOTH",
"75 700 LINE SMOOTH",
"52 700 OFFCURVE",
"40 688 OFFCURVE",
"40 665 CURVE SMOOTH"
);
},
{
closed = 1;
nodes = (
"509 670 LINE SMOOTH",
"512 670 OFFCURVE",
"514 668 OFFCURVE",
"514 665 CURVE SMOOTH",
"514 67 LINE SMOOTH",
"514 62 OFFCURVE",
"511 61 OFFCURVE",
"508 65 CURVE",
"92 664 LINE SMOOTH",
"90 667 OFFCURVE",
"91 670 OFFCURVE",
"95 670 CURVE SMOOTH"
);
},
{
closed = 1;
nodes = (
"70 633 LINE SMOOTH",
"70 638 OFFCURVE",
"73 639 OFFCURVE",
"76 635 CURVE",
"491 36 LINE SMOOTH",
"493 33 OFFCURVE",
"492 30 OFFCURVE",
"488 30 CURVE SMOOTH",
"75 30 LINE SMOOTH",
"72 30 OFFCURVE",
"70 32 OFFCURVE",
"70 35 CURVE SMOOTH"
);
}
);
width = 584;
}
);
note = .notdef;
},
{
glyphname = cedi;
lastChange = "2018-04-02 16:38:16 +0000";
layers = (
{
components = (
{
name = C;
}
);
layerId = "3D0525B3-6B2A-4787-8D58-1F6DD6CCA7DC";
paths = (
{
closed = 1;
nodes = (
"421 21 LINE",
"414 66 LINE",
"414 642 LINE",
"421 680 LINE",
"421 762 LINE SMOOTH",
"421 790 OFFCURVE",
"401 811 OFFCURVE",
"373 811 CURVE SMOOTH",
"345 811 OFFCURVE",
"324 790 OFFCURVE",
"324 762 CURVE SMOOTH",
"324 673 LINE",
"331 637 LINE",
"331 73 LINE",
"324 18 LINE",
"324 -81 LINE SMOOTH",
"324 -109 OFFCURVE",
"344 -130 OFFCURVE",
"372 -130 CURVE SMOOTH",
"400 -130 OFFCURVE",
"421 -109 OFFCURVE",
"421 -81 CURVE SMOOTH"
);
}
);
width = 637;
}
);
unicode = 20B5;
},
{
glyphname = cent;
lastChange = "2018-04-02 16:38:16 +0000";
layers = (
{
anchors = (
{
name = bottom;
position = "{258, 90}";
},
{
name = top;
position = "{298, 600}";
}
);
layerId = "3D0525B3-6B2A-4787-8D58-1F6DD6CCA7DC";
paths = (
{
closed = 1;
nodes = (
"336 107 LINE",
"329 141 LINE",
"329 572 LINE",
"336 605 LINE",
"336 661 LINE",
"336 689 OFFCURVE",
"316 710 OFFCURVE",
"288 710 CURVE",
"260 710 OFFCURVE",
"239 689 OFFCURVE",
"239 661 CURVE",
"239 606 LINE",
"246 563 LINE",
"246 145 LINE",
"239 108 LINE",
"239 49 LINE",
"239 21 OFFCURVE",
"259 0 OFFCURVE",
"287 0 CURVE",
"315 0 OFFCURVE",
"336 21 OFFCURVE",
"336 49 CURVE"
);
},
{
closed = 1;
nodes = (
"400 80 OFFCURVE",
"487 125 OFFCURVE",
"487 168 CURVE",
"487 194 OFFCURVE",
"472 216 OFFCURVE",
"444 216 CURVE",
"418 216 OFFCURVE",
"408 201 OFFCURVE",
"389 186 CURVE",
"369 168 OFFCURVE",
"346 159 OFFCURVE",
"299 159 CURVE",
"205 159 OFFCURVE",
"136 239 OFFCURVE",
"136 353 CURVE",
"136 467 OFFCURVE",
"204 545 OFFCURVE",
"294 545 CURVE",
"336 545 OFFCURVE",
"363 543 OFFCURVE",
"383 523 CURVE",
"404 504 OFFCURVE",
"414 490 OFFCURVE",
"439 490 CURVE",
"469 490 OFFCURVE",
"483 515 OFFCURVE",
"483 537 CURVE",
"483 589 OFFCURVE",
"405 626 OFFCURVE",
"299 626 CURVE",
"145 626 OFFCURVE",
"39 510 OFFCURVE",
"39 353 CURVE",
"39 198 OFFCURVE",
"139 80 OFFCURVE",
"294 80 CURVE"
);
}
);
width = 514;
}
);
note = cent;
unicode = 00A2;
},
{
glyphname = colonsign;
lastChange = "2018-04-02 16:38:16 +0000";
layers = (
{
components = (
{
name = C;
}
);
layerId = "3D0525B3-6B2A-4787-8D58-1F6DD6CCA7DC";
paths = (
{
closed = 1;
nodes = (
"95 -106 OFFCURVE",
"109 -98 OFFCURVE",
"118 -80 CURVE SMOOTH",
"522 740 LINE SMOOTH",
"526 748 OFFCURVE",
"528 755 OFFCURVE",
"528 762 CURVE SMOOTH",
"528 787 OFFCURVE",
"504 803 OFFCURVE",
"486 803 CURVE SMOOTH",
"469 803 OFFCURVE",
"455 794 OFFCURVE",
"446 775 CURVE SMOOTH",
"40 -45 LINE SMOOTH",
"37 -51 OFFCURVE",
"35 -58 OFFCURVE",
"35 -65 CURVE SMOOTH",
"35 -87 OFFCURVE",
"55 -106 OFFCURVE",
"78 -106 CURVE SMOOTH"
);
},
{
closed = 1;
nodes = (
"256 -131 OFFCURVE",
"270 -123 OFFCURVE",
"279 -105 CURVE SMOOTH",
"683 710 LINE SMOOTH",
"687 718 OFFCURVE",
"689 725 OFFCURVE",
"689 732 CURVE SMOOTH",
"689 757 OFFCURVE",
"666 773 OFFCURVE",
"647 773 CURVE SMOOTH",
"630 773 OFFCURVE",
"616 764 OFFCURVE",
"607 745 CURVE SMOOTH",
"202 -70 LINE SMOOTH",
"198 -77 OFFCURVE",
"197 -84 OFFCURVE",
"197 -91 CURVE SMOOTH",
"197 -113 OFFCURVE",
"216 -131 OFFCURVE",
"240 -131 CURVE SMOOTH"
);
}
);
width = 637;
}
);
unicode = 20A1;
},
{
glyphname = currency;
lastChange = "2018-04-02 16:38:16 +0000";
layers = (
{
layerId = "3D0525B3-6B2A-4787-8D58-1F6DD6CCA7DC";
paths = (
{
closed = 1;
nodes = (
"87 511 OFFCURVE",
"59 480 OFFCURVE",
"59 458 CURVE SMOOTH",
"59 447 OFFCURVE",
"64 435 OFFCURVE",
"76 424 CURVE",
"142 359 LINE",
"163 379 OFFCURVE",
"191 409 OFFCURVE",
"212 429 CURVE",
"145 494 LINE",
"133 506 OFFCURVE",
"122 511 OFFCURVE",
"111 511 CURVE SMOOTH"
);
},
{
closed = 1;
nodes = (
"420 510 OFFCURVE",
"408 505 OFFCURVE",
"397 494 CURVE",
"331 429 LINE",
"352 408 OFFCURVE",
"379 380 OFFCURVE",
"399 359 CURVE",
"467 424 LINE",
"479 436 OFFCURVE",
"484 448 OFFCURVE",
"484 459 CURVE SMOOTH",
"484 483 OFFCURVE",
"455 510 OFFCURVE",
"431 510 CURVE SMOOTH"
);
},
{
closed = 1;
nodes = (
"456 93 OFFCURVE",
"482 123 OFFCURVE",
"482 146 CURVE SMOOTH",
"482 157 OFFCURVE",
"477 169 OFFCURVE",
"466 180 CURVE",
"402 244 LINE",
"381 223 OFFCURVE",
"353 194 OFFCURVE",
"332 173 CURVE",
"397 111 LINE",
"409 99 OFFCURVE",
"421 93 OFFCURVE",
"432 93 CURVE SMOOTH"
);
},
{
closed = 1;
nodes = (
"122 95 OFFCURVE",
"133 100 OFFCURVE",
"145 111 CURVE",
"214 178 LINE",
"193 199 OFFCURVE",
"165 227 OFFCURVE",
"144 248 CURVE",
"76 181 LINE",
"64 168 OFFCURVE",
"59 157 OFFCURVE",
"59 146 CURVE SMOOTH",
"59 122 OFFCURVE",
"88 95 OFFCURVE",
"111 95 CURVE SMOOTH"
);
},
{
closed = 1;
nodes = (
"371 122 OFFCURVE",
"451 202 OFFCURVE",
"451 302 CURVE",
"451 401 OFFCURVE",
"371 482 OFFCURVE",
"273 482 CURVE",
"174 482 OFFCURVE",
"95 401 OFFCURVE",
"95 302 CURVE",
"95 202 OFFCURVE",
"174 122 OFFCURVE",
"273 122 CURVE"
);
},
{
closed = 1;
nodes = (
"223 210 OFFCURVE",
"191 250 OFFCURVE",
"191 302 CURVE",
"191 353 OFFCURVE",
"223 395 OFFCURVE",
"273 395 CURVE",
"324 395 OFFCURVE",
"356 353 OFFCURVE",
"356 302 CURVE",
"356 250 OFFCURVE",
"324 210 OFFCURVE",
"273 210 CURVE"
);
}
);
width = 546;
}
);
note = currency;
unicode = 00A4;
},
{
glyphname = dong;
lastChange = "2018-04-02 16:38:16 +0000";
layers = (
{
layerId = "3D0525B3-6B2A-4787-8D58-1F6DD6CCA7DC";
paths = (
{
closed = 1;
nodes = (
"264 146 OFFCURVE",
"315 219 OFFCURVE",
"315 262 CURVE",
"295 266 LINE",
"295 205 LINE",
"295 177 OFFCURVE",
"315 156 OFFCURVE",
"343 156 CURVE",
"371 156 OFFCURVE",
"392 177 OFFCURVE",
"392 205 CURVE",
"392 651 LINE",
"392 680 OFFCURVE",
"372 700 OFFCURVE",
"343 700 CURVE",
"315 700 OFFCURVE",
"295 679 OFFCURVE",
"295 651 CURVE",
"295 404 LINE",
"325 377 LINE",
"311 450 OFFCURVE",
"261 497 OFFCURVE",
"195 497 CURVE",
"113 497 OFFCURVE",
"40 423 OFFCURVE",
"40 321 CURVE",
"40 221 OFFCURVE",
"114 146 OFFCURVE",
"191 146 CURVE"
);
},
{
closed = 1;
nodes = (
"166 227 OFFCURVE",
"137 273 OFFCURVE",
"137 321 CURVE",
"137 373 OFFCURVE",
"166 417 OFFCURVE",
"216 417 CURVE",
"265 417 OFFCURVE",
"300 373 OFFCURVE",
"300 321 CURVE",
"300 273 OFFCURVE",
"265 227 OFFCURVE",
"216 227 CURVE"
);
},
{
closed = 1;
nodes = (
"390 0 LINE",
"413 0 OFFCURVE",
"430 16 OFFCURVE",
"430 38 CURVE",
"430 62 OFFCURVE",
"413 78 OFFCURVE",
"390 78 CURVE",
"82 78 LINE",
"58 78 OFFCURVE",
"41 61 OFFCURVE",
"41 39 CURVE",
"41 16 OFFCURVE",
"58 0 OFFCURVE",
"82 0 CURVE"
);
},
{
closed = 1;
nodes = (
"424 534 LINE",
"448 534 OFFCURVE",
"466 551 OFFCURVE",
"466 574 CURVE",
"466 597 OFFCURVE",
"448 614 OFFCURVE",
"424 614 CURVE",
"244 614 LINE",
"221 614 OFFCURVE",
"203 597 OFFCURVE",
"203 575 CURVE",
"203 552 OFFCURVE",
"221 534 OFFCURVE",
"244 534 CURVE"
);
}
);
width = 487;
}
);
unicode = 20AB;
},
{
glyphname = euro;
lastChange = "2018-04-02 16:38:16 +0000";
layers = (
{
layerId = "3D0525B3-6B2A-4787-8D58-1F6DD6CCA7DC";
paths = (
{
closed = 1;
nodes = (
"365 221 LINE",
"393 221 OFFCURVE",
"414 241 OFFCURVE",
"414 268 CURVE",
"414 295 OFFCURVE",
"393 314 OFFCURVE",
"365 314 CURVE",
"52 316 LINE",
"23 316 OFFCURVE",
"2 296 OFFCURVE",
"2 269 CURVE",
"2 242 OFFCURVE",
"23 222 OFFCURVE",
"52 222 CURVE"
);
},
{
closed = 1;
nodes = (
"365 367 LINE",
"393 367 OFFCURVE",
"414 386 OFFCURVE",
"414 414 CURVE",
"414 441 OFFCURVE",
"393 460 OFFCURVE",
"365 460 CURVE",
"52 461 LINE",
"23 461 OFFCURVE",
"2 442 OFFCURVE",
"2 415 CURVE",
"2 388 OFFCURVE",
"23 368 OFFCURVE",
"52 368 CURVE"
);
},
{
closed = 1;
nodes = (
"484 -10 OFFCURVE",
"542 9 OFFCURVE",
"588 37 CURVE",
"614 51 OFFCURVE",
"621 83 OFFCURVE",
"600 110 CURVE",
"585 129 OFFCURVE",
"561 132 OFFCURVE",
"538 121 CURVE",
"505 98 OFFCURVE",
"467 86 OFFCURVE",
"426 86 CURVE",
"293 86 OFFCURVE",
"186 180 OFFCURVE",
"186 350 CURVE",
"186 503 OFFCURVE",
"287 610 OFFCURVE",
"426 610 CURVE",
"467 610 OFFCURVE",
"506 597 OFFCURVE",
"538 576 CURVE",
"561 564 OFFCURVE",
"585 566 OFFCURVE",
"600 585 CURVE",
"620 610 OFFCURVE",
"615 644 OFFCURVE",
"587 659 CURVE",
"541 689 OFFCURVE",
"484 706 OFFCURVE",
"426 706 CURVE",
"234 706 OFFCURVE",
"89 556 OFFCURVE",
"89 350 CURVE",
"89 121 OFFCURVE",
"245 -10 OFFCURVE",
"426 -10 CURVE"
);
}
);
width = 644;
}
);
note = Euro;
unicode = 20AC;
},
{
glyphname = florin;
lastChange = "2018-04-02 16:38:16 +0000";
layers = (
{
layerId = "3D0525B3-6B2A-4787-8D58-1F6DD6CCA7DC";
paths = (
{
closed = 1;
nodes = (
"182 -31 OFFCURVE",
"234 17 OFFCURVE",
"253 119 CURVE SMOOTH",
"324 523 LINE SMOOTH",
"334 579 OFFCURVE",
"362 608 OFFCURVE",
"417 608 CURVE SMOOTH",
"428 608 OFFCURVE",
"438 607 OFFCURVE",
"448 606 CURVE SMOOTH",
"471 604 OFFCURVE",
"487 622 OFFCURVE",
"487 645 CURVE SMOOTH",
"488 665 OFFCURVE",
"477 682 OFFCURVE",
"449 687 CURVE SMOOTH",
"432 691 OFFCURVE",
"418 692 OFFCURVE",
"398 692 CURVE SMOOTH",
"294 692 OFFCURVE",
"244 635 OFFCURVE",
"227 538 CURVE SMOOTH",
"155 129 LINE SMOOTH",
"147 86 OFFCURVE",
"127 48 OFFCURVE",
"90 48 CURVE SMOOTH",
"81 48 OFFCURVE",
"67 53 OFFCURVE",
"55 53 CURVE SMOOTH",
"34 53 OFFCURVE",
"18 41 OFFCURVE",
"18 14 CURVE SMOOTH",
"18 -22 OFFCURVE",
"49 -31 OFFCURVE",
"80 -31 CURVE SMOOTH"
);
},
{
closed = 1;
nodes = (
"397 361 LINE SMOOTH",
"422 361 OFFCURVE",
"440 378 OFFCURVE",
"440 402 CURVE SMOOTH",
"440 427 OFFCURVE",
"422 444 OFFCURVE",
"397 444 CURVE SMOOTH",
"141 445 LINE SMOOTH",
"116 445 OFFCURVE",
"99 428 OFFCURVE",
"99 404 CURVE SMOOTH",
"99 379 OFFCURVE",
"116 362 OFFCURVE",
"141 362 CURVE SMOOTH"
);
}
);
width = 519;
}
);
note = florin;
unicode = 0192;
},
{
glyphname = kip;
lastChange = "2018-04-02 16:38:16 +0000";
layers = (
{
components = (
{
name = K;
}
);
layerId = "3D0525B3-6B2A-4787-8D58-1F6DD6CCA7DC";
paths = (
{
closed = 1;
nodes = (
"350 320 LINE",
"555 320 LINE SMOOTH",
"584 320 OFFCURVE",
"605 340 OFFCURVE",
"605 368 CURVE SMOOTH",
"605 395 OFFCURVE",
"584 415 OFFCURVE",
"555 415 CURVE SMOOTH",
"350 415 LINE"
);
},
{
closed = 1;
nodes = (
"176 415 LINE",
"42 415 LINE SMOOTH",
"14 415 OFFCURVE",
"-7 395 OFFCURVE",
"-7 368 CURVE SMOOTH",
"-7 340 OFFCURVE",
"14 320 OFFCURVE",
"42 320 CURVE SMOOTH",
"172 320 LINE"
);
}
);
width = 663;
}
);
unicode = 20AD;
},
{
glyphname = lira;
lastChange = "2018-04-02 16:38:16 +0000";
layers = (
{
components = (
{
name = sterling;
}
);
layerId = "3D0525B3-6B2A-4787-8D58-1F6DD6CCA7DC";
paths = (
{
closed = 1;
nodes = (
"403 201 LINE",
"430 201 OFFCURVE",
"449 218 OFFCURVE",
"449 244 CURVE",
"449 269 OFFCURVE",
"430 287 OFFCURVE",
"403 287 CURVE",
"74 287 LINE",
"48 287 OFFCURVE",
"28 269 OFFCURVE",
"28 244 CURVE",
"28 218 OFFCURVE",
"48 201 OFFCURVE",
"74 201 CURVE"
);
}
);
width = 620;
}
);
unicode = 20A4;
},
{
glyphname = liraTurkish;
lastChange = "2018-04-02 16:38:16 +0000";
layers = (
{
layerId = "3D0525B3-6B2A-4787-8D58-1F6DD6CCA7DC";
paths = (
{
closed = 1;
nodes = (
"391 -10 OFFCURVE",
"548 89 OFFCURVE",
"560 193 CURVE",
"561 218 OFFCURVE",
"546 244 OFFCURVE",
"514 245 CURVE",
"495 246 OFFCURVE",
"475 237 OFFCURVE",
"468 219 CURVE",
"433 124 OFFCURVE",
"324 87 OFFCURVE",
"244 87 CURVE",
"255 52 LINE",
"254 651 LINE",
"254 679 OFFCURVE",
"234 700 OFFCURVE",
"206 700 CURVE",
"177 700 OFFCURVE",
"156 679 OFFCURVE",
"156 651 CURVE",
"156 40 LINE",
"156 11 OFFCURVE",
"177 -10 OFFCURVE",
"237 -10 CURVE"
);
},
{
closed = 1;
nodes = (
"109 180 OFFCURVE",
"114 184 OFFCURVE",
"123 189 CURVE SMOOTH",
"429 366 LINE SMOOTH",
"446 374 OFFCURVE",
"455 388 OFFCURVE",
"455 403 CURVE SMOOTH",
"455 421 OFFCURVE",
"440 445 OFFCURVE",
"414 445 CURVE SMOOTH",
"405 445 OFFCURVE",
"398 441 OFFCURVE",
"388 435 CURVE SMOOTH",
"82 259 LINE SMOOTH",
"66 252 OFFCURVE",
"58 239 OFFCURVE",
"58 224 CURVE SMOOTH",
"58 206 OFFCURVE",
"72 180 OFFCURVE",
"101 180 CURVE SMOOTH"
);
},
{
closed = 1;
nodes = (
"76 338 OFFCURVE",
"81 341 OFFCURVE",
"90 347 CURVE SMOOTH",
"386 514 LINE SMOOTH",
"402 522 OFFCURVE",
"411 536 OFFCURVE",
"411 551 CURVE SMOOTH",
"411 569 OFFCURVE",
"397 593 OFFCURVE",
"370 593 CURVE SMOOTH",
"362 593 OFFCURVE",
"355 589 OFFCURVE",
"345 583 CURVE SMOOTH",
"49 416 LINE SMOOTH",
"33 409 OFFCURVE",
"25 395 OFFCURVE",
"25 381 CURVE SMOOTH",
"25 363 OFFCURVE",
"39 338 OFFCURVE",
"68 338 CURVE SMOOTH"
);
}
);
width = 609;
}
);
unicode = 20BA;
},
{
glyphname = manat;
lastChange = "2018-04-02 16:38:16 +0000";
layers = (
{
components = (
{
name = U;
transform = "{-1, 0, 0, -1, 708, 694}";
}
);
layerId = "3D0525B3-6B2A-4787-8D58-1F6DD6CCA7DC";
paths = (
{
closed = 1;
nodes = (
"404 752 LINE SMOOTH",
"404 780 OFFCURVE",
"384 801 OFFCURVE",
"356 801 CURVE SMOOTH",
"328 801 OFFCURVE",
"307 780 OFFCURVE",
"307 752 CURVE SMOOTH",
"307 303 LINE SMOOTH",
"307 275 OFFCURVE",
"327 254 OFFCURVE",
"355 254 CURVE SMOOTH",
"383 254 OFFCURVE",
"404 275 OFFCURVE",
"404 303 CURVE SMOOTH"
);
}
);
width = 708;
}
);
unicode = 20BC;
},
{
glyphname = naira;
lastChange = "2018-04-02 16:38:16 +0000";
layers = (
{
components = (
{
name = N;
}
);
layerId = "3D0525B3-6B2A-4787-8D58-1F6DD6CCA7DC";
paths = (
{
closed = 1;
nodes = (
"102 314 LINE",
"132 321 LINE",
"583 321 LINE",
"624 314 LINE",
"698 314 LINE SMOOTH",
"726 314 OFFCURVE",
"747 334 OFFCURVE",
"747 361 CURVE SMOOTH",
"747 388 OFFCURVE",
"726 407 OFFCURVE",
"698 407 CURVE SMOOTH",
"629 407 LINE",
"587 400 LINE",
"138 400 LINE",
"104 407 LINE",
"41 407 LINE SMOOTH",
"12 407 OFFCURVE",
"-9 388 OFFCURVE",
"-9 361 CURVE SMOOTH",
"-9 334 OFFCURVE",
"12 314 OFFCURVE",
"41 314 CURVE SMOOTH"
);
}
);
width = 732;
}
);
unicode = 20A6;
},
{
glyphname = peseta;
lastChange = "2018-04-02 16:38:16 +0000";
layers = (
{
components = (
{
name = P;
}
);
layerId = "3D0525B3-6B2A-4787-8D58-1F6DD6CCA7DC";
paths = (
{
closed = 1;
nodes = (
"591 435 LINE SMOOTH",
"620 435 OFFCURVE",
"641 454 OFFCURVE",
"641 482 CURVE SMOOTH",
"641 509 OFFCURVE",
"620 528 OFFCURVE",
"591 528 CURVE SMOOTH",
"40 528 LINE SMOOTH",
"12 528 OFFCURVE",
"-10 509 OFFCURVE",
"-10 482 CURVE SMOOTH",
"-10 454 OFFCURVE",
"12 435 OFFCURVE",
"40 435 CURVE SMOOTH"
);
}
);
width = 600;
}
);
unicode = 20A7;
},
{
glyphname = peso;
lastChange = "2018-04-02 16:38:16 +0000";
layers = (
{
components = (
{
name = P;
}
);
layerId = "3D0525B3-6B2A-4787-8D58-1F6DD6CCA7DC";
paths = (
{
closed = 1;
nodes = (
"123 393 LINE",
"147 407 LINE",
"471 407 LINE",
"503 393 LINE",
"577 393 LINE SMOOTH",
"605 393 OFFCURVE",
"626 405 OFFCURVE",
"626 429 CURVE SMOOTH",
"626 459 OFFCURVE",
"605 467 OFFCURVE",
"577 467 CURVE SMOOTH",
"508 467 LINE",
"473 457 LINE",
"149 457 LINE",
"126 467 LINE",
"40 467 LINE SMOOTH",
"12 467 OFFCURVE",
"-10 452 OFFCURVE",
"-10 432 CURVE SMOOTH",
"-10 405 OFFCURVE",
"12 393 OFFCURVE",
"40 393 CURVE SMOOTH"
);
},
{
closed = 1;
nodes = (
"124 508 LINE",
"150 516 LINE",
"473 516 LINE",
"509 508 LINE",
"577 508 LINE SMOOTH",
"605 508 OFFCURVE",
"626 516 OFFCURVE",
"626 543 CURVE SMOOTH",
"626 570 OFFCURVE",
"605 580 OFFCURVE",
"577 580 CURVE SMOOTH",
"504 580 LINE",
"467 566 LINE",
"151 566 LINE",
"129 580 LINE",
"40 580 LINE SMOOTH",
"12 580 OFFCURVE",
"-10 571 OFFCURVE",
"-10 544 CURVE SMOOTH",
"-10 516 OFFCURVE",
"12 508 OFFCURVE",
"40 508 CURVE SMOOTH"
);
}
);
width = 600;
}
);
unicode = 20B1;
},
{
glyphname = ruble;
lastChange = "2018-04-02 16:38:16 +0000";
layers = (
{
components = (
{
name = P;
},
{
name = strokeshortcomb;
transform = "{1, 0, 0, 1, -45, -134}";
}
);
layerId = "3D0525B3-6B2A-4787-8D58-1F6DD6CCA7DC";
paths = (
{
closed = 1;
nodes = (
"109 364 LINE",
"56 364 LINE SMOOTH",
"27 364 OFFCURVE",
"6 344 OFFCURVE",
"6 317 CURVE SMOOTH",
"6 290 OFFCURVE",
"27 271 OFFCURVE",
"56 271 CURVE SMOOTH",
"109 271 LINE"
);
}
);
width = 600;
}
);
unicode = 20BD;
},
{
glyphname = rupeeIndian;
lastChange = "2018-04-02 16:38:16 +0000";
layers = (
{
anchors = (
{
name = center;
position = "{383, 497}";
}
);
components = (
{
name = strokeshortcomb;
transform = "{1, 0, 0, 1, 193, 200}";
}
);
layerId = "3D0525B3-6B2A-4787-8D58-1F6DD6CCA7DC";
paths = (
{
closed = 1;
nodes = (
"450 0 OFFCURVE",
"469 16 OFFCURVE",
"469 42 CURVE SMOOTH",
"469 56 OFFCURVE",
"461 72 OFFCURVE",
"446 81 CURVE",
"422 95 OFFCURVE",
"421 123 OFFCURVE",
"416 187 CURVE",
"413 252 OFFCURVE",
"366 306 OFFCURVE",
"315 328 CURVE",
"328 313 LINE",
"390 343 OFFCURVE",
"441 411 OFFCURVE",
"441 481 CURVE",
"441 573 OFFCURVE",
"361 641 OFFCURVE",
"263 641 CURVE",
"317 603 LINE",
"469 603 LINE",
"497 603 OFFCURVE",
"518 623 OFFCURVE",
"518 651 CURVE",
"518 679 OFFCURVE",
"497 700 OFFCURVE",
"469 700 CURVE",
"118 700 LINE",
"90 700 OFFCURVE",
"69 680 OFFCURVE",
"69 652 CURVE",
"69 624 OFFCURVE",
"90 603 OFFCURVE",
"118 603 CURVE",
"237 603 LINE",
"291 603 OFFCURVE",
"336 557 OFFCURVE",
"336 492 CURVE",
"336 415 OFFCURVE",
"288 363 OFFCURVE",
"240 361 CURVE",
"122 361 LINE",
"94 361 OFFCURVE",
"72 345 OFFCURVE",
"72 317 CURVE",
"72 289 OFFCURVE",
"94 272 OFFCURVE",
"122 272 CURVE",
"213 272 LINE",
"272 272 OFFCURVE",
"320 243 OFFCURVE",
"320 175 CURVE",
"320 40 OFFCURVE",
"379 0 OFFCURVE",
"422 0 CURVE SMOOTH"
);
}
);
width = 538;
}
);
unicode = 20B9;
},
{
glyphname = sterling;
lastChange = "2018-04-02 16:38:16 +0000";
layers = (
{
layerId = "3D0525B3-6B2A-4787-8D58-1F6DD6CCA7DC";
paths = (
{
closed = 1;
nodes = (
"397 323 LINE",
"423 323 OFFCURVE",
"442 340 OFFCURVE",
"442 364 CURVE",
"442 390 OFFCURVE",
"423 408 OFFCURVE",
"397 408 CURVE",
"79 408 LINE",
"53 408 OFFCURVE",
"34 391 OFFCURVE",
"34 367 CURVE",
"34 342 OFFCURVE",
"53 323 OFFCURVE",
"79 323 CURVE"
);
},
{
closed = 1;
nodes = (
"171 114 OFFCURVE",
"114 105 OFFCURVE",
"65 88 CURVE",
"38 77 OFFCURVE",
"22 58 OFFCURVE",
"22 35 CURVE",
"22 11 OFFCURVE",
"39 -6 OFFCURVE",
"60 -6 CURVE",
"77 -6 OFFCURVE",
"89 6 OFFCURVE",
"111 12 CURVE SMOOTH",
"129 17 OFFCURVE",
"170 26 OFFCURVE",
"204 26 CURVE",
"263 26 OFFCURVE",
"385 -20 OFFCURVE",
"455 -21 CURVE",
"483 -22 OFFCURVE",
"519 -17 OFFCURVE",
"548 -4 CURVE",
"588 11 OFFCURVE",
"608 30 OFFCURVE",
"608 58 CURVE",
"608 81 OFFCURVE",
"594 102 OFFCURVE",
"568 102 CURVE",
"558 102 OFFCURVE",
"544 97 OFFCURVE",
"533 90 CURVE",
"514 79 OFFCURVE",
"483 67 OFFCURVE",
"455 67 CURVE",
"385 67 OFFCURVE",
"300 114 OFFCURVE",
"217 114 CURVE"
);
},
{
closed = 1;
nodes = (
"222 90 OFFCURVE",
"265 146 OFFCURVE",
"265 224 CURVE",
"265 301 OFFCURVE",
"204 406 OFFCURVE",
"204 486 CURVE",
"204 556 OFFCURVE",
"250 617 OFFCURVE",
"330 617 CURVE",
"379 617 OFFCURVE",
"416 600 OFFCURVE",
"445 569 CURVE",
"453 561 OFFCURVE",
"466 555 OFFCURVE",
"480 555 CURVE",
"507 555 OFFCURVE",
"530 578 OFFCURVE",
"530 605 CURVE",
"530 625 OFFCURVE",
"513 644 OFFCURVE",
"486 661 CURVE",
"448 692 OFFCURVE",
"390 710 OFFCURVE",
"330 710 CURVE",
"189 710 OFFCURVE",
"104 618 OFFCURVE",
"104 487 CURVE",
"104 395 OFFCURVE",
"165 304 OFFCURVE",
"165 201 CURVE",
"165 136 OFFCURVE",
"137 88 OFFCURVE",
"112 74 CURVE",
"187 53 LINE"
);
}
);
width = 620;
}
);
note = sterling;
unicode = 00A3;
},
{
glyphname = won;
lastChange = "2018-04-02 16:38:16 +0000";
layers = (
{
components = (
{
name = W;
}
);
layerId = "3D0525B3-6B2A-4787-8D58-1F6DD6CCA7DC";
paths = (
{
closed = 1;
nodes = (
"154 314 LINE",
"202 328 LINE",
"740 328 LINE",
"789 314 LINE",
"876 314 LINE SMOOTH",
"904 314 OFFCURVE",
"925 334 OFFCURVE",
"925 361 CURVE SMOOTH",
"925 388 OFFCURVE",
"904 407 OFFCURVE",
"876 407 CURVE SMOOTH",
"812 407 LINE",
"776 393 LINE",
"173 393 LINE",
"140 407 LINE",
"71 407 LINE SMOOTH",
"42 407 OFFCURVE",
"21 388 OFFCURVE",
"21 361 CURVE SMOOTH",
"21 334 OFFCURVE",
"42 314 OFFCURVE",
"71 314 CURVE SMOOTH"
);
}
);
width = 952;
}
);
unicode = 20A9;
},
{
glyphname = yen;
lastChange = "2018-04-02 16:38:16 +0000";
layers = (
{
anchors = (
{
name = bottom;
position = "{295, -1}";
},
{
name = top;
position = "{291, 700}";
},
{
name = topleft;
position = "{20, 700}";
}
);
layerId = "3D0525B3-6B2A-4787-8D58-1F6DD6CCA7DC";
paths = (
{
closed = 1;
nodes = (
"456 128 LINE",
"485 128 OFFCURVE",
"506 146 OFFCURVE",
"506 172 CURVE",
"506 196 OFFCURVE",
"485 214 OFFCURVE",
"456 214 CURVE",
"145 216 LINE",
"116 216 OFFCURVE",
"95 198 OFFCURVE",
"95 173 CURVE",
"95 148 OFFCURVE",
"116 130 OFFCURVE",
"145 130 CURVE"
);
},
{
closed = 1;
nodes = (
"455 268 LINE",
"483 268 OFFCURVE",
"504 286 OFFCURVE",
"504 312 CURVE",
"504 336 OFFCURVE",
"483 354 OFFCURVE",
"455 354 CURVE",
"143 356 LINE",
"115 356 OFFCURVE",
"94 338 OFFCURVE",
"94 313 CURVE",
"94 287 OFFCURVE",
"115 270 OFFCURVE",
"143 270 CURVE"
);
},
{
closed = 1;
nodes = (
"502 703 OFFCURVE",
"486 695 OFFCURVE",
"476 679 CURVE SMOOTH",
"289 390 LINE",
"311 387 LINE",
"114 681 LINE SMOOTH",
"103 696 OFFCURVE",
"88 703 OFFCURVE",
"74 703 CURVE SMOOTH",
"50 703 OFFCURVE",
"18 683 OFFCURVE",
"18 654 CURVE SMOOTH",
"18 643 OFFCURVE",
"22 630 OFFCURVE",
"32 617 CURVE SMOOTH",
"249 320 LINE",
"242 349 LINE",
"242 49 LINE",
"242 21 OFFCURVE",
"264 0 OFFCURVE",
"295 0 CURVE",
"325 0 OFFCURVE",
"347 21 OFFCURVE",
"347 49 CURVE",
"347 357 LINE",
"332 299 LINE",
"556 624 LINE SMOOTH",
"563 633 OFFCURVE",
"565 644 OFFCURVE",
"565 654 CURVE SMOOTH",
"565 681 OFFCURVE",
"543 703 OFFCURVE",
"517 703 CURVE SMOOTH"
);
}
);
width = 582;
}
);
note = yen;
unicode = 00A5;
},
{
glyphname = bulletoperator;
lastChange = "2018-04-02 16:38:16 +0000";
layers = (
{
layerId = "3D0525B3-6B2A-4787-8D58-1F6DD6CCA7DC";
paths = (
{
closed = 1;
nodes = (
"161 229 OFFCURVE",
"194 261 OFFCURVE",
"194 301 CURVE SMOOTH",
"194 340 OFFCURVE",
"161 373 OFFCURVE",
"123 373 CURVE SMOOTH",
"83 373 OFFCURVE",
"50 340 OFFCURVE",
"50 301 CURVE SMOOTH",
"50 261 OFFCURVE",
"83 229 OFFCURVE",
"123 229 CURVE SMOOTH"
);
}
);
width = 244;
}
);
note = bulletoperator;
unicode = 2219;
},
{
glyphname = divisionslash;
lastChange = "2018-04-02 16:38:16 +0000";
layers = (
{
layerId = "3D0525B3-6B2A-4787-8D58-1F6DD6CCA7DC";
paths = (
{
closed = 1;
nodes = (
"83 -133 OFFCURVE",
"98 -123 OFFCURVE",
"105 -107 CURVE SMOOTH",
"524 740 LINE SMOOTH",
"527 747 OFFCURVE",
"529 756 OFFCURVE",
"529 763 CURVE SMOOTH",
"529 787 OFFCURVE",
"511 801 OFFCURVE",
"486 801 CURVE SMOOTH",
"469 801 OFFCURVE",
"455 791 OFFCURVE",
"447 774 CURVE SMOOTH",
"28 -73 LINE SMOOTH",
"25 -80 OFFCURVE",
"23 -87 OFFCURVE",
"23 -93 CURVE SMOOTH",
"23 -117 OFFCURVE",
"46 -133 OFFCURVE",
"67 -133 CURVE SMOOTH"
);
}
);
width = 551;
}
);
note = divisionslash;
unicode = 2215;
},
{
glyphname = plus;
lastChange = "2018-04-02 16:38:16 +0000";
layers = (
{
layerId = "3D0525B3-6B2A-4787-8D58-1F6DD6CCA7DC";
paths = (
{
closed = 1;
nodes = (
"498 235 LINE",
"524 235 OFFCURVE",
"544 254 OFFCURVE",
"544 280 CURVE",
"544 306 OFFCURVE",
"524 325 OFFCURVE",
"498 325 CURVE",
"89 325 LINE",
"63 325 OFFCURVE",
"43 307 OFFCURVE",
"43 281 CURVE",
"43 255 OFFCURVE",
"63 235 OFFCURVE",
"89 235 CURVE"
);
},
{
closed = 1;
nodes = (
"323 32 OFFCURVE",
"345 54 OFFCURVE",
"345 84 CURVE",
"345 487 LINE",
"345 517 OFFCURVE",
"324 539 OFFCURVE",
"293 539 CURVE",
"262 539 OFFCURVE",
"240 517 OFFCURVE",
"240 487 CURVE",
"240 84 LINE",
"240 54 OFFCURVE",
"262 32 OFFCURVE",
"292 32 CURVE"
);
}
);
width = 572;
}
);
note = plus;
unicode = 002B;
},
{
glyphname = minus;
lastChange = "2018-04-02 16:38:16 +0000";
layers = (
{
layerId = "3D0525B3-6B2A-4787-8D58-1F6DD6CCA7DC";
paths = (
{
closed = 1;
nodes = (
"482 247 LINE",
"510 247 OFFCURVE",
"530 267 OFFCURVE",
"530 292 CURVE",
"530 317 OFFCURVE",
"510 336 OFFCURVE",
"482 336 CURVE",
"98 336 LINE",
"70 336 OFFCURVE",
"50 318 OFFCURVE",
"50 292 CURVE",
"50 267 OFFCURVE",
"70 247 OFFCURVE",
"98 247 CURVE"
);
}
);
width = 580;
}
);
note = minus;
unicode = 2212;
},
{
glyphname = multiply;
lastChange = "2018-04-02 16:38:16 +0000";
layers = (
{
layerId = "3D0525B3-6B2A-4787-8D58-1F6DD6CCA7DC";
paths = (
{
closed = 1;
nodes = (
"102 87 OFFCURVE",
"114 92 OFFCURVE",
"124 102 CURVE",
"417 394 LINE",
"427 404 OFFCURVE",
"432 415 OFFCURVE",
"432 427 CURVE SMOOTH",
"432 448 OFFCURVE",
"413 472 OFFCURVE",
"386 472 CURVE SMOOTH",
"375 472 OFFCURVE",
"363 468 OFFCURVE",
"353 458 CURVE",
"60 165 LINE",
"51 156 OFFCURVE",
"46 144 OFFCURVE",
"46 133 CURVE SMOOTH",
"46 109 OFFCURVE",
"68 87 OFFCURVE",
"91 87 CURVE SMOOTH"
);
},
{
closed = 1;
nodes = (
"362 92 OFFCURVE",
"374 87 OFFCURVE",
"385 87 CURVE SMOOTH",
"405 87 OFFCURVE",
"430 104 OFFCURVE",
"430 132 CURVE SMOOTH",
"430 143 OFFCURVE",
"425 156 OFFCURVE",
"416 165 CURVE",
"127 457 LINE",
"117 467 OFFCURVE",
"105 472 OFFCURVE",
"94 472 CURVE SMOOTH",
"72 472 OFFCURVE",
"50 453 OFFCURVE",
"50 426 CURVE SMOOTH",
"50 415 OFFCURVE",
"54 403 OFFCURVE",
"63 393 CURVE",
"352 101 LINE"
);
}
);
width = 478;
}
);
note = multiply;
unicode = 00D7;
},
{
glyphname = divide;
lastChange = "2018-04-02 16:38:16 +0000";
layers = (
{
layerId = "3D0525B3-6B2A-4787-8D58-1F6DD6CCA7DC";
paths = (
{
closed = 1;
nodes = (
"227 401 OFFCURVE",
"257 372 OFFCURVE",
"293 372 CURVE SMOOTH",
"328 372 OFFCURVE",
"358 401 OFFCURVE",
"358 436 CURVE SMOOTH",
"358 473 OFFCURVE",
"328 502 OFFCURVE",
"293 502 CURVE SMOOTH",
"257 502 OFFCURVE",
"227 473 OFFCURVE",
"227 436 CURVE SMOOTH"
);
},
{
closed = 1;
nodes = (
"227 44 OFFCURVE",
"257 15 OFFCURVE",
"293 15 CURVE SMOOTH",
"328 15 OFFCURVE",
"358 44 OFFCURVE",
"358 80 CURVE SMOOTH",
"358 116 OFFCURVE",
"328 145 OFFCURVE",
"293 145 CURVE SMOOTH",
"257 145 OFFCURVE",
"227 116 OFFCURVE",
"227 80 CURVE SMOOTH"
);
},
{
closed = 1;
nodes = (
"499 215 LINE",
"527 215 OFFCURVE",
"547 235 OFFCURVE",
"547 260 CURVE",
"547 285 OFFCURVE",
"527 305 OFFCURVE",
"499 305 CURVE",
"98 305 LINE",
"70 305 OFFCURVE",
"50 286 OFFCURVE",
"50 261 CURVE",
"50 235 OFFCURVE",
"70 215 OFFCURVE",
"98 215 CURVE"
);
}
);
width = 597;
}
);
note = divide;
unicode = 00F7;
},
{
glyphname = equal;
lastChange = "2018-04-02 16:38:16 +0000";
layers = (
{
layerId = "3D0525B3-6B2A-4787-8D58-1F6DD6CCA7DC";
paths = (
{
closed = 1;
nodes = (
"468 331 LINE",
"496 331 OFFCURVE",
"516 352 OFFCURVE",
"516 377 CURVE",
"516 401 OFFCURVE",
"496 421 OFFCURVE",
"468 421 CURVE",
"98 421 LINE",
"70 421 OFFCURVE",
"50 402 OFFCURVE",
"50 377 CURVE",
"50 352 OFFCURVE",
"70 331 OFFCURVE",
"98 331 CURVE"
);
},
{
closed = 1;
nodes = (
"468 142 LINE",
"496 142 OFFCURVE",
"516 162 OFFCURVE",
"516 187 CURVE",
"516 212 OFFCURVE",
"496 231 OFFCURVE",
"468 231 CURVE",
"98 231 LINE",
"70 231 OFFCURVE",
"50 213 OFFCURVE",
"50 187 CURVE",
"50 162 OFFCURVE",
"70 142 OFFCURVE",
"98 142 CURVE"
);
}
);
width = 566;
}
);
note = equal;
unicode = 003D;
},
{
glyphname = notequal;
lastChange = "2018-04-02 16:38:16 +0000";
layers = (
{
layerId = "3D0525B3-6B2A-4787-8D58-1F6DD6CCA7DC";
paths = (
{
closed = 1;
nodes = (
"468 331 LINE",
"496 331 OFFCURVE",
"516 352 OFFCURVE",
"516 377 CURVE",
"516 401 OFFCURVE",
"496 421 OFFCURVE",
"468 421 CURVE",
"98 421 LINE",
"70 421 OFFCURVE",
"50 402 OFFCURVE",
"50 377 CURVE",
"50 352 OFFCURVE",
"70 331 OFFCURVE",
"98 331 CURVE"
);
},
{
closed = 1;
nodes = (
"468 142 LINE",
"496 142 OFFCURVE",
"516 162 OFFCURVE",
"516 187 CURVE",
"516 212 OFFCURVE",
"496 231 OFFCURVE",
"468 231 CURVE",
"98 231 LINE",
"70 231 OFFCURVE",
"50 213 OFFCURVE",
"50 187 CURVE",
"50 162 OFFCURVE",
"70 142 OFFCURVE",
"98 142 CURVE"
);
},
{
closed = 1;
nodes = (
"172 25 OFFCURVE",
"184 34 OFFCURVE",
"193 49 CURVE SMOOTH",
"427 486 LINE SMOOTH",
"430 493 OFFCURVE",
"433 500 OFFCURVE",
"433 506 CURVE SMOOTH",
"433 527 OFFCURVE",
"406 537 OFFCURVE",
"391 537 CURVE SMOOTH",
"376 537 OFFCURVE",
"364 528 OFFCURVE",
"356 513 CURVE SMOOTH",
"121 76 LINE SMOOTH",
"118 69 OFFCURVE",
"115 62 OFFCURVE",
"115 56 CURVE SMOOTH",
"115 36 OFFCURVE",
"141 25 OFFCURVE",
"157 25 CURVE SMOOTH"
);
}
);
width = 566;
}
);
note = notequal;
unicode = 2260;
},
{
glyphname = greater;
lastChange = "2018-04-02 16:38:16 +0000";
layers = (
{
layerId = "3D0525B3-6B2A-4787-8D58-1F6DD6CCA7DC";
paths = (
{
closed = 1;
nodes = (
"112 0 OFFCURVE",
"125 6 OFFCURVE",
"138 14 CURVE SMOOTH",
"476 205 LINE SMOOTH",
"492 214 OFFCURVE",
"499 229 OFFCURVE",
"499 247 CURVE SMOOTH",
"499 264 OFFCURVE",
"490 279 OFFCURVE",
"475 288 CURVE SMOOTH",
"140 482 LINE SMOOTH",
"125 491 OFFCURVE",
"111 499 OFFCURVE",
"99 499 CURVE SMOOTH",
"80 499 OFFCURVE",
"57 476 OFFCURVE",
"57 450 CURVE SMOOTH",
"57 435 OFFCURVE",
"63 423 OFFCURVE",
"78 415 CURVE SMOOTH",
"433 208 LINE",
"428 280 LINE",
"78 82 LINE SMOOTH",
"62 73 OFFCURVE",
"56 62 OFFCURVE",
"56 48 CURVE SMOOTH",
"56 25 OFFCURVE",
"78 0 OFFCURVE",
"100 0 CURVE SMOOTH"
);
}
);
width = 527;
}
);
note = greater;
unicode = 003E;
},
{
glyphname = less;
lastChange = "2018-04-02 16:38:16 +0000";
layers = (
{
layerId = "3D0525B3-6B2A-4787-8D58-1F6DD6CCA7DC";
paths = (
{
closed = 1;
nodes = (
"445 0 OFFCURVE",
"468 23 OFFCURVE",
"468 49 CURVE SMOOTH",
"468 63 OFFCURVE",
"462 75 OFFCURVE",
"445 84 CURVE SMOOTH",
"93 290 LINE",
"98 218 LINE",
"447 418 LINE SMOOTH",
"461 426 OFFCURVE",
"468 437 OFFCURVE",
"468 451 CURVE SMOOTH",
"468 473 OFFCURVE",
"445 499 OFFCURVE",
"422 499 CURVE SMOOTH",
"411 499 OFFCURVE",
"398 493 OFFCURVE",
"385 485 CURVE SMOOTH",
"52 295 LINE SMOOTH",
"36 286 OFFCURVE",
"28 271 OFFCURVE",
"28 253 CURVE SMOOTH",
"28 236 OFFCURVE",
"35 221 OFFCURVE",
"51 211 CURVE SMOOTH",
"386 17 LINE SMOOTH",
"401 8 OFFCURVE",
"414 0 OFFCURVE",
"427 0 CURVE SMOOTH"
);
}
);
width = 524;
}
);
note = less;
unicode = 003C;
},
{
glyphname = greaterequal;
lastChange = "2018-04-02 16:38:16 +0000";
layers = (
{
layerId = "3D0525B3-6B2A-4787-8D58-1F6DD6CCA7DC";
paths = (
{
closed = 1;
nodes = (
"136 145 OFFCURVE",
"153 150 OFFCURVE",
"168 156 CURVE",
"531 293 LINE",
"548 300 OFFCURVE",
"555 316 OFFCURVE",
"555 335 CURVE",
"555 353 OFFCURVE",
"546 370 OFFCURVE",
"530 376 CURVE",
"169 509 LINE",
"152 515 OFFCURVE",
"136 522 OFFCURVE",
"121 522 CURVE",
"98 522 OFFCURVE",
"84 499 OFFCURVE",
"84 477 CURVE",
"84 461 OFFCURVE",
"91 447 OFFCURVE",
"107 440 CURVE",
"489 301 LINE",
"484 365 LINE",
"115 227 LINE",
"96 219 OFFCURVE",
"86 205 OFFCURVE",
"86 186 CURVE",
"86 167 OFFCURVE",
"97 145 OFFCURVE",
"123 145 CURVE"
);
},
{
closed = 1;
nodes = (
"508 0 LINE",
"536 0 OFFCURVE",
"556 20 OFFCURVE",
"556 45 CURVE",
"556 71 OFFCURVE",
"536 90 OFFCURVE",
"508 90 CURVE",
"107 90 LINE",
"79 90 OFFCURVE",
"59 71 OFFCURVE",
"59 46 CURVE",
"59 20 OFFCURVE",
"79 0 OFFCURVE",
"107 0 CURVE"
);
}
);
width = 627;
}
);
note = greaterequal;
unicode = 2265;
},
{
glyphname = lessequal;
lastChange = "2018-04-02 16:38:16 +0000";
layers = (
{
layerId = "3D0525B3-6B2A-4787-8D58-1F6DD6CCA7DC";
paths = (
{
closed = 1;
nodes = (
"513 0 LINE",
"541 0 OFFCURVE",
"561 20 OFFCURVE",
"561 45 CURVE",
"561 71 OFFCURVE",
"541 90 OFFCURVE",
"513 90 CURVE",
"112 90 LINE",
"84 90 OFFCURVE",
"64 71 OFFCURVE",
"64 46 CURVE",
"64 20 OFFCURVE",
"84 0 OFFCURVE",
"112 0 CURVE"
);
},
{
closed = 1;
nodes = (
"522 142 OFFCURVE",
"536 164 OFFCURVE",
"536 186 CURVE",
"536 203 OFFCURVE",
"529 217 OFFCURVE",
"513 223 CURVE",
"131 362 LINE",
"136 299 LINE",
"505 436 LINE",
"524 444 OFFCURVE",
"534 459 OFFCURVE",
"534 477 CURVE",
"534 497 OFFCURVE",
"523 518 OFFCURVE",
"497 518 CURVE",
"484 518 OFFCURVE",
"467 513 OFFCURVE",
"452 508 CURVE",
"89 370 LINE",
"72 364 OFFCURVE",
"65 347 OFFCURVE",
"65 329 CURVE",
"65 310 OFFCURVE",
"74 294 OFFCURVE",
"90 287 CURVE",
"451 155 LINE",
"468 148 OFFCURVE",
"484 142 OFFCURVE",
"499 142 CURVE"
);
}
);
width = 627;
}
);
note = lessequal;
unicode = 2264;
},
{
glyphname = plusminus;
lastChange = "2018-04-02 16:38:16 +0000";
layers = (
{
layerId = "3D0525B3-6B2A-4787-8D58-1F6DD6CCA7DC";
paths = (
{
closed = 1;
nodes = (
"479 285 LINE",
"505 285 OFFCURVE",
"525 304 OFFCURVE",
"525 330 CURVE",
"525 356 OFFCURVE",
"505 375 OFFCURVE",
"479 375 CURVE",
"91 375 LINE",
"65 375 OFFCURVE",
"45 357 OFFCURVE",
"45 331 CURVE",
"45 305 OFFCURVE",
"65 285 OFFCURVE",
"91 285 CURVE"
);
},
{
closed = 1;
nodes = (
"316 143 OFFCURVE",
"337 165 OFFCURVE",
"337 195 CURVE",
"337 482 LINE",
"337 512 OFFCURVE",
"317 534 OFFCURVE",
"286 534 CURVE",
"255 534 OFFCURVE",
"233 512 OFFCURVE",
"233 482 CURVE",
"233 195 LINE",
"233 165 OFFCURVE",
"255 143 OFFCURVE",
"285 143 CURVE"
);
},
{
closed = 1;
nodes = (
"468 -1 LINE SMOOTH",
"494 -1 OFFCURVE",
"514 18 OFFCURVE",
"514 45 CURVE SMOOTH",
"514 71 OFFCURVE",
"494 91 OFFCURVE",
"468 91 CURVE SMOOTH",
"89 91 LINE SMOOTH",
"63 91 OFFCURVE",
"43 71 OFFCURVE",
"43 45 CURVE SMOOTH",
"43 19 OFFCURVE",
"63 -1 OFFCURVE",
"89 -1 CURVE SMOOTH"
);
}
);
width = 557;
}
);
note = plusminus;
unicode = 00B1;
},
{
glyphname = approxequal;
lastChange = "2018-04-02 16:38:16 +0000";
layers = (
{
layerId = "3D0525B3-6B2A-4787-8D58-1F6DD6CCA7DC";
paths = (
{
closed = 1;
nodes = (
"479 284 OFFCURVE",
"509 327 OFFCURVE",
"509 380 CURVE",
"509 412 OFFCURVE",
"489 433 OFFCURVE",
"465 433 CURVE",
"445 433 OFFCURVE",
"428 417 OFFCURVE",
"435 393 CURVE",
"438 372 OFFCURVE",
"428 359 OFFCURVE",
"410 359 CURVE",
"358 359 OFFCURVE",
"232 433 OFFCURVE",
"162 433 CURVE",
"85 433 OFFCURVE",
"50 392 OFFCURVE",
"50 339 CURVE",
"50 306 OFFCURVE",
"70 285 OFFCURVE",
"94 285 CURVE",
"113 285 OFFCURVE",
"130 300 OFFCURVE",
"124 324 CURVE",
"123 345 OFFCURVE",
"134 358 OFFCURVE",
"151 358 CURVE",
"203 358 OFFCURVE",
"336 284 OFFCURVE",
"405 284 CURVE"
);
},
{
closed = 1;
nodes = (
"479 101 OFFCURVE",
"509 144 OFFCURVE",
"509 197 CURVE",
"509 229 OFFCURVE",
"489 250 OFFCURVE",
"465 250 CURVE",
"445 250 OFFCURVE",
"428 234 OFFCURVE",
"435 210 CURVE",
"438 189 OFFCURVE",
"430 175 OFFCURVE",
"410 175 CURVE",
"358 175 OFFCURVE",
"232 250 OFFCURVE",
"162 250 CURVE",
"85 250 OFFCURVE",
"50 209 OFFCURVE",
"50 156 CURVE",
"50 122 OFFCURVE",
"70 102 OFFCURVE",
"94 102 CURVE",
"113 102 OFFCURVE",
"130 116 OFFCURVE",
"124 141 CURVE",
"123 163 OFFCURVE",
"133 175 OFFCURVE",
"151 175 CURVE",
"203 175 OFFCURVE",
"336 101 OFFCURVE",
"405 101 CURVE"
);
}
);
width = 559;
}
);
note = approxequal;
unicode = 2248;
},
{
glyphname = asciitilde;
lastChange = "2018-04-02 16:38:16 +0000";
layers = (
{
layerId = "3D0525B3-6B2A-4787-8D58-1F6DD6CCA7DC";
paths = (
{
closed = 1;
nodes = (
"430 225 OFFCURVE",
"460 261 OFFCURVE",
"460 314 CURVE SMOOTH",
"460 345 OFFCURVE",
"440 367 OFFCURVE",
"416 367 CURVE SMOOTH",
"396 367 OFFCURVE",
"380 351 OFFCURVE",
"386 327 CURVE SMOOTH",
"388 310 OFFCURVE",
"377 299 OFFCURVE",
"361 299 CURVE",
"322 299 OFFCURVE",
"217 359 OFFCURVE",
"162 359 CURVE SMOOTH",
"85 359 OFFCURVE",
"50 326 OFFCURVE",
"50 273 CURVE SMOOTH",
"50 239 OFFCURVE",
"70 219 OFFCURVE",
"94 219 CURVE SMOOTH",
"113 219 OFFCURVE",
"130 233 OFFCURVE",
"124 257 CURVE SMOOTH",
"124 276 OFFCURVE",
"135 285 OFFCURVE",
"151 285 CURVE SMOOTH",
"191 285 OFFCURVE",
"302 225 OFFCURVE",
"356 225 CURVE"
);
}
);
width = 510;
}
);
note = asciitilde;
unicode = 007E;
},
{
glyphname = logicalnot;
lastChange = "2018-04-02 16:38:16 +0000";
layers = (
{
layerId = "3D0525B3-6B2A-4787-8D58-1F6DD6CCA7DC";
paths = (
{
closed = 1;
nodes = (
"598 117 OFFCURVE",
"620 138 OFFCURVE",
"620 167 CURVE",
"620 360 LINE",
"620 386 OFFCURVE",
"602 404 OFFCURVE",
"576 404 CURVE",
"93 404 LINE",
"68 404 OFFCURVE",
"50 383 OFFCURVE",
"50 356 CURVE",
"50 327 OFFCURVE",
"68 307 OFFCURVE",
"93 307 CURVE",
"534 307 LINE",
"515 319 LINE",
"515 167 LINE",
"515 138 OFFCURVE",
"538 117 OFFCURVE",
"567 117 CURVE"
);
}
);
width = 670;
}
);
note = logicalnot;
unicode = 00AC;
},
{
glyphname = emptyset;
lastChange = "2018-04-02 16:38:16 +0000";
layers = (
{
layerId = "3D0525B3-6B2A-4787-8D58-1F6DD6CCA7DC";
paths = (
{
closed = 1;
nodes = (
"91 -13 OFFCURVE",
"104 -6 OFFCURVE",
"116 5 CURVE SMOOTH",
"570 448 LINE SMOOTH",
"581 459 OFFCURVE",
"587 471 OFFCURVE",
"587 484 CURVE SMOOTH",
"587 507 OFFCURVE",
"566 528 OFFCURVE",
"543 528 CURVE SMOOTH",
"530 528 OFFCURVE",
"517 522 OFFCURVE",
"505 510 CURVE SMOOTH",
"51 67 LINE SMOOTH",
"40 56 OFFCURVE",
"34 44 OFFCURVE",
"34 32 CURVE SMOOTH",
"34 9 OFFCURVE",
"55 -13 OFFCURVE",
"78 -13 CURVE SMOOTH"
);
},
{
closed = 1;
nodes = (
"457 -10 OFFCURVE",
"573 107 OFFCURVE",
"573 256 CURVE SMOOTH",
"573 411 OFFCURVE",
"450 522 OFFCURVE",
"311 522 CURVE SMOOTH",
"165 522 OFFCURVE",
"50 404 OFFCURVE",
"50 256 CURVE SMOOTH",
"50 113 OFFCURVE",
"170 -10 OFFCURVE",
"311 -10 CURVE SMOOTH"
);
},
{
closed = 1;
nodes = (
"220 79 OFFCURVE",
"147 160 OFFCURVE",
"147 256 CURVE SMOOTH",
"147 351 OFFCURVE",
"219 433 OFFCURVE",
"311 433 CURVE SMOOTH",
"406 433 OFFCURVE",
"476 355 OFFCURVE",
"476 256 CURVE SMOOTH",
"476 161 OFFCURVE",
"410 79 OFFCURVE",
"311 79 CURVE SMOOTH"
);
}
);
width = 621;
}
);
note = emptyset;
unicode = 2205;
},
{
glyphname = infinity;
lastChange = "2018-04-02 16:38:16 +0000";
layers = (
{
layerId = "3D0525B3-6B2A-4787-8D58-1F6DD6CCA7DC";
paths = (
{
closed = 1;
nodes = (
"284 47 OFFCURVE",
"324 76 OFFCURVE",
"371 125 CURVE SMOOTH",
"542 306 LINE SMOOTH",
"570 334 OFFCURVE",
"607 355 OFFCURVE",
"645 355 CURVE SMOOTH",
"691 355 OFFCURVE",
"739 320 OFFCURVE",
"739 242 CURVE SMOOTH",
"739 164 OFFCURVE",
"694 129 OFFCURVE",
"645 129 CURVE SMOOTH",
"609 129 OFFCURVE",
"578 145 OFFCURVE",
"547 177 CURVE SMOOTH",
"379 353 LINE SMOOTH",
"328 406 OFFCURVE",
"288 437 OFFCURVE",
"215 437 CURVE SMOOTH",
"128 437 OFFCURVE",
"45 375 OFFCURVE",
"45 242 CURVE SMOOTH",
"45 109 OFFCURVE",
"125 47 OFFCURVE",
"213 47 CURVE SMOOTH"
);
},
{
closed = 1;
nodes = (
"173 129 OFFCURVE",
"128 164 OFFCURVE",
"128 242 CURVE SMOOTH",
"128 320 OFFCURVE",
"175 355 OFFCURVE",
"221 355 CURVE SMOOTH",
"260 355 OFFCURVE",
"297 334 OFFCURVE",
"324 306 CURVE SMOOTH",
"496 125 LINE SMOOTH",
"542 77 OFFCURVE",
"583 47 OFFCURVE",
"654 47 CURVE SMOOTH",
"742 47 OFFCURVE",
"822 109 OFFCURVE",
"822 242 CURVE SMOOTH",
"822 375 OFFCURVE",
"739 437 OFFCURVE",
"652 437 CURVE SMOOTH",
"579 437 OFFCURVE",
"539 407 OFFCURVE",
"488 353 CURVE SMOOTH",
"320 177 LINE SMOOTH",
"290 145 OFFCURVE",
"258 129 OFFCURVE",
"222 129 CURVE SMOOTH"
);
}
);
width = 867;
}
);
unicode = 221E;
},
{
glyphname = integral;
lastChange = "2018-04-02 16:38:16 +0000";
layers = (
{
layerId = "3D0525B3-6B2A-4787-8D58-1F6DD6CCA7DC";
paths = (
{
closed = 1;
nodes = (
"204 -127 OFFCURVE",
"267 -67 OFFCURVE",
"290 71 CURVE SMOOTH",
"370 550 LINE SMOOTH",
"378 597 OFFCURVE",
"397 644 OFFCURVE",
"445 644 CURVE SMOOTH",
"465 644 OFFCURVE",
"475 636 OFFCURVE",
"498 636 CURVE SMOOTH",
"530 635 OFFCURVE",
"547 658 OFFCURVE",
"547 685 CURVE SMOOTH",
"547 736 OFFCURVE",
"496 745 OFFCURVE",
"444 745 CURVE SMOOTH",
"353 745 OFFCURVE",
"292 685 OFFCURVE",
"268 547 CURVE SMOOTH",
"187 68 LINE SMOOTH",
"179 21 OFFCURVE",
"156 -21 OFFCURVE",
"113 -21 CURVE SMOOTH",
"94 -21 OFFCURVE",
"88 -15 OFFCURVE",
"68 -15 CURVE SMOOTH",
"32 -15 OFFCURVE",
"11 -42 OFFCURVE",
"11 -73 CURVE SMOOTH",
"11 -118 OFFCURVE",
"61 -127 OFFCURVE",
"111 -127 CURVE SMOOTH"
);
}
);
width = 553;
}
);
note = integral;
unicode = 222B;
},
{
glyphname = Ohm;
lastChange = "2018-04-02 16:38:16 +0000";
layers = (
{
layerId = "3D0525B3-6B2A-4787-8D58-1F6DD6CCA7DC";
paths = (
{
closed = 1;
nodes = (
"161 710 OFFCURVE",
"25 581 OFFCURVE",
"25 404 CURVE",
"25 267 OFFCURVE",
"120 141 OFFCURVE",
"185 65 CURVE",
"210 97 LINE",
"83 97 LINE",
"57 97 OFFCURVE",
"39 76 OFFCURVE",
"39 49 CURVE",
"39 21 OFFCURVE",
"57 0 OFFCURVE",
"83 0 CURVE",
"241 0 LINE",
"261 0 OFFCURVE",
"281 14 OFFCURVE",
"281 46 CURVE",
"281 68 OFFCURVE",
"272 75 OFFCURVE",
"266 83 CURVE",
"179 192 OFFCURVE",
"123 296 OFFCURVE",
"123 403 CURVE",
"123 524 OFFCURVE",
"215 613 OFFCURVE",
"338 613 CURVE",
"460 613 OFFCURVE",
"553 524 OFFCURVE",
"553 403 CURVE",
"553 295 OFFCURVE",
"497 191 OFFCURVE",
"407 81 CURVE",
"401 74 OFFCURVE",
"394 68 OFFCURVE",
"394 47 CURVE",
"394 14 OFFCURVE",
"414 0 OFFCURVE",
"434 0 CURVE",
"592 0 LINE",
"618 0 OFFCURVE",
"636 21 OFFCURVE",
"636 49 CURVE",
"636 76 OFFCURVE",
"618 97 OFFCURVE",
"592 97 CURVE",
"472 97 LINE",
"491 66 LINE",
"554 140 OFFCURVE",
"650 268 OFFCURVE",
"650 403 CURVE",
"650 582 OFFCURVE",
"514 710 OFFCURVE",
"338 710 CURVE"
);
}
);
width = 675;
}
);
note = Ohm;
unicode = 2126;
},
{
glyphname = increment;
lastChange = "2018-04-02 16:38:16 +0000";
layers = (
{
layerId = "3D0525B3-6B2A-4787-8D58-1F6DD6CCA7DC";
paths = (
{
closed = 1;
nodes = (
"394 678 LINE SMOOTH",
"387 695 OFFCURVE",
"373 704 OFFCURVE",
"357 705 CURVE SMOOTH",
"340 705 OFFCURVE",
"324 696 OFFCURVE",
"316 679 CURVE SMOOTH",
"40 60 LINE SMOOTH",
"33 44 OFFCURVE",
"35 28 OFFCURVE",
"46 16 CURVE",
"53 6 OFFCURVE",
"65 0 OFFCURVE",
"79 0 CURVE SMOOTH",
"631 0 LINE SMOOTH",
"649 0 OFFCURVE",
"662 9 OFFCURVE",
"669 23 CURVE",
"675 33 OFFCURVE",
"676 47 OFFCURVE",
"671 60 CURVE SMOOTH"
);
},
{
closed = 1;
nodes = (
"352 555 LINE",
"353 559 OFFCURVE",
"357 559 OFFCURVE",
"358 555 CURVE",
"567 89 LINE",
"568 85 OFFCURVE",
"567 83 OFFCURVE",
"563 83 CURVE SMOOTH",
"147 83 LINE SMOOTH",
"143 83 OFFCURVE",
"141 85 OFFCURVE",
"143 89 CURVE"
);
}
);
width = 711;
}
);
note = increment;
unicode = 2206;
},
{
glyphname = product;
lastChange = "2018-04-02 16:38:16 +0000";
layers = (
{
layerId = "3D0525B3-6B2A-4787-8D58-1F6DD6CCA7DC";
paths = (
{
closed = 1;
nodes = (
"208 -200 OFFCURVE",
"231 -178 OFFCURVE",
"231 -147 CURVE",
"231 641 LINE",
"127 641 LINE",
"127 -147 LINE",
"127 -178 OFFCURVE",
"148 -200 OFFCURVE",
"177 -200 CURVE"
);
},
{
closed = 1;
nodes = (
"637 603 LINE",
"662 603 OFFCURVE",
"680 624 OFFCURVE",
"680 650 CURVE",
"680 679 OFFCURVE",
"662 700 OFFCURVE",
"637 700 CURVE",
"70 700 LINE",
"45 700 OFFCURVE",
"28 680 OFFCURVE",
"28 653 CURVE",
"28 624 OFFCURVE",
"45 603 OFFCURVE",
"70 603 CURVE"
);
},
{
closed = 1;
nodes = (
"559 -200 OFFCURVE",
"581 -178 OFFCURVE",
"581 -147 CURVE",
"581 656 LINE",
"476 656 LINE",
"476 -147 LINE",
"476 -178 OFFCURVE",
"499 -200 OFFCURVE",
"527 -200 CURVE"
);
}
);
width = 708;
}
);
note = product;
unicode = 220F;
},
{
glyphname = summation;
lastChange = "2018-04-02 16:38:16 +0000";
layers = (
{
layerId = "3D0525B3-6B2A-4787-8D58-1F6DD6CCA7DC";
paths = (
{
closed = 1;
nodes = (
"438 0 LINE SMOOTH",
"463 0 OFFCURVE",
"480 17 OFFCURVE",
"480 41 CURVE SMOOTH",
"480 64 OFFCURVE",
"463 81 OFFCURVE",
"438 81 CURVE SMOOTH",
"143 81 LINE",
"146 70 LINE",
"363 311 LINE SMOOTH",
"378 327 OFFCURVE",
"379 349 OFFCURVE",
"363 366 CURVE SMOOTH",
"147 607 LINE",
"137 594 LINE",
"438 594 LINE SMOOTH",
"463 594 OFFCURVE",
"480 611 OFFCURVE",
"480 634 CURVE SMOOTH",
"480 658 OFFCURVE",
"463 676 OFFCURVE",
"438 676 CURVE SMOOTH",
"105 676 LINE SMOOTH",
"48 676 OFFCURVE",
"23 618 OFFCURVE",
"61 576 CURVE SMOOTH",
"291 328 LINE",
"288 347 LINE",
"61 100 LINE SMOOTH",
"22 58 OFFCURVE",
"48 0 OFFCURVE",
"105 0 CURVE SMOOTH"
);
}
);
width = 523;
}
);
note = summation;
unicode = 2211;
},
{
glyphname = radical;
lastChange = "2018-04-02 16:38:16 +0000";
layers = (
{
layerId = "3D0525B3-6B2A-4787-8D58-1F6DD6CCA7DC";
paths = (
{
closed = 1;
nodes = (
"381 0 OFFCURVE",
"395 10 OFFCURVE",
"404 32 CURVE SMOOTH",
"630 634 LINE SMOOTH",
"633 640 OFFCURVE",
"634 646 OFFCURVE",
"634 652 CURVE SMOOTH",
"634 675 OFFCURVE",
"614 693 OFFCURVE",
"590 693 CURVE SMOOTH",
"573 693 OFFCURVE",
"559 683 OFFCURVE",
"551 665 CURVE SMOOTH",
"351 124 LINE",
"363 123 LINE",
"232 397 LINE SMOOTH",
"225 413 OFFCURVE",
"211 422 OFFCURVE",
"197 422 CURVE",
"189 423 OFFCURVE",
"181 422 OFFCURVE",
"173 418 CURVE SMOOTH",
"73 370 LINE SMOOTH",
"55 362 OFFCURVE",
"46 348 OFFCURVE",
"46 332 CURVE SMOOTH",
"46 312 OFFCURVE",
"60 290 OFFCURVE",
"86 290 CURVE SMOOTH",
"92 290 OFFCURVE",
"99 292 OFFCURVE",
"106 295 CURVE SMOOTH",
"196 337 LINE",
"165 339 LINE",
"318 28 LINE",
"327 11 OFFCURVE",
"341 1 OFFCURVE",
"358 0 CURVE"
);
}
);
width = 673;
}
);
note = radical;
unicode = 221A;
},
{
glyphname = partialdiff;
lastChange = "2018-04-02 16:38:16 +0000";
layers = (
{
layerId = "3D0525B3-6B2A-4787-8D58-1F6DD6CCA7DC";
paths = (
{
closed = 1;
nodes = (
"462 -7 OFFCURVE",
"549 142 OFFCURVE",
"549 280 CURVE",
"549 480 OFFCURVE",
"430 720 OFFCURVE",
"232 735 CURVE",
"197 736 OFFCURVE",
"181 718 OFFCURVE",
"181 688 CURVE",
"181 668 OFFCURVE",
"192 647 OFFCURVE",
"240 640 CURVE",
"351 621 OFFCURVE",
"450 481 OFFCURVE",
"458 345 CURVE",
"494 362 LINE",
"443 465 OFFCURVE",
"386 536 OFFCURVE",
"281 536 CURVE",
"159 536 OFFCURVE",
"39 417 OFFCURVE",
"39 265 CURVE",
"39 113 OFFCURVE",
"151 -7 OFFCURVE",
"293 -7 CURVE"
);
},
{
closed = 1;
nodes = (
"206 82 OFFCURVE",
"135 162 OFFCURVE",
"135 265 CURVE",
"135 368 OFFCURVE",
"206 446 OFFCURVE",
"296 446 CURVE",
"388 446 OFFCURVE",
"458 365 OFFCURVE",
"458 265 CURVE",
"458 162 OFFCURVE",
"387 82 OFFCURVE",
"296 82 CURVE"
);
}
);
width = 587;
}
);
leftMetricsKey = o;
note = partialdiff;
rightMetricsKey = o;
unicode = 2202;
},
{
glyphname = micro;
lastChange = "2018-04-02 16:38:16 +0000";
layers = (
{
layerId = "3D0525B3-6B2A-4787-8D58-1F6DD6CCA7DC";
paths = (
{
closed = 1;
nodes = (
"439 515 OFFCURVE",
"419 494 OFFCURVE",
"419 466 CURVE SMOOTH",
"419 222 LINE SMOOTH",
"419 146 OFFCURVE",
"363 80 OFFCURVE",
"284 80 CURVE SMOOTH",
"202 80 OFFCURVE",
"177 143 OFFCURVE",
"177 222 CURVE SMOOTH",
"177 466 LINE SMOOTH",
"177 494 OFFCURVE",
"157 515 OFFCURVE",
"129 515 CURVE SMOOTH",
"100 515 OFFCURVE",
"80 494 OFFCURVE",
"80 466 CURVE SMOOTH",
"81 -109 LINE SMOOTH",
"81 -140 OFFCURVE",
"98 -157 OFFCURVE",
"129 -157 CURVE SMOOTH",
"160 -157 OFFCURVE",
"177 -140 OFFCURVE",
"177 -109 CURVE SMOOTH",
"177 62 LINE",
"170 49 LINE",
"184 9 OFFCURVE",
"236 -10 OFFCURVE",
"269 -10 CURVE SMOOTH",
"354 -10 OFFCURVE",
"409 58 OFFCURVE",
"421 89 CURVE",
"419 97 LINE",
"419 49 LINE SMOOTH",
"419 21 OFFCURVE",
"439 0 OFFCURVE",
"467 0 CURVE SMOOTH",
"495 0 OFFCURVE",
"516 21 OFFCURVE",
"516 49 CURVE SMOOTH",
"516 466 LINE SMOOTH",
"516 494 OFFCURVE",
"496 515 OFFCURVE",
"467 515 CURVE SMOOTH"
);
}
);
width = 586;
}
);
note = uni00B5;
unicode = 00B5;
},
{
glyphname = percent;
lastChange = "2018-04-02 16:38:16 +0000";
layers = (
{
components = (
{
name = fraction;
transform = "{1, 0, 0, 1, 128, 0}";
}
);
layerId = "3D0525B3-6B2A-4787-8D58-1F6DD6CCA7DC";
paths = (
{
closed = 1;
nodes = (
"280 329 OFFCURVE",
"343 414 OFFCURVE",
"343 518 CURVE",
"343 624 OFFCURVE",
"284 709 OFFCURVE",
"190 709 CURVE",
"95 709 OFFCURVE",
"36 624 OFFCURVE",
"36 518 CURVE",
"36 413 OFFCURVE",
"95 329 OFFCURVE",
"189 329 CURVE"
);
},
{
closed = 1;
nodes = (
"144 404 OFFCURVE",
"119 452 OFFCURVE",
"119 518 CURVE",
"119 583 OFFCURVE",
"143 633 OFFCURVE",
"189 633 CURVE",
"235 633 OFFCURVE",
"259 584 OFFCURVE",
"259 518 CURVE",
"259 453 OFFCURVE",
"236 404 OFFCURVE",
"190 404 CURVE"
);
},
{
closed = 1;
nodes = (
"702 -9 OFFCURVE",
"765 76 OFFCURVE",
"765 180 CURVE",
"765 286 OFFCURVE",
"706 371 OFFCURVE",
"612 371 CURVE",
"517 371 OFFCURVE",
"458 286 OFFCURVE",
"458 180 CURVE",
"458 75 OFFCURVE",
"521 -9 OFFCURVE",
"612 -9 CURVE"
);
},
{
closed = 1;
nodes = (
"566 65 OFFCURVE",
"541 114 OFFCURVE",
"541 180 CURVE",
"541 245 OFFCURVE",
"565 295 OFFCURVE",
"612 295 CURVE",
"657 295 OFFCURVE",
"682 246 OFFCURVE",
"682 180 CURVE",
"682 115 OFFCURVE",
"658 65 OFFCURVE",
"612 65 CURVE"
);
}
);
width = 801;
}
);
note = percent;
unicode = 0025;
},
{
glyphname = perthousand;
lastChange = "2018-04-02 16:38:16 +0000";
layers = (
{
components = (
{
name = fraction;
transform = "{1, 0, 0, 1, 124, 0}";
}
);
layerId = "3D0525B3-6B2A-4787-8D58-1F6DD6CCA7DC";
paths = (
{
closed = 1;
nodes = (
"280 329 OFFCURVE",
"343 414 OFFCURVE",
"343 518 CURVE",
"343 624 OFFCURVE",
"284 709 OFFCURVE",
"190 709 CURVE",
"95 709 OFFCURVE",
"36 624 OFFCURVE",
"36 518 CURVE",
"36 413 OFFCURVE",
"95 329 OFFCURVE",
"189 329 CURVE"
);
},
{
closed = 1;
nodes = (
"144 404 OFFCURVE",
"119 452 OFFCURVE",
"119 518 CURVE",
"119 583 OFFCURVE",
"143 633 OFFCURVE",
"189 633 CURVE",
"235 633 OFFCURVE",
"259 584 OFFCURVE",
"259 518 CURVE",
"259 453 OFFCURVE",
"236 404 OFFCURVE",
"190 404 CURVE"
);
},
{
closed = 1;
nodes = (
"702 -9 OFFCURVE",
"765 76 OFFCURVE",
"765 180 CURVE",
"765 286 OFFCURVE",
"706 371 OFFCURVE",
"612 371 CURVE",
"517 371 OFFCURVE",
"458 286 OFFCURVE",
"458 180 CURVE",
"458 75 OFFCURVE",
"521 -9 OFFCURVE",
"612 -9 CURVE"
);
},
{
closed = 1;
nodes = (
"566 65 OFFCURVE",
"541 114 OFFCURVE",
"541 180 CURVE",
"541 245 OFFCURVE",
"565 295 OFFCURVE",
"612 295 CURVE",
"657 295 OFFCURVE",
"682 246 OFFCURVE",
"682 180 CURVE",
"682 115 OFFCURVE",
"658 65 OFFCURVE",
"612 65 CURVE"
);
},
{
closed = 1;
nodes = (
"1053 -9 OFFCURVE",
"1116 76 OFFCURVE",
"1116 180 CURVE",
"1116 286 OFFCURVE",
"1058 371 OFFCURVE",
"963 371 CURVE",
"869 371 OFFCURVE",
"809 286 OFFCURVE",
"809 180 CURVE",
"809 75 OFFCURVE",
"872 -9 OFFCURVE",
"963 -9 CURVE"
);
},
{
closed = 1;
nodes = (
"917 65 OFFCURVE",
"892 114 OFFCURVE",
"892 180 CURVE",
"892 245 OFFCURVE",
"916 295 OFFCURVE",
"963 295 CURVE",
"1009 295 OFFCURVE",
"1033 246 OFFCURVE",
"1033 180 CURVE",
"1033 115 OFFCURVE",
"1010 65 OFFCURVE",
"963 65 CURVE"
);
}
);
width = 1152;
}
);
note = perthousand;
unicode = 2030;
},
{
glyphname = lozenge;
lastChange = "2018-04-02 16:38:16 +0000";
layers = (
{
layerId = "3D0525B3-6B2A-4787-8D58-1F6DD6CCA7DC";
paths = (
{
closed = 1;
nodes = (
"313 -6 OFFCURVE",
"329 2 OFFCURVE",
"341 18 CURVE SMOOTH",
"540 301 LINE SMOOTH",
"546 310 OFFCURVE",
"549 318 OFFCURVE",
"549 327 CURVE SMOOTH",
"549 336 OFFCURVE",
"546 345 OFFCURVE",
"540 353 CURVE SMOOTH",
"339 631 LINE SMOOTH",
"328 646 OFFCURVE",
"313 653 OFFCURVE",
"297 653 CURVE SMOOTH",
"282 653 OFFCURVE",
"266 646 OFFCURVE",
"255 631 CURVE SMOOTH",
"55 353 LINE SMOOTH",
"49 345 OFFCURVE",
"46 336 OFFCURVE",
"46 327 CURVE SMOOTH",
"46 318 OFFCURVE",
"49 310 OFFCURVE",
"55 301 CURVE SMOOTH",
"256 17 LINE SMOOTH",
"267 2 OFFCURVE",
"282 -6 OFFCURVE",
"297 -6 CURVE SMOOTH"
);
},
{
closed = 1;
nodes = (
"139 324 LINE",
"137 326 OFFCURVE",
"137 328 OFFCURVE",
"139 330 CURVE",
"294 545 LINE",
"297 548 OFFCURVE",
"299 548 OFFCURVE",
"302 545 CURVE",
"457 330 LINE",
"458 328 OFFCURVE",
"458 326 OFFCURVE",
"457 324 CURVE",
"302 101 LINE",
"299 98 OFFCURVE",
"297 98 OFFCURVE",
"294 101 CURVE"
);
}
);
width = 595;
}
);
note = lozenge;
unicode = 25CA;
},
{
glyphname = at;
lastChange = "2018-04-02 16:38:16 +0000";
layers = (
{
layerId = "3D0525B3-6B2A-4787-8D58-1F6DD6CCA7DC";
paths = (
{
closed = 1;
nodes = (
"825 55 OFFCURVE",
"925 233 OFFCURVE",
"925 396 CURVE",
"925 568 OFFCURVE",
"804 710 OFFCURVE",
"576 710 CURVE",
"278 710 OFFCURVE",
"40 518 OFFCURVE",
"40 206 CURVE",
"40 24 OFFCURVE",
"145 -162 OFFCURVE",
"414 -162 CURVE",
"526 -162 OFFCURVE",
"595 -127 OFFCURVE",
"653 -98 CURVE",
"679 -85 OFFCURVE",
"687 -69 OFFCURVE",
"681 -52 CURVE",
"673 -34 OFFCURVE",
"657 -26 OFFCURVE",
"639 -37 CURVE",
"577 -70 OFFCURVE",
"524 -96 OFFCURVE",
"414 -96 CURVE",
"196 -96 OFFCURVE",
"109 56 OFFCURVE",
"109 206 CURVE",
"109 481 OFFCURVE",
"314 644 OFFCURVE",
"576 644 CURVE",
"747 644 OFFCURVE",
"857 543 OFFCURVE",
"857 396 CURVE",
"857 262 OFFCURVE",
"786 121 OFFCURVE",
"700 121 CURVE",
"675 121 OFFCURVE",
"651 140 OFFCURVE",
"658 185 CURVE",
"701 455 LINE",
"706 487 OFFCURVE",
"695 505 OFFCURVE",
"659 505 CURVE",
"629 505 OFFCURVE",
"615 487 OFFCURVE",
"613 470 CURVE",
"591 331 LINE",
"615 390 LINE",
"608 462 OFFCURVE",
"557 510 OFFCURVE",
"491 510 CURVE",
"357 510 OFFCURVE",
"252 345 OFFCURVE",
"252 220 CURVE",
"252 121 OFFCURVE",
"321 55 OFFCURVE",
"400 55 CURVE",
"471 55 OFFCURVE",
"549 93 OFFCURVE",
"584 202 CURVE",
"570 222 LINE",
"562 168 LINE",
"551 101 OFFCURVE",
"604 55 OFFCURVE",
"669 55 CURVE"
);
},
{
closed = 1;
nodes = (
"377 130 OFFCURVE",
"344 162 OFFCURVE",
"344 222 CURVE",
"344 310 OFFCURVE",
"402 435 OFFCURVE",
"495 435 CURVE",
"559 435 OFFCURVE",
"608 393 OFFCURVE",
"578 286 CURVE",
"569 219 OFFCURVE",
"501 130 OFFCURVE",
"423 130 CURVE"
);
}
);
width = 967;
}
);
note = at;
unicode = 0040;
},
{
glyphname = ampersand;
lastChange = "2018-04-02 16:38:16 +0000";
layers = (
{
layerId = "3D0525B3-6B2A-4787-8D58-1F6DD6CCA7DC";
paths = (
{
closed = 1;
nodes = (
"486 -10 OFFCURVE",
"593 147 OFFCURVE",
"616 302 CURVE SMOOTH",
"621 332 OFFCURVE",
"602 358 OFFCURVE",
"574 358 CURVE SMOOTH",
"547 358 OFFCURVE",
"536 347 OFFCURVE",
"534 329 CURVE SMOOTH",
"514 208 OFFCURVE",
"439 82 OFFCURVE",
"296 82 CURVE SMOOTH",
"178 82 OFFCURVE",
"129 155 OFFCURVE",
"129 227 CURVE SMOOTH",
"129 289 OFFCURVE",
"158 340 OFFCURVE",
"255 361 CURVE",
"191 428 LINE",
"81 386 OFFCURVE",
"30 308 OFFCURVE",
"30 212 CURVE SMOOTH",
"30 98 OFFCURVE",
"133 -10 OFFCURVE",
"276 -10 CURVE SMOOTH"
);
},
{
closed = 1;
nodes = (
"660 0 OFFCURVE",
"673 27 OFFCURVE",
"673 42 CURVE SMOOTH",
"673 60 OFFCURVE",
"665 72 OFFCURVE",
"651 84 CURVE SMOOTH",
"586 139 OFFCURVE",
"450 253 OFFCURVE",
"358 355 CURVE SMOOTH",
"312 406 OFFCURVE",
"240 474 OFFCURVE",
"240 535 CURVE SMOOTH",
"240 587 OFFCURVE",
"276 627 OFFCURVE",
"345 627 CURVE SMOOTH",
"403 627 OFFCURVE",
"442 608 OFFCURVE",
"470 569 CURVE SMOOTH",
"476 561 OFFCURVE",
"485 553 OFFCURVE",
"503 553 CURVE SMOOTH",
"529 553 OFFCURVE",
"546 571 OFFCURVE",
"546 592 CURVE SMOOTH",
"546 608 OFFCURVE",
"539 621 OFFCURVE",
"538 623 CURVE SMOOTH",
"513 673 OFFCURVE",
"438 710 OFFCURVE",
"345 710 CURVE SMOOTH",
"216 710 OFFCURVE",
"138 628 OFFCURVE",
"138 532 CURVE SMOOTH",
"138 458 OFFCURVE",
"195 400 OFFCURVE",
"265 320 CURVE SMOOTH",
"365 205 OFFCURVE",
"468 121 OFFCURVE",
"604 8 CURVE SMOOTH",
"610 3 OFFCURVE",
"619 0 OFFCURVE",
"632 0 CURVE SMOOTH"
);
}
);
width = 698;
}
);
note = ampersand;
unicode = 0026;
},
{
glyphname = paragraph;
lastChange = "2018-04-02 16:38:16 +0000";
layers = (
{
layerId = "3D0525B3-6B2A-4787-8D58-1F6DD6CCA7DC";
paths = (
{
closed = 1;
nodes = (
"522 0 OFFCURVE",
"543 11 OFFCURVE",
"543 39 CURVE SMOOTH",
"543 665 LINE SMOOTH",
"543 685 OFFCURVE",
"528 700 OFFCURVE",
"508 700 CURVE SMOOTH",
"304 700 LINE SMOOTH",
"121 700 OFFCURVE",
"39 640 OFFCURVE",
"39 486 CURVE SMOOTH",
"39 342 OFFCURVE",
"108 280 OFFCURVE",
"267 279 CURVE SMOOTH",
"341 279 LINE",
"317 314 LINE",
"317 81 LINE SMOOTH",
"317 37 OFFCURVE",
"295 13 OFFCURVE",
"261 13 CURVE SMOOTH",
"247 13 OFFCURVE",
"232 18 OFFCURVE",
"218 23 CURVE SMOOTH",
"205 28 OFFCURVE",
"188 26 OFFCURVE",
"178 11 CURVE SMOOTH",
"165 -7 OFFCURVE",
"172 -28 OFFCURVE",
"186 -39 CURVE SMOOTH",
"201 -53 OFFCURVE",
"234 -62 OFFCURVE",
"264 -62 CURVE SMOOTH",
"335 -62 OFFCURVE",
"393 -22 OFFCURVE",
"393 66 CURVE SMOOTH",
"393 652 LINE",
"381 635 LINE",
"483 635 LINE",
"467 660 LINE",
"467 39 LINE SMOOTH",
"467 11 OFFCURVE",
"489 0 OFFCURVE",
"506 0 CURVE SMOOTH"
);
}
);
width = 629;
}
);
note = paragraph;
unicode = 00B6;
},
{
glyphname = section;
lastChange = "2018-04-02 16:38:16 +0000";
layers = (
{
layerId = "3D0525B3-6B2A-4787-8D58-1F6DD6CCA7DC";
paths = (
{
closed = 1;
nodes = (
"517 364 OFFCURVE",
"455 417 OFFCURVE",
"332 444 CURVE SMOOTH",
"282 455 OFFCURVE",
"192 479 OFFCURVE",
"192 541 CURVE SMOOTH",
"192 590 OFFCURVE",
"238 617 OFFCURVE",
"294 617 CURVE SMOOTH",
"343 617 OFFCURVE",
"386 596 OFFCURVE",
"419 562 CURVE",
"423 558 OFFCURVE",
"429 556 OFFCURVE",
"433 556 CURVE",
"467 554 OFFCURVE",
"483 578 OFFCURVE",
"483 601 CURVE SMOOTH",
"483 612 OFFCURVE",
"479 624 OFFCURVE",
"476 628 CURVE SMOOTH",
"436 677 OFFCURVE",
"381 707 OFFCURVE",
"306 711 CURVE SMOOTH",
"218 716 OFFCURVE",
"94 661 OFFCURVE",
"94 526 CURVE SMOOTH",
"94 472 OFFCURVE",
"118 423 OFFCURVE",
"190 392 CURVE",
"201 437 LINE",
"71 426 OFFCURVE",
"47 327 OFFCURVE",
"47 284 CURVE SMOOTH",
"47 199 OFFCURVE",
"103 146 OFFCURVE",
"209 120 CURVE SMOOTH",
"306 96 OFFCURVE",
"380 71 OFFCURVE",
"380 23 CURVE SMOOTH",
"380 -35 OFFCURVE",
"320 -49 OFFCURVE",
"273 -49 CURVE SMOOTH",
"189 -49 OFFCURVE",
"148 -16 OFFCURVE",
"121 15 CURVE SMOOTH",
"106 33 OFFCURVE",
"91 34 OFFCURVE",
"82 34 CURVE SMOOTH",
"57 34 OFFCURVE",
"37 15 OFFCURVE",
"35 -8 CURVE SMOOTH",
"34 -30 OFFCURVE",
"43 -48 OFFCURVE",
"56 -63 CURVE SMOOTH",
"95 -106 OFFCURVE",
"191 -140 OFFCURVE",
"274 -140 CURVE SMOOTH",
"430 -140 OFFCURVE",
"478 -23 OFFCURVE",
"478 41 CURVE SMOOTH",
"478 111 OFFCURVE",
"443 145 OFFCURVE",
"373 185 CURVE",
"308 129 LINE",
"437 137 OFFCURVE",
"507 182 OFFCURVE",
"513 278 CURVE SMOOTH"
);
},
{
closed = 1;
nodes = (
"170 241 OFFCURVE",
"154 269 OFFCURVE",
"154 294 CURVE SMOOTH",
"154 342 OFFCURVE",
"199 368 OFFCURVE",
"240 359 CURVE",
"349 332 LINE",
"392 318 OFFCURVE",
"415 299 OFFCURVE",
"415 266 CURVE SMOOTH",
"415 226 OFFCURVE",
"380 195 OFFCURVE",
"330 197 CURVE",
"235 219 LINE"
);
}
);
width = 549;
}
);
note = section;
unicode = 00A7;
},
{
glyphname = copyright;
lastChange = "2018-04-02 16:38:16 +0000";
layers = (
{
layerId = "3D0525B3-6B2A-4787-8D58-1F6DD6CCA7DC";
paths = (
{
closed = 1;
nodes = (
"589 -7 OFFCURVE",
"750 150 OFFCURVE",
"750 350 CURVE SMOOTH",
"750 550 OFFCURVE",
"589 707 OFFCURVE",
"393 707 CURVE SMOOTH",
"196 707 OFFCURVE",
"36 550 OFFCURVE",
"36 350 CURVE SMOOTH",
"36 150 OFFCURVE",
"196 -7 OFFCURVE",
"393 -7 CURVE SMOOTH"
);
},
{
closed = 1;
nodes = (
"231 57 OFFCURVE",
"100 185 OFFCURVE",
"100 350 CURVE SMOOTH",
"100 516 OFFCURVE",
"232 643 OFFCURVE",
"393 643 CURVE SMOOTH",
"554 643 OFFCURVE",
"686 516 OFFCURVE",
"686 350 CURVE SMOOTH",
"686 185 OFFCURVE",
"554 57 OFFCURVE",
"393 57 CURVE SMOOTH"
);
},
{
closed = 1;
nodes = (
"447 142 OFFCURVE",
"484 151 OFFCURVE",
"517 169 CURVE SMOOTH",
"536 180 OFFCURVE",
"542 206 OFFCURVE",
"527 225 CURVE",
"515 240 OFFCURVE",
"495 242 OFFCURVE",
"480 235 CURVE",
"458 224 OFFCURVE",
"435 217 OFFCURVE",
"410 217 CURVE SMOOTH",
"334 217 OFFCURVE",
"272 268 OFFCURVE",
"272 350 CURVE SMOOTH",
"272 423 OFFCURVE",
"330 482 OFFCURVE",
"410 482 CURVE SMOOTH",
"436 482 OFFCURVE",
"459 476 OFFCURVE",
"479 465 CURVE",
"495 456 OFFCURVE",
"515 459 OFFCURVE",
"527 473 CURVE",
"540 491 OFFCURVE",
"537 520 OFFCURVE",
"516 530 CURVE",
"486 547 OFFCURVE",
"448 557 OFFCURVE",
"410 557 CURVE SMOOTH",
"289 557 OFFCURVE",
"196 463 OFFCURVE",
"196 350 CURVE SMOOTH",
"196 223 OFFCURVE",
"297 142 OFFCURVE",
"410 142 CURVE SMOOTH"
);
}
);
width = 786;
}
);
note = copyright;
unicode = 00A9;
},
{
glyphname = registered;
lastChange = "2018-04-02 16:38:16 +0000";
layers = (
{
layerId = "3D0525B3-6B2A-4787-8D58-1F6DD6CCA7DC";
paths = (
{
closed = 1;
nodes = (
"204 363 OFFCURVE",
"214 372 OFFCURVE",
"214 388 CURVE SMOOTH",
"214 466 LINE",
"206 457 LINE",
"248 457 LINE SMOOTH",
"274 457 OFFCURVE",
"282 444 OFFCURVE",
"282 423 CURVE SMOOTH",
"282 386 OFFCURVE",
"297 370 OFFCURVE",
"310 365 CURVE SMOOTH",
"321 361 OFFCURVE",
"334 361 OFFCURVE",
"343 371 CURVE SMOOTH",
"349 378 OFFCURVE",
"348 390 OFFCURVE",
"339 396 CURVE SMOOTH",
"330 401 OFFCURVE",
"328 411 OFFCURVE",
"328 429 CURVE SMOOTH",
"327 449 OFFCURVE",
"312 468 OFFCURVE",
"293 477 CURVE",
"294 472 LINE",
"319 482 OFFCURVE",
"341 503 OFFCURVE",
"341 530 CURVE SMOOTH",
"341 574 OFFCURVE",
"309 602 OFFCURVE",
"267 602 CURVE SMOOTH",
"186 602 LINE SMOOTH",
"176 602 OFFCURVE",
"167 593 OFFCURVE",
"167 583 CURVE SMOOTH",
"167 388 LINE SMOOTH",
"167 372 OFFCURVE",
"178 363 OFFCURVE",
"191 363 CURVE SMOOTH"
);
},
{
closed = 1;
nodes = (
"208 498 LINE",
"214 491 LINE",
"214 565 LINE",
"205 557 LINE",
"259 557 LINE SMOOTH",
"281 557 OFFCURVE",
"296 548 OFFCURVE",
"296 528 CURVE SMOOTH",
"296 510 OFFCURVE",
"279 498 OFFCURVE",
"257 498 CURVE SMOOTH"
);
},
{
closed = 1;
nodes = (
"376 259 OFFCURVE",
"478 358 OFFCURVE",
"478 484 CURVE SMOOTH",
"478 609 OFFCURVE",
"376 709 OFFCURVE",
"253 709 CURVE SMOOTH",
"129 709 OFFCURVE",
"29 609 OFFCURVE",
"29 484 CURVE SMOOTH",
"29 358 OFFCURVE",
"129 259 OFFCURVE",
"253 259 CURVE SMOOTH"
);
},
{
closed = 1;
nodes = (
"158 312 OFFCURVE",
"81 387 OFFCURVE",
"81 484 CURVE SMOOTH",
"81 581 OFFCURVE",
"158 657 OFFCURVE",
"253 657 CURVE SMOOTH",
"348 657 OFFCURVE",
"425 581 OFFCURVE",
"425 484 CURVE SMOOTH",
"425 387 OFFCURVE",
"348 312 OFFCURVE",
"253 312 CURVE SMOOTH"
);
}
);
width = 507;
}
);
note = registered;
unicode = 00AE;
},
{
glyphname = trademark;
lastChange = "2018-04-02 16:38:16 +0000";
layers = (
{
layerId = "3D0525B3-6B2A-4787-8D58-1F6DD6CCA7DC";
paths = (
{
closed = 1;
nodes = (
"269 626 LINE",
"294 626 OFFCURVE",
"304 641 OFFCURVE",
"304 666 CURVE",
"304 689 OFFCURVE",
"288 700 OFFCURVE",
"269 700 CURVE",
"63 700 LINE",
"43 700 OFFCURVE",
"29 689 OFFCURVE",
"29 666 CURVE",
"29 642 OFFCURVE",
"43 626 OFFCURVE",
"63 626 CURVE"
);
},
{
closed = 1;
nodes = (
"188 350 OFFCURVE",
"202 365 OFFCURVE",
"202 384 CURVE",
"202 676 LINE",
"126 676 LINE",
"126 384 LINE",
"126 365 OFFCURVE",
"143 350 OFFCURVE",
"163 350 CURVE"
);
},
{
closed = 1;
nodes = (
"372 700 OFFCURVE",
"355 686 OFFCURVE",
"355 666 CURVE",
"355 374 LINE",
"355 355 OFFCURVE",
"371 340 OFFCURVE",
"396 340 CURVE",
"420 340 OFFCURVE",
"433 355 OFFCURVE",
"436 374 CURVE",
"436 643 LINE",
"379 643 LINE",
"509 418 LINE",
"513 411 OFFCURVE",
"522 403 OFFCURVE",
"539 403 CURVE",
"559 403 OFFCURVE",
"570 410 OFFCURVE",
"575 418 CURVE",
"699 635 LINE",
"654 635 LINE",
"654 374 LINE",
"654 355 OFFCURVE",
"671 340 OFFCURVE",
"696 340 CURVE",
"717 340 OFFCURVE",
"737 355 OFFCURVE",
"737 374 CURVE",
"737 666 LINE",
"737 687 OFFCURVE",
"724 698 OFFCURVE",
"701 699 CURVE",
"684 701 OFFCURVE",
"664 701 OFFCURVE",
"648 676 CURVE",
"515 452 LINE",
"571 452 LINE",
"438 676 LINE",
"426 695 OFFCURVE",
"414 700 OFFCURVE",
"392 700 CURVE"
);
}
);
width = 794;
}
);
note = trademark;
unicode = 2122;
},
{
glyphname = degree;
lastChange = "2018-04-02 16:38:16 +0000";
layers = (
{
layerId = "3D0525B3-6B2A-4787-8D58-1F6DD6CCA7DC";
paths = (
{
closed = 1;
nodes = (
"276 399 OFFCURVE",
"341 470 OFFCURVE",
"341 554 CURVE",
"341 639 OFFCURVE",
"276 709 OFFCURVE",
"185 709 CURVE",
"94 709 OFFCURVE",
"29 639 OFFCURVE",
"29 553 CURVE",
"29 470 OFFCURVE",
"94 399 OFFCURVE",
"185 399 CURVE"
);
},
{
closed = 1;
nodes = (
"137 466 OFFCURVE",
"104 508 OFFCURVE",
"104 553 CURVE",
"104 601 OFFCURVE",
"137 641 OFFCURVE",
"185 641 CURVE",
"232 641 OFFCURVE",
"266 600 OFFCURVE",
"266 554 CURVE",
"266 508 OFFCURVE",
"232 466 OFFCURVE",
"185 466 CURVE"
);
}
);
width = 370;
}
);
note = degree;
unicode = 00B0;
},
{
glyphname = bar;
lastChange = "2018-04-02 16:38:16 +0000";
layers = (
{
layerId = "3D0525B3-6B2A-4787-8D58-1F6DD6CCA7DC";
paths = (
{
closed = 1;
nodes = (
"164 746 LINE SMOOTH",
"164 774 OFFCURVE",
"144 795 OFFCURVE",
"116 795 CURVE SMOOTH",
"88 795 OFFCURVE",
"67 774 OFFCURVE",
"67 746 CURVE SMOOTH",
"67 -97 LINE SMOOTH",
"67 -125 OFFCURVE",
"87 -147 OFFCURVE",
"115 -147 CURVE SMOOTH",
"143 -147 OFFCURVE",
"164 -125 OFFCURVE",
"164 -97 CURVE SMOOTH"
);
}
);
width = 231;
}
);
note = bar;
unicode = 007C;
},
{
glyphname = brokenbar;
lastChange = "2018-04-02 16:38:16 +0000";
layers = (
{
layerId = "3D0525B3-6B2A-4787-8D58-1F6DD6CCA7DC";
paths = (
{
closed = 1;
nodes = (
"168 746 LINE SMOOTH",
"168 774 OFFCURVE",
"148 795 OFFCURVE",
"120 795 CURVE SMOOTH",
"92 795 OFFCURVE",
"71 774 OFFCURVE",
"71 746 CURVE SMOOTH",
"71 445 LINE SMOOTH",
"71 417 OFFCURVE",
"91 396 OFFCURVE",
"119 396 CURVE SMOOTH",
"147 396 OFFCURVE",
"168 417 OFFCURVE",
"168 445 CURVE SMOOTH"
);
},
{
closed = 1;
nodes = (
"168 204 LINE SMOOTH",
"168 232 OFFCURVE",
"148 253 OFFCURVE",
"120 253 CURVE SMOOTH",
"92 253 OFFCURVE",
"71 232 OFFCURVE",
"71 204 CURVE SMOOTH",
"71 -97 LINE SMOOTH",
"71 -125 OFFCURVE",
"91 -147 OFFCURVE",
"119 -147 CURVE SMOOTH",
"147 -147 OFFCURVE",
"168 -125 OFFCURVE",
"168 -97 CURVE SMOOTH"
);
}
);
width = 239;
}
);
note = brokenbar;
unicode = 00A6;
},
{
glyphname = dagger;
lastChange = "2018-04-02 16:38:16 +0000";
layers = (
{
layerId = "3D0525B3-6B2A-4787-8D58-1F6DD6CCA7DC";
paths = (
{
closed = 1;
nodes = (
"171 264 LINE SMOOTH",
"170 236 OFFCURVE",
"190 216 OFFCURVE",
"219 216 CURVE SMOOTH",
"248 216 OFFCURVE",
"268 236 OFFCURVE",
"268 264 CURVE SMOOTH",
"268 673 LINE SMOOTH",
"268 701 OFFCURVE",
"248 721 OFFCURVE",
"219 721 CURVE SMOOTH",
"190 721 OFFCURVE",
"171 701 OFFCURVE",
"171 673 CURVE SMOOTH"
);
},
{
closed = 1;
nodes = (
"351 496 LINE SMOOTH",
"376 496 OFFCURVE",
"393 513 OFFCURVE",
"393 538 CURVE SMOOTH",
"393 562 OFFCURVE",
"376 579 OFFCURVE",
"351 579 CURVE SMOOTH",
"89 579 LINE SMOOTH",
"64 579 OFFCURVE",
"46 562 OFFCURVE",
"46 538 CURVE SMOOTH",
"46 514 OFFCURVE",
"64 496 OFFCURVE",
"89 496 CURVE SMOOTH"
);
}
);
width = 440;
}
);
note = dagger;
unicode = 2020;
},
{
glyphname = daggerdbl;
lastChange = "2018-04-02 16:38:16 +0000";
layers = (
{
layerId = "3D0525B3-6B2A-4787-8D58-1F6DD6CCA7DC";
paths = (
{
closed = 1;
nodes = (
"156 242 LINE SMOOTH",
"156 214 OFFCURVE",
"176 194 OFFCURVE",
"205 194 CURVE SMOOTH",
"234 194 OFFCURVE",
"254 214 OFFCURVE",
"253 242 CURVE SMOOTH",
"253 675 LINE SMOOTH",
"253 703 OFFCURVE",
"234 724 OFFCURVE",
"205 724 CURVE SMOOTH",
"176 724 OFFCURVE",
"156 703 OFFCURVE",
"156 675 CURVE SMOOTH"
);
},
{
closed = 1;
nodes = (
"315 512 LINE SMOOTH",
"340 512 OFFCURVE",
"358 529 OFFCURVE",
"358 554 CURVE SMOOTH",
"358 578 OFFCURVE",
"340 595 OFFCURVE",
"315 595 CURVE SMOOTH",
"89 595 LINE SMOOTH",
"64 595 OFFCURVE",
"46 578 OFFCURVE",
"46 554 CURVE SMOOTH",
"46 529 OFFCURVE",
"64 512 OFFCURVE",
"89 512 CURVE SMOOTH"
);
},
{
closed = 1;
nodes = (
"315 369 LINE SMOOTH",
"340 369 OFFCURVE",
"358 386 OFFCURVE",
"358 411 CURVE SMOOTH",
"358 435 OFFCURVE",
"340 452 OFFCURVE",
"315 452 CURVE SMOOTH",
"89 452 LINE SMOOTH",
"64 452 OFFCURVE",
"46 435 OFFCURVE",
"46 411 CURVE SMOOTH",
"46 387 OFFCURVE",
"64 369 OFFCURVE",
"89 369 CURVE SMOOTH"
);
}
);
width = 404;
}
);
note = daggerdbl;
unicode = 2021;
},
{
glyphname = estimated;
lastChange = "2018-04-02 16:38:16 +0000";
layers = (
{
layerId = "3D0525B3-6B2A-4787-8D58-1F6DD6CCA7DC";
paths = (
{
closed = 1;
nodes = (
"425 -11 OFFCURVE",
"489 26 OFFCURVE",
"550 115 CURVE SMOOTH",
"553 119 OFFCURVE",
"556 125 OFFCURVE",
"556 130 CURVE SMOOTH",
"556 143 OFFCURVE",
"545 150 OFFCURVE",
"534 150 CURVE SMOOTH",
"527 150 OFFCURVE",
"521 146 OFFCURVE",
"517 139 CURVE",
"467 60 OFFCURVE",
"403 28 OFFCURVE",
"319 28 CURVE SMOOTH",
"258 28 OFFCURVE",
"202 50 OFFCURVE",
"160 92 CURVE SMOOTH",
"159 94 OFFCURVE",
"158 95 OFFCURVE",
"158 98 CURVE SMOOTH",
"158 292 LINE",
"153 285 LINE",
"573 285 LINE SMOOTH",
"588 285 OFFCURVE",
"596 297 OFFCURVE",
"595 309 CURVE SMOOTH",
"585 470 OFFCURVE",
"476 581 OFFCURVE",
"319 581 CURVE SMOOTH",
"151 581 OFFCURVE",
"43 451 OFFCURVE",
"43 285 CURVE SMOOTH",
"43 120 OFFCURVE",
"151 -11 OFFCURVE",
"319 -11 CURVE SMOOTH"
);
},
{
closed = 1;
nodes = (
"149 324 LINE",
"158 314 LINE",
"158 473 LINE SMOOTH",
"158 476 OFFCURVE",
"159 477 OFFCURVE",
"160 479 CURVE SMOOTH",
"201 522 OFFCURVE",
"258 543 OFFCURVE",
"318 543 CURVE SMOOTH",
"378 543 OFFCURVE",
"435 522 OFFCURVE",
"479 478 CURVE",
"481 477 OFFCURVE",
"482 475 OFFCURVE",
"482 473 CURVE SMOOTH",
"482 320 LINE",
"491 324 LINE"
);
}
);
width = 629;
}
);
note = estimated;
unicode = 212E;
},
{
glyphname = numero;
lastChange = "2018-04-02 16:38:16 +0000";
layers = (
{
layerId = "3D0525B3-6B2A-4787-8D58-1F6DD6CCA7DC";
paths = (
{
closed = 1;
nodes = (
"1178 603 OFFCURVE",
"1078 698 OFFCURVE",
"953 698 CURVE",
"833 698 OFFCURVE",
"735 603 OFFCURVE",
"735 471 CURVE",
"735 340 OFFCURVE",
"833 246 OFFCURVE",
"953 246 CURVE",
"1078 246 OFFCURVE",
"1178 340 OFFCURVE",
"1178 471 CURVE"
);
},
{
closed = 1;
nodes = (
"1081 392 OFFCURVE",
"1025 335 OFFCURVE",
"953 335 CURVE",
"886 335 OFFCURVE",
"832 392 OFFCURVE",
"832 471 CURVE",
"832 552 OFFCURVE",
"886 609 OFFCURVE",
"953 609 CURVE",
"1025 609 OFFCURVE",
"1081 552 OFFCURVE",
"1081 471 CURVE"
);
},
{
closed = 1;
nodes = (
"104 700 OFFCURVE",
"82 680 OFFCURVE",
"82 651 CURVE",
"82 45 LINE",
"82 19 OFFCURVE",
"101 0 OFFCURVE",
"128 0 CURVE",
"154 0 OFFCURVE",
"174 19 OFFCURVE",
"174 45 CURVE",
"174 566 LINE",
"149 552 LINE",
"562 14 LINE",
"570 5 OFFCURVE",
"587 0 OFFCURVE",
"600 0 CURVE",
"629 0 OFFCURVE",
"650 21 OFFCURVE",
"650 50 CURVE",
"650 655 LINE",
"650 681 OFFCURVE",
"631 700 OFFCURVE",
"605 700 CURVE",
"578 700 OFFCURVE",
"558 681 OFFCURVE",
"558 655 CURVE",
"558 141 LINE",
"576 155 LINE",
"171 682 LINE",
"163 694 OFFCURVE",
"146 700 OFFCURVE",
"131 700 CURVE"
);
},
{
closed = 1;
nodes = (
"1122 96 LINE",
"1147 96 OFFCURVE",
"1166 114 OFFCURVE",
"1166 141 CURVE",
"1166 166 OFFCURVE",
"1147 185 OFFCURVE",
"1122 185 CURVE",
"794 185 LINE",
"769 185 OFFCURVE",
"750 167 OFFCURVE",
"750 141 CURVE",
"750 114 OFFCURVE",
"769 96 OFFCURVE",
"794 96 CURVE"
);
}
);
width = 1230;
}
);
unicode = 2116;
},
{
glyphname = asciicircum;
lastChange = "2018-04-02 16:38:16 +0000";
layers = (
{
layerId = "3D0525B3-6B2A-4787-8D58-1F6DD6CCA7DC";
paths = (
{
closed = 1;
nodes = (
"118 349 OFFCURVE",
"133 353 OFFCURVE",
"142 368 CURVE SMOOTH",
"301 636 LINE",
"281 633 LINE",
"436 368 LINE SMOOTH",
"445 354 OFFCURVE",
"461 349 OFFCURVE",
"476 349 CURVE SMOOTH",
"504 349 OFFCURVE",
"527 372 OFFCURVE",
"527 399 CURVE SMOOTH",
"527 412 OFFCURVE",
"519 423 OFFCURVE",
"512 434 CURVE SMOOTH",
"356 700 LINE SMOOTH",
"343 722 OFFCURVE",
"323 727 OFFCURVE",
"289 727 CURVE",
"260 727 OFFCURVE",
"238 723 OFFCURVE",
"224 700 CURVE SMOOTH",
"68 435 LINE SMOOTH",
"60 423 OFFCURVE",
"53 411 OFFCURVE",
"53 399 CURVE SMOOTH",
"53 371 OFFCURVE",
"76 349 OFFCURVE",
"103 349 CURVE SMOOTH"
);
}
);
width = 579;
}
);
note = asciicircum;
unicode = 005E;
},
{
glyphname = dotaccentcomb;
lastChange = "2018-04-20 18:29:00 +0000";
layers = (
{
anchors = (
{
name = _top;
position = "{105, 511}";
},
{
name = top;
position = "{105, 703}";
}
);
layerId = "3D0525B3-6B2A-4787-8D58-1F6DD6CCA7DC";
paths = (
{
closed = 1;
nodes = (
"153 624 OFFCURVE",
"175 656 OFFCURVE",
"175 689 CURVE SMOOTH",
"175 728 OFFCURVE",
"153 754 OFFCURVE",
"106 754 CURVE SMOOTH",
"59 754 OFFCURVE",
"37 722 OFFCURVE",
"37 689 CURVE SMOOTH",
"37 650 OFFCURVE",
"59 624 OFFCURVE",
"106 624 CURVE SMOOTH"
);
}
);
width = 210;
}
);
unicode = 0307;
},
{
glyphname = hungarumlautcomb;
lastChange = "2018-04-02 16:38:16 +0000";
layers = (
{
anchors = (
{
name = _top;
position = "{172, 512}";
},
{
name = top;
position = "{172, 733}";
}
);
layerId = "3D0525B3-6B2A-4787-8D58-1F6DD6CCA7DC";
paths = (
{
closed = 1;
nodes = (
"98 585 OFFCURVE",
"109 594 OFFCURVE",
"125 609 CURVE SMOOTH",
"180 665 LINE SMOOTH",
"190 674 OFFCURVE",
"195 684 OFFCURVE",
"195 694 CURVE SMOOTH",
"195 723 OFFCURVE",
"173 735 OFFCURVE",
"152 735 CURVE SMOOTH",
"131 735 OFFCURVE",
"117 724 OFFCURVE",
"107 709 CURVE SMOOTH",
"60 637 LINE SMOOTH",
"53 625 OFFCURVE",
"49 616 OFFCURVE",
"50 607 CURVE SMOOTH",
"51 595 OFFCURVE",
"61 585 OFFCURVE",
"77 585 CURVE SMOOTH"
);
},
{
closed = 1;
nodes = (
"265 585 OFFCURVE",
"276 594 OFFCURVE",
"291 609 CURVE SMOOTH",
"347 665 LINE SMOOTH",
"358 675 OFFCURVE",
"362 685 OFFCURVE",
"362 695 CURVE SMOOTH",
"362 723 OFFCURVE",
"338 733 OFFCURVE",
"316 733 CURVE SMOOTH",
"295 733 OFFCURVE",
"284 724 OFFCURVE",
"275 710 CURVE SMOOTH",
"227 637 LINE SMOOTH",
"220 625 OFFCURVE",
"216 615 OFFCURVE",
"216 607 CURVE SMOOTH",
"216 595 OFFCURVE",
"228 585 OFFCURVE",
"243 585 CURVE SMOOTH"
);
}
);
width = 412;
}
);
unicode = 030B;
},
{
glyphname = caroncomb;
lastChange = "2018-04-02 16:38:16 +0000";
layers = (
{
anchors = (
{
name = _top;
position = "{180, 510}";
},
{
name = top;
position = "{180, 725}";
}
);
layerId = "3D0525B3-6B2A-4787-8D58-1F6DD6CCA7DC";
paths = (
{
closed = 1;
nodes = (
"192 588 LINE SMOOTH",
"215 588 OFFCURVE",
"230 595 OFFCURVE",
"243 613 CURVE SMOOTH",
"297 677 LINE SMOOTH",
"307 688 OFFCURVE",
"310 697 OFFCURVE",
"310 705 CURVE SMOOTH",
"310 717 OFFCURVE",
"298 727 OFFCURVE",
"284 727 CURVE SMOOTH",
"264 727 OFFCURVE",
"254 721 OFFCURVE",
"239 708 CURVE SMOOTH",
"170 648 LINE",
"191 647 LINE",
"119 707 LINE SMOOTH",
"103 721 OFFCURVE",
"92 727 OFFCURVE",
"81 727 CURVE SMOOTH",
"60 727 OFFCURVE",
"49 716 OFFCURVE",
"49 703 CURVE SMOOTH",
"49 694 OFFCURVE",
"51 686 OFFCURVE",
"59 676 CURVE SMOOTH",
"113 613 LINE SMOOTH",
"127 595 OFFCURVE",
"141 588 OFFCURVE",
"164 588 CURVE SMOOTH"
);
}
);
width = 359;
}
);
unicode = 030C;
},
{
glyphname = ringcomb;
lastChange = "2018-04-02 16:38:16 +0000";
layers = (
{
anchors = (
{
name = _top;
position = "{158, 510}";
},
{
name = top;
position = "{158, 765}";
}
);
layerId = "3D0525B3-6B2A-4787-8D58-1F6DD6CCA7DC";
paths = (
{
closed = 1;
nodes = (
"217 564 OFFCURVE",
"269 612 OFFCURVE",
"269 669 CURVE",
"269 728 OFFCURVE",
"217 775 OFFCURVE",
"159 775 CURVE",
"102 775 OFFCURVE",
"50 728 OFFCURVE",
"50 669 CURVE",
"50 612 OFFCURVE",
"102 564 OFFCURVE",
"159 564 CURVE"
);
},
{
closed = 1;
nodes = (
"132 623 OFFCURVE",
"110 643 OFFCURVE",
"110 669 CURVE",
"110 697 OFFCURVE",
"132 716 OFFCURVE",
"159 716 CURVE",
"185 716 OFFCURVE",
"209 699 OFFCURVE",
"209 669 CURVE",
"209 643 OFFCURVE",
"187 623 OFFCURVE",
"159 623 CURVE"
);
}
);
width = 319;
}
);
unicode = 030A;
},
{
glyphname = tildecomb;
lastChange = "2018-04-02 16:38:16 +0000";
layers = (
{
anchors = (
{
name = _top;
position = "{219, 513}";
},
{
name = top;
position = "{219, 727}";
}
);
layerId = "3D0525B3-6B2A-4787-8D58-1F6DD6CCA7DC";
paths = (
{
closed = 1;
nodes = (
"106 589 OFFCURVE",
"123 604 OFFCURVE",
"117 628 CURVE SMOOTH",
"117 647 OFFCURVE",
"128 655 OFFCURVE",
"144 655 CURVE SMOOTH",
"179 655 OFFCURVE",
"242 594 OFFCURVE",
"292 594 CURVE",
"362 594 OFFCURVE",
"392 639 OFFCURVE",
"395 677 CURVE SMOOTH",
"396 712 OFFCURVE",
"379 733 OFFCURVE",
"352 733 CURVE SMOOTH",
"332 733 OFFCURVE",
"316 718 OFFCURVE",
"322 693 CURVE SMOOTH",
"323 676 OFFCURVE",
"313 666 OFFCURVE",
"297 666 CURVE",
"262 666 OFFCURVE",
"216 728 OFFCURVE",
"154 728 CURVE SMOOTH",
"85 728 OFFCURVE",
"47 691 OFFCURVE",
"44 648 CURVE SMOOTH",
"42 611 OFFCURVE",
"60 589 OFFCURVE",
"87 589 CURVE SMOOTH"
);
}
);
width = 438;
}
);
unicode = 0303;
},
